<svg width="22" height="24" viewBox="0 0 22 24" fill="none" xmlns="http://www.w3.org/2000/svg">
<path d="M19.75 2.5H17.125V1.625C17.125 1.39294 17.0328 1.17038 16.8687 1.00628C16.7046 0.842187 16.4821 0.75 16.25 0.75C16.0179 0.75 15.7954 0.842187 15.6313 1.00628C15.4672 1.17038 15.375 1.39294 15.375 1.625V2.5H6.625V1.625C6.625 1.39294 6.53281 1.17038 6.36872 1.00628C6.20462 0.842187 5.98206 0.75 5.75 0.75C5.51794 0.75 5.29538 0.842187 5.13128 1.00628C4.96719 1.17038 4.875 1.39294 4.875 1.625V2.5H2.25C1.78587 2.5 1.34075 2.68437 1.01256 3.01256C0.684374 3.34075 0.5 3.78587 0.5 4.25V21.75C0.5 22.2141 0.684374 22.6592 1.01256 22.9874C1.34075 23.3156 1.78587 23.5 2.25 23.5H19.75C20.2141 23.5 20.6592 23.3156 20.9874 22.9874C21.3156 22.6592 21.5 22.2141 21.5 21.75V4.25C21.5 3.78587 21.3156 3.34075 20.9874 3.01256C20.6592 2.68437 20.2141 2.5 19.75 2.5ZM4.875 4.25V5.125C4.875 5.35706 4.96719 5.57962 5.13128 5.74372C5.29538 5.90781 5.51794 6 5.75 6C5.98206 6 6.20462 5.90781 6.36872 5.74372C6.53281 5.57962 6.625 5.35706 6.625 5.125V4.25H15.375V5.125C15.375 5.35706 15.4672 5.57962 15.6313 5.74372C15.7954 5.90781 16.0179 6 16.25 6C16.4821 6 16.7046 5.90781 16.8687 5.74372C17.0328 5.57962 17.125 5.35706 17.125 5.125V4.25H19.75V7.75H2.25V4.25H4.875ZM19.75 21.75H2.25V9.5H19.75V21.75ZM14.5 15.625C14.5 15.8571 14.4078 16.0796 14.2437 16.2437C14.0796 16.4078 13.8571 16.5 13.625 16.5H11.875V18.25C11.875 18.4821 11.7828 18.7046 11.6187 18.8687C11.4546 19.0328 11.2321 19.125 11 19.125C10.7679 19.125 10.5454 19.0328 10.3813 18.8687C10.2172 18.7046 10.125 18.4821 10.125 18.25V16.5H8.375C8.14294 16.5 7.92038 16.4078 7.75628 16.2437C7.59219 16.0796 7.5 15.8571 7.5 15.625C7.5 15.3929 7.59219 15.1704 7.75628 15.0063C7.92038 14.8422 8.14294 14.75 8.375 14.75H10.125V13C10.125 12.7679 10.2172 12.5454 10.3813 12.3813C10.5454 12.2172 10.7679 12.125 11 12.125C11.2321 12.125 11.4546 12.2172 11.6187 12.3813C11.7828 12.5454 11.875 12.7679 11.875 13V14.75H13.625C13.8571 14.75 14.0796 14.8422 14.2437 15.0063C14.4078 15.1704 14.5 15.3929 14.5 15.625Z" fill="white"/>
</svg>
