<svg width="20" height="20" viewBox="0 0 20 20" fill="none" xmlns="http://www.w3.org/2000/svg">
<path d="M10.0013 18.3332C5.4044 18.3332 1.66797 14.5967 1.66797 9.99984C1.66797 5.40294 5.4044 1.6665 10.0013 1.6665C14.5982 1.6665 18.3346 5.40294 18.3346 9.99984C18.3346 14.5967 14.5982 18.3332 10.0013 18.3332ZM10.0013 2.82929C6.04781 2.82929 2.83076 6.04635 2.83076 9.99984C2.83076 13.9533 6.04781 17.1704 10.0013 17.1704C13.9548 17.1704 17.1718 13.9533 17.1718 9.99984C17.1718 6.04635 13.9548 2.82929 10.0013 2.82929Z" fill="#1D62D8"/>
<path d="M13.0994 10.5817H6.8978C6.57997 10.5817 6.31641 10.3182 6.31641 10.0003C6.31641 9.68251 6.57997 9.41895 6.8978 9.41895H13.0994C13.4172 9.41895 13.6807 9.68251 13.6807 10.0003C13.6807 10.3182 13.4172 10.5817 13.0994 10.5817Z" fill="#1D62D8"/>
<path d="M9.99936 13.6822C9.68153 13.6822 9.41797 13.4186 9.41797 13.1008V6.89927C9.41797 6.58144 9.68153 6.31787 9.99936 6.31787C10.3172 6.31787 10.5808 6.58144 10.5808 6.89927V13.1008C10.5808 13.4186 10.3172 13.6822 9.99936 13.6822Z" fill="#1D62D8"/>
</svg>
