<svg width="37" height="36" viewBox="0 0 37 36" fill="none" xmlns="http://www.w3.org/2000/svg">
<rect x="0.5" width="36" height="36" rx="18" fill="white" fill-opacity="0.08"/>
<path fill-rule="evenodd" clip-rule="evenodd" d="M21.9375 10.8125H15.0625V10.1875C15.0625 9.8425 14.7825 9.5625 14.4375 9.5625C14.0925 9.5625 13.8125 9.8425 13.8125 10.1875V10.8125H11.625C11.1278 10.8125 10.6509 11.01 10.2991 11.3616C9.9475 11.7134 9.75 12.1903 9.75 12.6875V23.625C9.75 24.1222 9.9475 24.5991 10.2991 24.9509C10.6509 25.3025 11.1278 25.5 11.625 25.5H25.375C25.8722 25.5 26.3491 25.3025 26.7009 24.9509C27.0525 24.5991 27.25 24.1222 27.25 23.625V12.6875C27.25 12.1903 27.0525 11.7134 26.7009 11.3616C26.3491 11.01 25.8722 10.8125 25.375 10.8125H23.1875V10.1875C23.1875 9.8425 22.9075 9.5625 22.5625 9.5625C22.2175 9.5625 21.9375 9.8425 21.9375 10.1875V10.8125ZM17.25 21.75H16.3125C15.9675 21.75 15.6875 22.03 15.6875 22.375C15.6875 22.72 15.9675 23 16.3125 23H17.25C17.595 23 17.875 22.72 17.875 22.375C17.875 22.03 17.595 21.75 17.25 21.75ZM20.6875 21.75H19.75C19.405 21.75 19.125 22.03 19.125 22.375C19.125 22.72 19.405 23 19.75 23H20.6875C21.0325 23 21.3125 22.72 21.3125 22.375C21.3125 22.03 21.0325 21.75 20.6875 21.75ZM13.8125 21.75H12.875C12.53 21.75 12.25 22.03 12.25 22.375C12.25 22.72 12.53 23 12.875 23H13.8125C14.1575 23 14.4375 22.72 14.4375 22.375C14.4375 22.03 14.1575 21.75 13.8125 21.75ZM17.25 19.25H16.3125C15.9675 19.25 15.6875 19.53 15.6875 19.875C15.6875 20.22 15.9675 20.5 16.3125 20.5H17.25C17.595 20.5 17.875 20.22 17.875 19.875C17.875 19.53 17.595 19.25 17.25 19.25ZM20.6875 19.25H19.75C19.405 19.25 19.125 19.53 19.125 19.875C19.125 20.22 19.405 20.5 19.75 20.5H20.6875C21.0325 20.5 21.3125 20.22 21.3125 19.875C21.3125 19.53 21.0325 19.25 20.6875 19.25ZM13.8125 19.25H12.875C12.53 19.25 12.25 19.53 12.25 19.875C12.25 20.22 12.53 20.5 12.875 20.5H13.8125C14.1575 20.5 14.4375 20.22 14.4375 19.875C14.4375 19.53 14.1575 19.25 13.8125 19.25ZM24.125 19.25H23.1875C22.8425 19.25 22.5625 19.53 22.5625 19.875C22.5625 20.22 22.8425 20.5 23.1875 20.5H24.125C24.47 20.5 24.75 20.22 24.75 19.875C24.75 19.53 24.47 19.25 24.125 19.25ZM17.25 16.75H16.3125C15.9675 16.75 15.6875 17.03 15.6875 17.375C15.6875 17.72 15.9675 18 16.3125 18H17.25C17.595 18 17.875 17.72 17.875 17.375C17.875 17.03 17.595 16.75 17.25 16.75ZM20.6875 16.75H19.75C19.405 16.75 19.125 17.03 19.125 17.375C19.125 17.72 19.405 18 19.75 18H20.6875C21.0325 18 21.3125 17.72 21.3125 17.375C21.3125 17.03 21.0325 16.75 20.6875 16.75ZM24.125 16.75H23.1875C22.8425 16.75 22.5625 17.03 22.5625 17.375C22.5625 17.72 22.8425 18 23.1875 18H24.125C24.47 18 24.75 17.72 24.75 17.375C24.75 17.03 24.47 16.75 24.125 16.75ZM23.1875 12.0625V12.6875C23.1875 13.0325 22.9075 13.3125 22.5625 13.3125C22.2175 13.3125 21.9375 13.0325 21.9375 12.6875V12.0625H15.0625V12.6875C15.0625 13.0325 14.7825 13.3125 14.4375 13.3125C14.0925 13.3125 13.8125 13.0325 13.8125 12.6875V12.0625H11.625C11.4594 12.0625 11.3003 12.1284 11.1831 12.2456C11.0659 12.3628 11 12.5219 11 12.6875V14.25H26V12.6875C26 12.5219 25.9341 12.3628 25.8169 12.2456C25.6997 12.1284 25.5406 12.0625 25.375 12.0625H23.1875Z" fill="white"/>
</svg>
