<svg width="18" height="16" viewBox="0 0 18 16" fill="none" xmlns="http://www.w3.org/2000/svg">
<path d="M18.0006 8C18.0006 8.19892 17.9216 8.38968 17.7809 8.53034C17.6403 8.67099 17.4495 8.75 17.2506 8.75H2.5609L8.03122 14.2194C8.1009 14.2891 8.15617 14.3718 8.19389 14.4628C8.2316 14.5539 8.25101 14.6515 8.25101 14.75C8.25101 14.8486 8.2316 14.9461 8.19389 15.0372C8.15617 15.1282 8.1009 15.2109 8.03122 15.2806C7.96153 15.3503 7.87881 15.4056 7.78776 15.4433C7.69672 15.481 7.59914 15.5004 7.50059 15.5004C7.40204 15.5004 7.30446 15.481 7.21342 15.4433C7.12237 15.4056 7.03965 15.3503 6.96996 15.2806L0.219965 8.53063C0.150233 8.46098 0.0949134 8.37826 0.0571702 8.28721C0.019427 8.19616 0 8.09857 0 8C0 7.90144 0.019427 7.80385 0.0571702 7.7128C0.0949134 7.62175 0.150233 7.53903 0.219965 7.46938L6.96996 0.71938C7.1107 0.57865 7.30157 0.499588 7.50059 0.499588C7.69961 0.499588 7.89048 0.57865 8.03122 0.71938C8.17195 0.860111 8.25101 1.05098 8.25101 1.25001C8.25101 1.44903 8.17195 1.6399 8.03122 1.78063L2.5609 7.25H17.2506C17.4495 7.25 17.6403 7.32902 17.7809 7.46968C17.9216 7.61033 18.0006 7.80109 18.0006 8Z" fill="currentColor"/>
</svg>
