<svg width="17" height="16" viewBox="0 0 17 16" fill="none" xmlns="http://www.w3.org/2000/svg">
<path d="M13.5 3.5H11.7675L10.9156 2.2225C10.87 2.15409 10.8082 2.098 10.7357 2.05919C10.6632 2.02038 10.5822 2.00005 10.5 2H6.5C6.41777 2.00005 6.33682 2.02038 6.26432 2.05919C6.19182 2.098 6.13001 2.15409 6.08437 2.2225L5.23187 3.5H3.5C3.10218 3.5 2.72064 3.65804 2.43934 3.93934C2.15804 4.22064 2 4.60218 2 5V12C2 12.3978 2.15804 12.7794 2.43934 13.0607C2.72064 13.342 3.10218 13.5 3.5 13.5H13.5C13.8978 13.5 14.2794 13.342 14.5607 13.0607C14.842 12.7794 15 12.3978 15 12V5C15 4.60218 14.842 4.22064 14.5607 3.93934C14.2794 3.65804 13.8978 3.5 13.5 3.5ZM14 12C14 12.1326 13.9473 12.2598 13.8536 12.3536C13.7598 12.4473 13.6326 12.5 13.5 12.5H3.5C3.36739 12.5 3.24021 12.4473 3.14645 12.3536C3.05268 12.2598 3 12.1326 3 12V5C3 4.86739 3.05268 4.74021 3.14645 4.64645C3.24021 4.55268 3.36739 4.5 3.5 4.5H5.5C5.58234 4.50005 5.66342 4.47977 5.73603 4.44096C5.80865 4.40214 5.87055 4.34599 5.91625 4.2775L6.7675 3H10.2319L11.0837 4.2775C11.1294 4.34599 11.1914 4.40214 11.264 4.44096C11.3366 4.47977 11.4177 4.50005 11.5 4.5H13.5C13.6326 4.5 13.7598 4.55268 13.8536 4.64645C13.9473 4.74021 14 4.86739 14 5V12ZM8.5 5.5C7.9561 5.5 7.42442 5.66128 6.97218 5.96346C6.51995 6.26563 6.16747 6.69512 5.95933 7.19762C5.75119 7.70012 5.69673 8.25305 5.80284 8.7865C5.90895 9.31995 6.17086 9.80995 6.55546 10.1945C6.94005 10.5791 7.43005 10.8411 7.9635 10.9472C8.49695 11.0533 9.04988 10.9988 9.55238 10.7907C10.0549 10.5825 10.4844 10.2301 10.7865 9.77782C11.0887 9.32558 11.25 8.7939 11.25 8.25C11.2492 7.52091 10.9592 6.82192 10.4436 6.30637C9.92808 5.79082 9.22909 5.50083 8.5 5.5ZM8.5 10C8.15388 10 7.81554 9.89736 7.52775 9.70507C7.23997 9.51278 7.01566 9.23947 6.88321 8.9197C6.75076 8.59993 6.7161 8.24806 6.78363 7.90859C6.85115 7.56913 7.01782 7.25731 7.26256 7.01256C7.50731 6.76782 7.81913 6.60115 8.15859 6.53363C8.49806 6.4661 8.84993 6.50076 9.1697 6.63321C9.48947 6.76566 9.76278 6.98997 9.95507 7.27775C10.1474 7.56554 10.25 7.90388 10.25 8.25C10.25 8.71413 10.0656 9.15925 9.73744 9.48744C9.40925 9.81563 8.96413 10 8.5 10Z" fill="#222222"/>
</svg>
