<svg width="16" height="16" viewBox="0 0 16 16" fill="none" xmlns="http://www.w3.org/2000/svg">
<path d="M2.64597 10.6465L7.64597 5.64646C7.69241 5.59997 7.74755 5.56309 7.80825 5.53793C7.86895 5.51277 7.93401 5.49982 7.99972 5.49982C8.06543 5.49982 8.13049 5.51277 8.19119 5.53793C8.25189 5.56309 8.30704 5.59997 8.35347 5.64646L13.3535 10.6465C13.4473 10.7403 13.5 10.8675 13.5 11.0002C13.5 11.1329 13.4473 11.2601 13.3535 11.354C13.2597 11.4478 13.1324 11.5005 12.9997 11.5005C12.867 11.5005 12.7398 11.4478 12.646 11.354L7.99972 6.70709L3.35347 11.354C3.30702 11.4004 3.25187 11.4373 3.19117 11.4624C3.13047 11.4875 3.06542 11.5005 2.99972 11.5005C2.93402 11.5005 2.86897 11.4875 2.80827 11.4624C2.74758 11.4373 2.69243 11.4004 2.64597 11.354C2.59952 11.3075 2.56267 11.2524 2.53753 11.1917C2.51238 11.131 2.49944 11.0659 2.49944 11.0002C2.49944 10.9345 2.51238 10.8695 2.53753 10.8088C2.56267 10.7481 2.59952 10.6929 2.64597 10.6465Z" fill="black"/>
</svg>
