<svg width="14" height="14" viewBox="0 0 14 14" fill="none" xmlns="http://www.w3.org/2000/svg">
<path d="M6.9987 12.3333C5.94387 12.3333 4.91272 12.0205 4.03566 11.4344C3.1586 10.8484 2.47501 10.0154 2.07134 9.0409C1.66768 8.06636 1.56206 6.99401 1.76785 5.95944C1.97363 4.92487 2.48158 3.97457 3.22746 3.22869C3.97334 2.48281 4.92365 1.97485 5.95822 1.76907C6.99278 1.56328 8.06514 1.6689 9.03968 2.07256C10.0142 2.47623 10.8472 3.15982 11.4332 4.03688C12.0192 4.91394 12.332 5.94509 12.332 6.99992C12.332 7.17673 12.4023 7.3463 12.5273 7.47133C12.6523 7.59635 12.8219 7.66659 12.9987 7.66659C13.1755 7.66659 13.3451 7.59635 13.4701 7.47133C13.5951 7.3463 13.6654 7.17673 13.6654 6.99992C13.6654 5.68138 13.2744 4.39245 12.5418 3.29612C11.8093 2.19979 10.7681 1.34531 9.54992 0.840725C8.33175 0.336141 6.99131 0.204118 5.6981 0.461353C4.40489 0.718588 3.21701 1.35353 2.28466 2.28588C1.35231 3.21823 0.717367 4.40611 0.460132 5.69932C0.202898 6.99253 0.33492 8.33297 0.839504 9.55115C1.34409 10.7693 2.19857 11.8105 3.2949 12.5431C4.39123 13.2756 5.68016 13.6666 6.9987 13.6666C7.17551 13.6666 7.34508 13.5964 7.47011 13.4713C7.59513 13.3463 7.66537 13.1767 7.66537 12.9999C7.66537 12.8231 7.59513 12.6535 7.47011 12.5285C7.34508 12.4035 7.17551 12.3333 6.9987 12.3333Z" fill="currentColor"/>
<path d="M6.99866 3C6.82185 3 6.65228 3.07024 6.52725 3.19526C6.40223 3.32029 6.33199 3.48986 6.33199 3.66667V6.72667L4.52532 8.52667C4.46284 8.58864 4.41324 8.66238 4.3794 8.74362C4.34555 8.82486 4.32812 8.91199 4.32812 9C4.32812 9.08801 4.34555 9.17515 4.3794 9.25638C4.41324 9.33762 4.46284 9.41136 4.52532 9.47333C4.5873 9.53582 4.66103 9.58542 4.74227 9.61926C4.82351 9.65311 4.91065 9.67053 4.99866 9.67053C5.08667 9.67053 5.1738 9.65311 5.25504 9.61926C5.33628 9.58542 5.41002 9.53582 5.47199 9.47333L7.47199 7.47333C7.53378 7.41104 7.58266 7.33716 7.61584 7.25594C7.64901 7.17471 7.66583 7.08774 7.66532 7V3.66667C7.66532 3.48986 7.59509 3.32029 7.47006 3.19526C7.34504 3.07024 7.17547 3 6.99866 3Z" fill="currentColor"/>
<path d="M13.472 9.85996L12.1387 8.52663C12.0132 8.40109 11.8429 8.33057 11.6654 8.33057C11.4878 8.33057 11.3176 8.40109 11.192 8.52663C11.0665 8.65216 10.996 8.82243 10.996 8.99996C10.996 9.17749 11.0665 9.34776 11.192 9.47329L11.392 9.66663H8.9987C8.82189 9.66663 8.65232 9.73686 8.52729 9.86189C8.40227 9.98691 8.33203 10.1565 8.33203 10.3333C8.33203 10.5101 8.40227 10.6797 8.52729 10.8047C8.65232 10.9297 8.82189 11 8.9987 11H11.392L11.192 11.1933C11.1295 11.2553 11.0799 11.329 11.0461 11.4102C11.0123 11.4915 10.9948 11.5786 10.9948 11.6666C10.9948 11.7546 11.0123 11.8418 11.0461 11.923C11.0799 12.0043 11.1295 12.078 11.192 12.14C11.254 12.2024 11.3277 12.252 11.409 12.2859C11.4902 12.3197 11.5774 12.3372 11.6654 12.3372C11.7534 12.3372 11.8405 12.3197 11.9217 12.2859C12.003 12.252 12.0767 12.2024 12.1387 12.14L13.472 10.8066C13.5327 10.7432 13.5803 10.6685 13.612 10.5866C13.6787 10.4243 13.6787 10.2423 13.612 10.08C13.5803 9.99813 13.5327 9.92336 13.472 9.85996Z" fill="currentColor"/>
</svg>
