<svg width="14" height="14" viewBox="0 0 14 14" fill="none" xmlns="http://www.w3.org/2000/svg">
<path d="M6.9987 12.3333C5.94387 12.3333 4.91272 12.0205 4.03566 11.4344C3.1586 10.8484 2.47501 10.0154 2.07134 9.0409C1.66768 8.06636 1.56206 6.99401 1.76785 5.95944C1.97363 4.92487 2.48158 3.97457 3.22746 3.22869C3.97334 2.48281 4.92365 1.97485 5.95822 1.76907C6.99278 1.56328 8.06514 1.6689 9.03968 2.07256C10.0142 2.47623 10.8472 3.15982 11.4332 4.03688C12.0192 4.91394 12.332 5.94509 12.332 6.99992C12.332 7.17673 12.4023 7.3463 12.5273 7.47133C12.6523 7.59635 12.8219 7.66659 12.9987 7.66659C13.1755 7.66659 13.3451 7.59635 13.4701 7.47133C13.5951 7.3463 13.6654 7.17673 13.6654 6.99992C13.6654 5.68138 13.2744 4.39245 12.5418 3.29612C11.8093 2.19979 10.7681 1.34531 9.54992 0.840725C8.33175 0.336141 6.99131 0.204118 5.6981 0.461353C4.40489 0.718588 3.21701 1.35353 2.28466 2.28588C1.35231 3.21823 0.717367 4.40611 0.460132 5.69932C0.202898 6.99253 0.33492 8.33297 0.839504 9.55115C1.34409 10.7693 2.19857 11.8105 3.2949 12.5431C4.39123 13.2756 5.68016 13.6666 6.9987 13.6666C7.17551 13.6666 7.34508 13.5964 7.47011 13.4713C7.59513 13.3463 7.66537 13.1767 7.66537 12.9999C7.66537 12.8231 7.59513 12.6535 7.47011 12.5285C7.34508 12.4035 7.17551 12.3333 6.9987 12.3333Z" fill="currentColor"/>
<path d="M6.99866 3C6.82185 3 6.65228 3.07024 6.52725 3.19526C6.40223 3.32029 6.33199 3.48986 6.33199 3.66667V6.72667L4.52532 8.52667C4.46284 8.58864 4.41324 8.66238 4.3794 8.74362C4.34555 8.82486 4.32812 8.91199 4.32812 9C4.32812 9.08801 4.34555 9.17515 4.3794 9.25638C4.41324 9.33762 4.46284 9.41136 4.52532 9.47333C4.5873 9.53582 4.66103 9.58542 4.74227 9.61926C4.82351 9.65311 4.91065 9.67053 4.99866 9.67053C5.08667 9.67053 5.1738 9.65311 5.25504 9.61926C5.33628 9.58542 5.41002 9.53582 5.47199 9.47333L7.47199 7.47333C7.53378 7.41104 7.58266 7.33716 7.61584 7.25594C7.64901 7.17471 7.66583 7.08774 7.66532 7V3.66667C7.66532 3.48986 7.59509 3.32029 7.47006 3.19526C7.34504 3.07024 7.17547 3 6.99866 3Z" fill="currentColor"/>
<path d="M12.9993 9.66663H10.6059L10.8059 9.47329C10.8681 9.41113 10.9174 9.33734 10.9511 9.25613C10.9847 9.17491 11.002 9.08787 11.002 8.99996C11.002 8.91205 10.9847 8.82501 10.9511 8.74379C10.9174 8.66258 10.8681 8.58879 10.8059 8.52663C10.7438 8.46447 10.67 8.41516 10.5888 8.38152C10.5076 8.34788 10.4205 8.33057 10.3326 8.33057C10.2447 8.33057 10.1577 8.34788 10.0764 8.38152C9.99523 8.41516 9.92144 8.46447 9.85928 8.52663L8.52595 9.85996C8.46525 9.92336 8.41768 9.99813 8.38595 10.08C8.31927 10.2423 8.31927 10.4243 8.38595 10.5866C8.41768 10.6685 8.46525 10.7432 8.52595 10.8066L9.85928 12.14C9.92126 12.2024 9.99499 12.252 10.0762 12.2859C10.1575 12.3197 10.2446 12.3372 10.3326 12.3372C10.4206 12.3372 10.5078 12.3197 10.589 12.2859C10.6702 12.252 10.744 12.2024 10.8059 12.14C10.8684 12.078 10.918 12.0043 10.9519 11.923C10.9857 11.8418 11.0031 11.7546 11.0031 11.6666C11.0031 11.5786 10.9857 11.4915 10.9519 11.4102C10.918 11.329 10.8684 11.2553 10.8059 11.1933L10.6059 11H12.9993C13.1761 11 13.3457 10.9297 13.4707 10.8047C13.5957 10.6797 13.6659 10.5101 13.6659 10.3333C13.6659 10.1565 13.5957 9.98691 13.4707 9.86189C13.3457 9.73686 13.1761 9.66663 12.9993 9.66663Z" fill="currentColor"/>
</svg>
