<svg width="18" height="18" viewBox="0 0 18 18" fill="none" xmlns="http://www.w3.org/2000/svg">
<path d="M9 17.125C4.51802 17.125 0.875 13.482 0.875 9C0.875 4.51802 4.51802 0.875 9 0.875C13.482 0.875 17.125 4.51802 17.125 9C17.125 13.482 13.482 17.125 9 17.125ZM9 2.00872C5.14535 2.00872 2.00872 5.14535 2.00872 9C2.00872 12.8547 5.14535 15.9913 9 15.9913C12.8547 15.9913 15.9913 12.8547 15.9913 9C15.9913 5.14535 12.8547 2.00872 9 2.00872Z" fill="#464646"/>
<path d="M12.0139 12.1928C11.9083 12.1928 11.8027 12.1684 11.7052 12.1034L9.18641 10.6003C8.56078 10.2266 8.09766 9.40594 8.09766 8.68281V5.35156C8.09766 5.01844 8.37391 4.74219 8.70703 4.74219C9.04016 4.74219 9.31641 5.01844 9.31641 5.35156V8.68281C9.31641 8.97531 9.56016 9.40594 9.81203 9.55219L12.3308 11.0553C12.6233 11.2259 12.7127 11.5997 12.542 11.8922C12.4202 12.0872 12.217 12.1928 12.0139 12.1928Z" fill="#464646"/>
</svg>
