<svg width="18" height="18" viewBox="0 0 18 18" fill="none" xmlns="http://www.w3.org/2000/svg">
<path d="M9 0.875C7.39303 0.875 5.82214 1.35152 4.486 2.24431C3.14985 3.1371 2.10844 4.40605 1.49348 5.8907C0.87852 7.37535 0.717618 9.00901 1.03112 10.5851C1.34463 12.1612 2.11846 13.6089 3.25476 14.7452C4.39106 15.8815 5.8388 16.6554 7.4149 16.9689C8.99099 17.2824 10.6247 17.1215 12.1093 16.5065C13.594 15.8916 14.8629 14.8502 15.7557 13.514C16.6485 12.1779 17.125 10.607 17.125 9C17.1227 6.84581 16.266 4.78051 14.7427 3.25727C13.2195 1.73403 11.1542 0.877275 9 0.875ZM9 15.875C7.64026 15.875 6.31105 15.4718 5.18046 14.7164C4.04987 13.9609 3.16868 12.8872 2.64833 11.6309C2.12798 10.3747 1.99183 8.99237 2.2571 7.65875C2.52238 6.32513 3.17716 5.10013 4.13864 4.13864C5.10013 3.17716 6.32514 2.52237 7.65876 2.2571C8.99238 1.99183 10.3747 2.12798 11.631 2.64833C12.8872 3.16868 13.9609 4.04987 14.7164 5.18045C15.4718 6.31104 15.875 7.64025 15.875 9C15.8729 10.8227 15.1479 12.5702 13.8591 13.8591C12.5702 15.1479 10.8227 15.8729 9 15.875ZM12.125 10.5625C12.125 11.1427 11.8945 11.6991 11.4843 12.1093C11.0741 12.5195 10.5177 12.75 9.9375 12.75H9.625V13.375C9.625 13.5408 9.55916 13.6997 9.44195 13.8169C9.32474 13.9342 9.16576 14 9 14C8.83424 14 8.67527 13.9342 8.55806 13.8169C8.44085 13.6997 8.375 13.5408 8.375 13.375V12.75H7.125C6.95924 12.75 6.80027 12.6842 6.68306 12.5669C6.56585 12.4497 6.5 12.2908 6.5 12.125C6.5 11.9592 6.56585 11.8003 6.68306 11.6831C6.80027 11.5658 6.95924 11.5 7.125 11.5H9.9375C10.1861 11.5 10.4246 11.4012 10.6004 11.2254C10.7762 11.0496 10.875 10.8111 10.875 10.5625C10.875 10.3139 10.7762 10.0754 10.6004 9.89959C10.4246 9.72377 10.1861 9.625 9.9375 9.625H8.0625C7.48234 9.625 6.92594 9.39453 6.51571 8.9843C6.10547 8.57406 5.875 8.01766 5.875 7.4375C5.875 6.85734 6.10547 6.30094 6.51571 5.8907C6.92594 5.48047 7.48234 5.25 8.0625 5.25H8.375V4.625C8.375 4.45924 8.44085 4.30027 8.55806 4.18306C8.67527 4.06585 8.83424 4 9 4C9.16576 4 9.32474 4.06585 9.44195 4.18306C9.55916 4.30027 9.625 4.45924 9.625 4.625V5.25H10.875C11.0408 5.25 11.1997 5.31585 11.3169 5.43306C11.4342 5.55027 11.5 5.70924 11.5 5.875C11.5 6.04076 11.4342 6.19973 11.3169 6.31694C11.1997 6.43415 11.0408 6.5 10.875 6.5H8.0625C7.81386 6.5 7.57541 6.59877 7.39959 6.77459C7.22378 6.9504 7.125 7.18886 7.125 7.4375C7.125 7.68614 7.22378 7.9246 7.39959 8.10041C7.57541 8.27623 7.81386 8.375 8.0625 8.375H9.9375C10.5177 8.375 11.0741 8.60547 11.4843 9.0157C11.8945 9.42594 12.125 9.98234 12.125 10.5625Z" fill="#464646"/>
</svg>
