<svg width="20" height="20" viewBox="0 0 20 20" fill="none" xmlns="http://www.w3.org/2000/svg">
<path d="M9.29131 11.6053C10.0016 11.1224 10.5408 10.4188 10.8293 9.59862C11.1177 8.77846 11.1401 7.88525 10.8931 7.05108C10.6461 6.21691 10.1428 5.48607 9.45772 4.96664C8.7726 4.4472 7.942 4.16675 7.08875 4.16675C6.2355 4.16675 5.40489 4.4472 4.71977 4.96664C4.03465 5.48607 3.53137 6.21691 3.28438 7.05108C3.03738 7.88525 3.05977 8.77846 3.34824 9.59862C3.63671 10.4188 4.17594 11.1224 4.88619 11.6053C3.60141 12.0889 2.50418 12.9839 1.75823 14.1567C1.71902 14.2162 1.69179 14.2831 1.67811 14.3534C1.66444 14.4238 1.66459 14.4962 1.67856 14.5665C1.69254 14.6368 1.72005 14.7036 1.75951 14.7629C1.79896 14.8222 1.84957 14.873 1.9084 14.9122C1.96722 14.9514 2.03309 14.9782 2.10216 14.9912C2.17124 15.0041 2.24214 15.0029 2.31076 14.9877C2.37938 14.9724 2.44435 14.9433 2.50187 14.9022C2.5594 14.861 2.60835 14.8086 2.64587 14.748C3.12705 13.9921 3.78548 13.371 4.56136 12.941C5.33724 12.511 6.206 12.2858 7.08875 12.2858C7.97149 12.2858 8.84025 12.511 9.61613 12.941C10.392 13.371 11.0504 13.9921 11.5316 14.748C11.6093 14.866 11.7294 14.948 11.8659 14.9763C12.0023 15.0046 12.1442 14.9769 12.2608 14.8992C12.3774 14.8215 12.4594 14.7001 12.4891 14.5611C12.5187 14.4222 12.4937 14.2769 12.4193 14.1567C11.6733 12.9839 10.5761 12.0889 9.29131 11.6053ZM4.17408 8.22785C4.17408 7.63906 4.34503 7.06351 4.66529 6.57395C4.98556 6.0844 5.44077 5.70284 5.97335 5.47752C6.50594 5.2522 7.09198 5.19325 7.65737 5.30812C8.22276 5.42298 8.7421 5.70651 9.14973 6.12284C9.55735 6.53917 9.83494 7.06961 9.94741 7.64707C10.0599 8.22454 10.0021 8.8231 9.78154 9.36707C9.56094 9.91103 9.18736 10.376 8.70805 10.7031C8.22873 11.0302 7.66521 11.2048 7.08875 11.2048C6.316 11.2039 5.57515 10.89 5.02874 10.3319C4.48232 9.77378 4.17496 9.0171 4.17408 8.22785ZM18.0943 14.9056C17.9765 14.984 17.8332 15.0115 17.6956 14.9819C17.5581 14.9524 17.4377 14.8682 17.3609 14.748C16.8803 13.9917 16.222 13.3703 15.446 12.9404C14.6699 12.5106 13.8009 12.2861 12.9181 12.2873C12.7775 12.2873 12.6427 12.2303 12.5434 12.1288C12.444 12.0273 12.3881 11.8896 12.3881 11.746C12.3881 11.6025 12.444 11.4648 12.5434 11.3633C12.6427 11.2618 12.7775 11.2048 12.9181 11.2048C13.3473 11.2044 13.7711 11.1071 14.1593 10.92C14.5475 10.7329 14.8904 10.4605 15.1636 10.1224C15.4367 9.78421 15.6334 9.3886 15.7395 8.96381C15.8456 8.53902 15.8586 8.09553 15.7774 7.66504C15.6963 7.23454 15.523 6.82767 15.2701 6.47348C15.0171 6.1193 14.6907 5.82655 14.3141 5.61615C13.9376 5.40575 13.5202 5.2829 13.0917 5.25637C12.6633 5.22984 12.2344 5.30029 11.8357 5.46268C11.7707 5.49138 11.7007 5.50649 11.6299 5.5071C11.5591 5.50771 11.4888 5.49382 11.4234 5.46624C11.3579 5.43867 11.2985 5.39797 11.2487 5.34655C11.1989 5.29513 11.1597 5.23404 11.1334 5.16688C11.1071 5.09972 11.0942 5.02786 11.0956 4.95554C11.0969 4.88322 11.1124 4.81191 11.1412 4.74582C11.17 4.67973 11.2115 4.62021 11.2632 4.57077C11.3149 4.52133 11.3757 4.48297 11.4422 4.45797C12.3547 4.08629 13.3696 4.07292 14.2911 4.42042C15.2127 4.76793 15.9756 5.45169 16.4326 6.33981C16.8897 7.22792 17.0086 8.25745 16.7663 9.2298C16.524 10.2021 15.9378 11.0484 15.1206 11.6053C16.4054 12.0889 17.5026 12.9839 18.2486 14.1567C18.3254 14.2769 18.3522 14.4233 18.3233 14.5638C18.2943 14.7043 18.2119 14.8272 18.0943 14.9056Z" fill="currentColor"/>
</svg>
