<svg width="16" height="17" viewBox="0 0 16 17" fill="none" xmlns="http://www.w3.org/2000/svg">
<path d="M14.25 1.3335H12.375V0.708496C12.375 0.542736 12.3092 0.383765 12.1919 0.266554C12.0747 0.149344 11.9158 0.0834961 11.75 0.0834961C11.5842 0.0834961 11.4253 0.149344 11.3081 0.266554C11.1908 0.383765 11.125 0.542736 11.125 0.708496V1.3335H4.875V0.708496C4.875 0.542736 4.80915 0.383765 4.69194 0.266554C4.57473 0.149344 4.41576 0.0834961 4.25 0.0834961C4.08424 0.0834961 3.92527 0.149344 3.80806 0.266554C3.69085 0.383765 3.625 0.542736 3.625 0.708496V1.3335H1.75C1.41848 1.3335 1.10054 1.46519 0.866116 1.69961C0.631696 1.93403 0.5 2.25198 0.5 2.5835V15.0835C0.5 15.415 0.631696 15.733 0.866116 15.9674C1.10054 16.2018 1.41848 16.3335 1.75 16.3335H14.25C14.5815 16.3335 14.8995 16.2018 15.1339 15.9674C15.3683 15.733 15.5 15.415 15.5 15.0835V2.5835C15.5 2.25198 15.3683 1.93403 15.1339 1.69961C14.8995 1.46519 14.5815 1.3335 14.25 1.3335ZM3.625 2.5835V3.2085C3.625 3.37426 3.69085 3.53323 3.80806 3.65044C3.92527 3.76765 4.08424 3.8335 4.25 3.8335C4.41576 3.8335 4.57473 3.76765 4.69194 3.65044C4.80915 3.53323 4.875 3.37426 4.875 3.2085V2.5835H11.125V3.2085C11.125 3.37426 11.1908 3.53323 11.3081 3.65044C11.4253 3.76765 11.5842 3.8335 11.75 3.8335C11.9158 3.8335 12.0747 3.76765 12.1919 3.65044C12.3092 3.53323 12.375 3.37426 12.375 3.2085V2.5835H14.25V5.0835H1.75V2.5835H3.625ZM14.25 15.0835H1.75V6.3335H14.25V15.0835ZM8.9375 9.146C8.9375 9.33142 8.88252 9.51267 8.7795 9.66684C8.67649 9.82101 8.53007 9.94118 8.35877 10.0121C8.18746 10.0831 7.99896 10.1017 7.8171 10.0655C7.63525 10.0293 7.4682 9.94002 7.33709 9.80891C7.20598 9.6778 7.11669 9.51075 7.08051 9.32889C7.04434 9.14704 7.06291 8.95854 7.13386 8.78723C7.20482 8.61592 7.32498 8.46951 7.47915 8.36649C7.63332 8.26348 7.81458 8.2085 8 8.2085C8.24864 8.2085 8.4871 8.30727 8.66291 8.48308C8.83873 8.6589 8.9375 8.89736 8.9375 9.146ZM12.375 9.146C12.375 9.33142 12.32 9.51267 12.217 9.66684C12.114 9.82101 11.9676 9.94118 11.7963 10.0121C11.625 10.0831 11.4365 10.1017 11.2546 10.0655C11.0727 10.0293 10.9057 9.94002 10.7746 9.80891C10.6435 9.6778 10.5542 9.51075 10.518 9.32889C10.4818 9.14704 10.5004 8.95854 10.5714 8.78723C10.6423 8.61592 10.7625 8.46951 10.9167 8.36649C11.0708 8.26348 11.2521 8.2085 11.4375 8.2085C11.6861 8.2085 11.9246 8.30727 12.1004 8.48308C12.2762 8.6589 12.375 8.89736 12.375 9.146ZM5.5 12.271C5.5 12.4564 5.44502 12.6377 5.342 12.7918C5.23899 12.946 5.09257 13.0662 4.92127 13.1371C4.74996 13.2081 4.56146 13.2267 4.3796 13.1905C4.19775 13.1543 4.0307 13.065 3.89959 12.9339C3.76848 12.8028 3.67919 12.6357 3.64301 12.4539C3.60684 12.272 3.62541 12.0835 3.69636 11.9122C3.76732 11.7409 3.88748 11.5945 4.04165 11.4915C4.19582 11.3885 4.37708 11.3335 4.5625 11.3335C4.81114 11.3335 5.0496 11.4323 5.22541 11.6081C5.40123 11.7839 5.5 12.0224 5.5 12.271ZM8.9375 12.271C8.9375 12.4564 8.88252 12.6377 8.7795 12.7918C8.67649 12.946 8.53007 13.0662 8.35877 13.1371C8.18746 13.2081 7.99896 13.2267 7.8171 13.1905C7.63525 13.1543 7.4682 13.065 7.33709 12.9339C7.20598 12.8028 7.11669 12.6357 7.08051 12.4539C7.04434 12.272 7.06291 12.0835 7.13386 11.9122C7.20482 11.7409 7.32498 11.5945 7.47915 11.4915C7.63332 11.3885 7.81458 11.3335 8 11.3335C8.24864 11.3335 8.4871 11.4323 8.66291 11.6081C8.83873 11.7839 8.9375 12.0224 8.9375 12.271ZM12.375 12.271C12.375 12.4564 12.32 12.6377 12.217 12.7918C12.114 12.946 11.9676 13.0662 11.7963 13.1371C11.625 13.2081 11.4365 13.2267 11.2546 13.1905C11.0727 13.1543 10.9057 13.065 10.7746 12.9339C10.6435 12.8028 10.5542 12.6357 10.518 12.4539C10.4818 12.272 10.5004 12.0835 10.5714 11.9122C10.6423 11.7409 10.7625 11.5945 10.9167 11.4915C11.0708 11.3885 11.2521 11.3335 11.4375 11.3335C11.6861 11.3335 11.9246 11.4323 12.1004 11.6081C12.2762 11.7839 12.375 12.0224 12.375 12.271Z" fill="#1D62D8"/>
</svg>
