<svg width="24" height="23" viewBox="0 0 24 23" fill="none" xmlns="http://www.w3.org/2000/svg">
<path d="M12 0.125C9.75024 0.125 7.551 0.792132 5.68039 2.04203C3.80978 3.29193 2.35182 5.06847 1.49088 7.14698C0.629929 9.22548 0.404666 11.5126 0.843573 13.7192C1.28248 15.9257 2.36584 17.9525 3.95667 19.5433C5.54749 21.1342 7.57432 22.2175 9.78085 22.6564C11.9874 23.0953 14.2745 22.8701 16.353 22.0091C18.4315 21.1482 20.2081 19.6902 21.458 17.8196C22.7079 15.949 23.375 13.7498 23.375 11.5C23.3718 8.48414 22.1724 5.59271 20.0398 3.46018C17.9073 1.32764 15.0159 0.128185 12 0.125ZM11.125 6.25C11.125 6.01794 11.2172 5.79538 11.3813 5.63128C11.5454 5.46719 11.7679 5.375 12 5.375C12.2321 5.375 12.4546 5.46719 12.6187 5.63128C12.7828 5.79538 12.875 6.01794 12.875 6.25V12.375C12.875 12.6071 12.7828 12.8296 12.6187 12.9937C12.4546 13.1578 12.2321 13.25 12 13.25C11.7679 13.25 11.5454 13.1578 11.3813 12.9937C11.2172 12.8296 11.125 12.6071 11.125 12.375V6.25ZM12 17.625C11.7404 17.625 11.4867 17.548 11.2708 17.4038C11.055 17.2596 10.8868 17.0546 10.7874 16.8148C10.6881 16.5749 10.6621 16.311 10.7127 16.0564C10.7634 15.8018 10.8884 15.568 11.0719 15.3844C11.2555 15.2009 11.4893 15.0759 11.7439 15.0252C11.9985 14.9746 12.2624 15.0006 12.5023 15.0999C12.7421 15.1992 12.9471 15.3675 13.0913 15.5833C13.2355 15.7992 13.3125 16.0529 13.3125 16.3125C13.3125 16.6606 13.1742 16.9944 12.9281 17.2406C12.6819 17.4867 12.3481 17.625 12 17.625Z" fill="currentColor"/>
</svg>
