<svg width="25" height="24" viewBox="0 0 25 24" fill="none" xmlns="http://www.w3.org/2000/svg">
<path d="M1.25 3.75C1.25 2.09314 2.59314 0.75 4.25 0.75H7.25C7.66423 0.75 8 1.08579 8 1.5C8 1.91421 7.66423 2.25 7.25 2.25H4.25C3.42157 2.25 2.75 2.92157 2.75 3.75V6.75C2.75 7.16423 2.41421 7.5 2 7.5C1.58579 7.5 1.25 7.16423 1.25 6.75V3.75Z" fill="#222222"/>
<path d="M17 1.5C17 1.08579 17.3358 0.75 17.75 0.75H20.75C22.4069 0.75 23.75 2.09314 23.75 3.75V6.75C23.75 7.16423 23.4142 7.5 23 7.5C22.5858 7.5 22.25 7.16423 22.25 6.75V3.75C22.25 2.92157 21.5784 2.25 20.75 2.25H17.75C17.3358 2.25 17 1.91421 17 1.5Z" fill="#222222"/>
<path d="M2 16.5C2.41421 16.5 2.75 16.8358 2.75 17.25V20.25C2.75 21.0784 3.42157 21.75 4.25 21.75H7.25C7.66423 21.75 8 22.0858 8 22.5C8 22.9142 7.66423 23.25 7.25 23.25H4.25C2.59314 23.25 1.25 21.9069 1.25 20.25V17.25C1.25 16.8358 1.58579 16.5 2 16.5Z" fill="#222222"/>
<path d="M23 16.5C23.4142 16.5 23.75 16.8358 23.75 17.25V20.25C23.75 21.9069 22.4069 23.25 20.75 23.25H17.75C17.3358 23.25 17 22.9142 17 22.5C17 22.0858 17.3358 21.75 17.75 21.75H20.75C21.5784 21.75 22.25 21.0784 22.25 20.25V17.25C22.25 16.8358 22.5858 16.5 23 16.5Z" fill="#222222"/>
<path d="M7.625 6.375C8.03922 6.375 8.375 6.71078 8.375 7.125V8.625C8.375 9.03923 8.03922 9.375 7.625 9.375C7.21078 9.375 6.875 9.03923 6.875 8.625V7.125C6.875 6.71078 7.21078 6.375 7.625 6.375Z" fill="#222222"/>
<path d="M18.125 7.125C18.125 6.71078 17.7892 6.375 17.375 6.375C16.9608 6.375 16.625 6.71078 16.625 7.125V8.625C16.625 9.03923 16.9608 9.375 17.375 9.375C17.7892 9.375 18.125 9.03923 18.125 8.625V7.125Z" fill="#222222"/>
<path d="M12.5002 6.375C12.9144 6.375 13.2502 6.71078 13.2502 7.125V10.6094C13.2502 11.7457 12.6082 12.7845 11.5918 13.2927L11.3356 13.4208C10.9651 13.606 10.5146 13.4559 10.3293 13.0854C10.1441 12.7149 10.2943 12.2644 10.6648 12.0792L10.921 11.9511C11.4292 11.697 11.7502 11.1776 11.7502 10.6094V7.125C11.7502 6.71078 12.0859 6.375 12.5002 6.375Z" fill="#222222"/>
<path d="M8.86983 15.1864C8.55854 14.9131 8.08465 14.9439 7.81139 15.2552C7.53813 15.5665 7.56891 16.0404 7.8802 16.3136C10.4415 18.5621 14.5586 18.5621 17.1198 16.3136C17.4311 16.0404 17.4619 15.5665 17.1886 15.2552C16.9154 14.9439 16.4415 14.9131 16.1302 15.1864C14.1351 16.9379 10.8649 16.9379 8.86983 15.1864Z" fill="#222222"/>
</svg>
