<svg width="120" height="120" viewBox="0 0 120 120" fill="none" xmlns="http://www.w3.org/2000/svg">
<path d="M102.358 49.1532C102.746 50.6754 103.053 52.2159 103.274 53.7687C103.327 54.1523 103.539 54.4776 103.825 54.7016C104.114 54.9257 104.492 55.0453 104.892 55.0024C105.291 54.9594 105.633 54.7569 105.863 54.4592C106.097 54.1615 106.205 53.7687 106.146 53.3606C105.909 51.7034 105.584 50.0585 105.168 48.4351C105.064 48.0362 104.806 47.717 104.483 47.5298C104.16 47.3426 103.76 47.2874 103.376 47.3979C102.988 47.5114 102.693 47.763 102.506 48.0822C102.318 48.4014 102.257 48.7788 102.355 49.1532H102.358Z" fill="white" fill-opacity="0.12"/>
<path d="M73.1823 15.3902C70.4489 14.5893 67.6416 14.043 64.8098 13.7515C61.9749 13.4691 59.1216 13.4384 56.2805 13.6625C50.6046 14.1136 45.0086 15.6204 39.8768 18.0846C39.5048 18.2657 39.2434 18.5787 39.1204 18.9316C39.0005 19.2876 39.0251 19.6865 39.2096 20.0395C39.3941 20.3954 39.7046 20.6379 40.0521 20.7545C40.4026 20.8742 40.7869 20.8619 41.1344 20.6931C45.9463 18.3823 51.1888 16.9706 56.5142 16.5502C59.1769 16.3415 61.8611 16.3692 64.5177 16.6331C67.1743 16.9062 69.8062 17.4187 72.3675 18.1675C72.7395 18.278 73.1239 18.2197 73.4467 18.0539C73.7696 17.8821 74.0371 17.5875 74.1631 17.21C74.2892 16.8295 74.2462 16.4367 74.0709 16.1022C73.8956 15.7677 73.5851 15.5068 73.1884 15.3902H73.1823Z" fill="white" fill-opacity="0.12"/>
<path d="M102.627 33.1095C103.672 34.7574 104.623 36.4637 105.471 38.2221C106.317 39.9805 107.061 41.788 107.697 43.6324C108.34 45.4768 108.859 47.361 109.275 49.2667C109.69 51.1725 110 53.1028 110.185 55.0423C110.225 55.4872 110.421 55.8739 110.707 56.1501C110.987 56.4232 111.362 56.5859 111.762 56.5582C112.162 56.5337 112.512 56.3219 112.755 55.9966C112.992 55.6714 113.115 55.2325 113.072 54.7599C112.875 52.7069 112.546 50.6661 112.109 48.6499C111.67 46.6337 111.116 44.639 110.44 42.6872C109.763 40.7355 108.976 38.8236 108.085 36.9608C107.187 35.1011 106.178 33.2967 105.074 31.5536C104.951 31.351 104.792 31.1853 104.619 31.0564C104.444 30.9245 104.257 30.8324 104.063 30.7741C103.675 30.6636 103.27 30.7127 102.938 30.9367C102.605 31.1608 102.412 31.5167 102.356 31.9096C102.329 32.106 102.335 32.3085 102.381 32.511C102.427 32.7136 102.51 32.913 102.627 33.1033V33.1095Z" fill="white" fill-opacity="0.12"/>
<path d="M113.218 39.2348C113.399 39.7073 113.713 40.0787 114.078 40.3027C114.438 40.5267 114.85 40.6034 115.225 40.4715C115.604 40.3395 115.874 40.0173 116.003 39.5999C116.129 39.1857 116.108 38.6762 115.917 38.1791C113.488 31.9924 110.026 26.2291 105.718 21.1901C105.377 20.782 104.931 20.5334 104.507 20.4475C104.079 20.3646 103.67 20.4475 103.375 20.7175C103.08 20.9876 102.951 21.3865 102.976 21.81C103 22.2335 103.188 22.6785 103.511 23.0683C107.609 27.8617 110.905 33.3488 113.214 39.2348H113.218Z" fill="white" fill-opacity="0.12"/>
<path d="M102.39 40.6097C101.264 38.1515 99.9113 35.7978 98.3709 33.5759C96.8304 31.3541 95.0993 29.2643 93.1961 27.3432C91.2928 25.4221 89.2266 23.6637 87.022 22.0955C84.8144 20.5304 82.4714 19.1587 80.027 17.9956C79.6519 17.8237 79.246 17.8053 78.8925 17.9403C78.5389 18.0723 78.2437 18.3393 78.0838 18.7045C77.9239 19.0697 77.927 19.4686 78.053 19.8092C78.1822 20.1499 78.4282 20.4506 78.7818 20.6133C81.0724 21.7027 83.2709 22.9916 85.3402 24.4585C87.4064 25.9285 89.3465 27.5795 91.1329 29.3809C92.9194 31.1823 94.5428 33.1432 95.9879 35.227C97.43 37.3107 98.6999 39.5171 99.7545 41.8218C99.7945 41.9108 99.8437 41.9906 99.9021 42.0643C99.9574 42.141 100.019 42.2085 100.083 42.2699C100.219 42.3926 100.376 42.4908 100.548 42.5553C100.892 42.6842 101.289 42.6934 101.658 42.5369C102.027 42.3804 102.297 42.0919 102.43 41.742C102.497 41.5671 102.528 41.3769 102.525 41.1835C102.525 41.0884 102.509 40.9902 102.488 40.892C102.466 40.7968 102.433 40.7017 102.386 40.6066L102.39 40.6097Z" fill="white" fill-opacity="0.12"/>
<path d="M18.3727 29.2397C18.6956 29.4791 19.0922 29.5405 19.4827 29.4668C19.8732 29.3901 20.2421 29.1661 20.5219 28.8193C21.6473 27.4015 22.8495 26.042 24.1225 24.7531C24.433 24.4309 24.6113 24.0381 24.639 23.6422C24.6667 23.2494 24.5498 22.8566 24.2731 22.5681C23.9964 22.2797 23.612 22.1477 23.2093 22.1723C22.8065 22.1999 22.3822 22.3809 22.0562 22.7185C20.7126 24.0841 19.4427 25.5203 18.2497 27.0179C17.9545 27.3862 17.8285 27.8281 17.85 28.2301C17.8715 28.6321 18.056 29.0004 18.3758 29.2367L18.3727 29.2397Z" fill="white" fill-opacity="0.12"/>
<path d="M16.3016 44.0069C15.8589 45.2191 15.4653 46.4497 15.124 47.6956C14.4353 50.1844 13.9741 52.7346 13.7066 55.3001C13.5774 56.5829 13.5067 57.8748 13.4821 59.1637C13.4544 60.4526 13.4882 61.7446 13.5743 63.0304C13.6604 64.3163 13.7865 65.6021 13.9833 66.8787C14.1739 68.1554 14.4168 69.4228 14.712 70.681C15.0041 71.9392 15.3608 73.1821 15.7605 74.4096C16.1633 75.6371 16.6122 76.8493 17.1134 78.0369C17.2763 78.4175 17.5776 78.6937 17.9251 78.8318C18.2725 78.9698 18.6753 78.9637 19.0381 78.798C19.404 78.6292 19.6592 78.3346 19.7976 77.994C19.936 77.6503 19.9421 77.2667 19.7884 76.9107C19.0843 75.229 18.4755 73.5104 17.9866 71.7551C17.8697 71.3162 17.7437 70.8774 17.6391 70.4324C17.5869 70.2115 17.5284 69.9905 17.4793 69.7696L17.3347 69.1006L17.2609 68.7661L17.1964 68.4316L17.0672 67.7595L16.9535 67.0843C16.9166 66.8603 16.8766 66.6363 16.8459 66.4092C16.5845 64.6047 16.4246 62.788 16.3877 60.9651C16.3508 59.1423 16.4215 57.3163 16.606 55.5027C16.6491 55.1191 16.852 54.7876 17.141 54.5697C17.4331 54.3518 17.8175 54.2506 18.211 54.3027L19.1027 54.4224C19.4993 54.4777 19.8376 54.671 20.0682 54.9349C20.3019 55.2019 20.4279 55.5364 20.3879 55.8863C20.2957 56.8499 20.225 57.8196 20.1973 58.7893C20.1758 59.7591 20.1696 60.7319 20.2158 61.7016C20.225 62.0546 20.4125 62.3676 20.6893 62.5793C20.966 62.7911 21.335 62.9046 21.7347 62.8739C22.1344 62.8432 22.488 62.6806 22.737 62.4474C22.9861 62.2141 23.1245 61.9073 23.1152 61.5789C22.9492 57.5557 23.4166 53.5294 24.5388 49.6903C24.8125 48.7298 25.1384 47.7815 25.4951 46.8486C25.8548 45.9157 26.2422 44.992 26.6788 44.0928C27.549 42.2914 28.5544 40.5483 29.7075 38.9096C30.2824 38.0871 30.8881 37.2893 31.5277 36.5159C32.1703 35.7426 32.8406 34.9969 33.5416 34.2788C34.9376 32.8364 36.4626 31.5168 38.0738 30.3231C38.8794 29.7246 39.7126 29.163 40.5643 28.6352C41.416 28.1074 42.2892 27.6102 43.1809 27.153C44.0726 26.6988 44.9827 26.2784 45.9082 25.8948C46.1419 25.8027 46.3694 25.7014 46.6062 25.6124L47.3072 25.3454C47.7807 25.1797 48.2511 25.0079 48.7277 24.8606C49.0383 24.7562 49.275 24.5199 49.4072 24.2069C49.5395 23.8939 49.5733 23.5072 49.4626 23.1206C49.3519 22.737 49.1182 22.427 48.8261 22.2429C48.5309 22.0557 48.1743 21.9912 47.8391 22.1017C43.2609 23.5625 38.9624 25.8794 35.1989 28.8776C31.4324 31.8697 28.2193 35.5554 25.7595 39.6799C25.5781 39.9837 25.2737 40.177 24.9355 40.2537C24.5942 40.3305 24.2037 40.2813 23.8532 40.088L23.066 39.6522C22.7155 39.4589 22.4726 39.152 22.3681 38.8022C22.2605 38.4523 22.2974 38.0687 22.4972 37.7373C25.4612 32.7628 29.4246 28.3836 34.0889 24.9434C34.4026 24.7163 34.587 24.3757 34.6485 24.0166C34.707 23.6576 34.6332 23.2679 34.4056 22.9395C34.1781 22.6111 33.8368 22.4055 33.4648 22.3441C33.0927 22.2828 32.6961 22.3748 32.3609 22.6173C28.2039 25.6892 24.5634 29.4515 21.6363 33.711C20.1727 35.8408 18.8813 38.0872 17.7959 40.4287C17.2517 41.6009 16.7536 42.7916 16.3078 44.0038L16.3016 44.0069Z" fill="white" fill-opacity="0.12"/>
<path d="M111.688 64.4451C111.289 64.4114 110.911 64.5648 110.625 64.8349C110.342 65.1049 110.13 65.4885 110.08 65.9304C109.868 67.7287 109.561 69.5148 109.155 71.2824C109.053 71.7182 109.112 72.1478 109.296 72.4977C109.481 72.8475 109.779 73.1176 110.166 73.2219C110.551 73.3232 110.957 73.2373 111.286 73.001C111.612 72.7677 111.876 72.3903 111.984 71.9299C112.411 70.061 112.737 68.1706 112.961 66.268C113.014 65.7985 112.903 65.3566 112.666 65.0251C112.433 64.6937 112.088 64.4789 111.688 64.4451Z" fill="white" fill-opacity="0.12"/>
<path d="M19.5703 100.335C19.4688 100.126 19.3274 99.9267 19.1521 99.7456C18.3773 98.96 17.6363 98.1407 16.9075 97.3151L16.3725 96.686C16.1942 96.4743 16.0159 96.2656 15.8437 96.0508C15.4962 95.6212 15.1457 95.1946 14.8137 94.7558C13.4669 93.0065 12.2124 91.1867 11.0779 89.2933C9.94328 87.3998 8.91325 85.4419 8.00005 83.4288C7.09301 81.4126 6.29972 79.3473 5.62943 77.239C5.54949 76.9996 5.44188 76.7787 5.30966 76.5884C5.17745 76.3981 5.01756 76.2385 4.84538 76.1158C4.49793 75.8703 4.09207 75.766 3.70773 75.8734C3.32031 75.9808 3.02821 76.2846 2.87755 76.6897C2.80068 76.8922 2.75764 77.1224 2.75456 77.3617C2.74841 77.6042 2.78531 77.8589 2.86833 78.1105C3.57244 80.3262 4.40569 82.4989 5.36193 84.6164C6.32125 86.7308 7.40356 88.79 8.59655 90.7786C9.78647 92.7702 11.1055 94.6821 12.5199 96.5173C12.8704 96.9806 13.2363 97.4287 13.6022 97.8798C13.7836 98.1069 13.9712 98.3248 14.1587 98.5488L14.7214 99.2117C15.487 100.083 16.2649 100.939 17.0767 101.765C17.2611 101.955 17.4671 102.109 17.6824 102.219C17.8976 102.33 18.119 102.397 18.3373 102.425C18.7678 102.48 19.1736 102.366 19.4503 102.078C19.7271 101.789 19.8285 101.384 19.7763 100.964C19.7486 100.752 19.681 100.54 19.5764 100.335H19.5703Z" fill="white" fill-opacity="0.12"/>
<path d="M58.972 110.272C57.161 110.235 55.35 110.103 53.5513 109.87C53.1085 109.808 52.6842 109.913 52.3521 110.13C52.02 110.342 51.7802 110.671 51.7156 111.063C51.6511 111.456 51.7802 111.846 52.0446 112.153C52.3091 112.454 52.7118 112.675 53.1792 112.739C55.0825 112.984 56.998 113.123 58.9105 113.166C59.3809 113.172 59.8114 113.015 60.1189 112.754C60.4263 112.49 60.6078 112.125 60.6047 111.723C60.6016 111.324 60.411 110.962 60.1158 110.704C59.8206 110.443 59.4178 110.272 58.972 110.269V110.272Z" fill="white" fill-opacity="0.12"/>
<path d="M37.4307 108.16C40.487 109.593 43.6817 110.732 46.9563 111.561C47.4175 111.671 47.8725 111.619 48.2292 111.432C48.5889 111.241 48.8503 110.928 48.9364 110.539C49.0225 110.149 48.9179 109.756 48.6873 109.437C48.4567 109.118 48.1031 108.86 47.6665 108.756C47.3744 108.688 47.0854 108.602 46.7964 108.525C46.5074 108.449 46.2152 108.369 45.9293 108.283L45.0653 108.025L44.2075 107.749C44.0998 107.715 44.0014 107.672 43.9061 107.62C43.8139 107.568 43.7247 107.507 43.6479 107.439C43.488 107.307 43.3619 107.148 43.2666 106.976C43.079 106.632 43.0391 106.233 43.1774 105.856L43.488 105.012C43.6263 104.637 43.9123 104.355 44.2597 104.198C44.4319 104.122 44.6195 104.073 44.8132 104.063C44.9085 104.057 45.0069 104.063 45.1053 104.076C45.2037 104.088 45.3021 104.109 45.4004 104.14C49.8004 105.595 54.4217 106.38 59.0492 106.475C59.4612 106.482 59.8394 106.325 60.1069 106.064C60.3744 105.8 60.5343 105.435 60.5312 105.036C60.5281 104.637 60.3621 104.275 60.1038 104.017C59.8455 103.757 59.4981 103.588 59.1107 103.582C56.3157 103.523 53.527 103.198 50.7966 102.612C48.0662 102.026 45.3912 101.173 42.8238 100.074C37.689 97.8767 32.9847 94.6759 29.049 90.7141C28.7785 90.4379 28.4156 90.3029 28.0497 90.2937C27.6839 90.2875 27.3087 90.4164 27.0166 90.6895C26.7245 90.9627 26.5677 91.3278 26.5616 91.7053C26.5554 92.0797 26.703 92.4602 26.992 92.7548C28.2773 94.0499 29.6425 95.2621 31.0691 96.4006C31.1491 96.465 31.2229 96.5356 31.2874 96.6123C31.352 96.686 31.4104 96.7658 31.4596 96.8486C31.558 97.0143 31.6226 97.1985 31.6503 97.3857C31.7087 97.7601 31.6287 98.1529 31.3889 98.4751L30.8508 99.1963C30.611 99.5185 30.2513 99.7026 29.8638 99.7333C29.6701 99.7487 29.4672 99.7272 29.2673 99.6689C29.1689 99.6382 29.0706 99.5983 28.9752 99.5523C28.8799 99.5032 28.7908 99.4418 28.7016 99.3712C27.7146 98.5948 26.7645 97.7693 25.8421 96.9192C25.6146 96.7044 25.3809 96.4957 25.1564 96.2748L24.4831 95.618C24.0434 95.17 23.5975 94.725 23.1732 94.2647C19.6988 90.5392 16.7839 86.2889 14.5794 81.6918C14.3887 81.2867 14.072 80.989 13.7092 80.8294C13.3525 80.6668 12.9436 80.6422 12.5777 80.8049C12.2118 80.9645 11.9535 81.2836 11.8398 81.6734C11.7291 82.06 11.7629 82.5173 11.9628 82.9438C14.2934 87.8079 17.3743 92.3037 21.0486 96.241C23.3823 98.7421 25.9559 101.019 28.7262 103.029C31.4535 105.009 34.3683 106.733 37.4277 108.163L37.4307 108.16Z" fill="white" fill-opacity="0.12"/>
<path d="M3.45563 70.2574C3.65241 69.883 3.74158 69.4043 3.65856 68.9041C3.33879 66.8756 3.12663 64.8348 3.03132 62.7879C3.00979 62.2846 2.83146 61.8335 2.55781 61.5082C2.29031 61.1829 1.92442 60.9804 1.5247 60.9865C1.12499 60.9927 0.762169 61.2105 0.506966 61.5604C0.257913 61.9102 0.113399 62.3982 0.134922 62.926C0.236388 65.0742 0.457772 67.2193 0.795992 69.3521C0.882084 69.8769 1.11884 70.3249 1.44168 70.6195C1.76453 70.9141 2.16117 71.0522 2.55473 70.9786C2.9483 70.9049 3.265 70.6287 3.46178 70.2543L3.45563 70.2574Z" fill="white" fill-opacity="0.12"/>
<path d="M106.519 86.028L106.898 85.3529L107.26 84.6685C107.38 84.4415 107.503 84.2144 107.617 83.9811C108.549 82.1429 109.373 80.2495 110.089 78.313C110.249 77.8681 110.237 77.4078 110.089 77.0334C109.942 76.659 109.652 76.3643 109.271 76.2385C108.89 76.1127 108.49 76.1772 108.146 76.3705C107.798 76.5638 107.512 76.8922 107.362 77.3126C106.685 79.1416 105.904 80.9307 105.025 82.6708C104.917 82.8886 104.801 83.1035 104.69 83.3183L104.349 83.9627L103.992 84.601C103.872 84.8128 103.755 85.0276 103.629 85.2363C103.38 85.6536 103.137 86.0771 102.876 86.4884L102.488 87.1083L102.086 87.7189C101.821 88.1271 101.538 88.5261 101.262 88.925C101.123 89.1275 100.979 89.3209 100.834 89.5173L100.404 90.1065C99.8134 90.8829 99.2138 91.6501 98.5804 92.3897C97.3228 93.8781 95.9853 95.2958 94.5586 96.6277C94.2296 96.9315 94.0482 97.3274 93.999 97.7171C93.9529 98.1069 94.0544 98.5028 94.3188 98.8004C94.5832 99.1012 94.9645 99.2485 95.3704 99.2393C95.7793 99.2331 96.1975 99.0582 96.5449 98.736C98.0515 97.3305 99.4659 95.8298 100.794 94.2555C101.461 93.473 102.098 92.6597 102.722 91.8404L103.18 91.2174C103.331 91.0087 103.485 90.8031 103.632 90.5914C103.924 90.1679 104.223 89.7474 104.505 89.3147L104.93 88.6703L105.339 88.0166C105.615 87.5809 105.874 87.1359 106.138 86.694C106.27 86.473 106.396 86.2459 106.522 86.0219L106.519 86.028Z" fill="white" fill-opacity="0.12"/>
<path d="M31.5533 109.511C31.3996 109.336 31.212 109.179 30.9937 109.05C29.2257 108.004 27.5131 106.865 25.8681 105.638C25.4653 105.331 25.0041 105.181 24.5767 105.184C24.1524 105.184 23.765 105.334 23.5129 105.647C23.2638 105.96 23.1993 106.374 23.31 106.795C23.4206 107.212 23.7066 107.633 24.1278 107.955C25.8558 109.244 27.6545 110.441 29.5148 111.539C29.7454 111.674 29.9821 111.769 30.2189 111.821C30.4556 111.871 30.6893 111.88 30.9045 111.849C31.335 111.791 31.6947 111.576 31.8885 111.226C32.0822 110.876 32.0729 110.456 31.91 110.066C31.827 109.87 31.707 109.683 31.5533 109.511Z" fill="white" fill-opacity="0.12"/>
<path d="M1.66027 55.8648C2.06306 55.8924 2.43203 55.7083 2.72413 55.3983C3.01623 55.0853 3.21608 54.6464 3.26528 54.1432C3.41287 52.7254 3.61272 51.3106 3.86178 49.9051C3.95709 49.408 4.20308 48.9876 4.52285 48.7144C4.84569 48.4444 5.24541 48.3216 5.6359 48.4045L6.51834 48.5917C6.91191 48.6745 7.22246 48.9415 7.41616 49.2975C7.61295 49.6566 7.69289 50.1077 7.60372 50.5711C6.94573 54.2506 6.67823 57.9915 6.79815 61.7139C6.91806 65.4395 7.42539 69.1619 8.32629 72.7923C8.4339 73.2526 8.70755 73.624 9.03962 73.8541C9.37477 74.0812 9.77141 74.1641 10.1588 74.0567C10.5432 73.9493 10.8445 73.67 11.0197 73.3171C11.195 72.9642 11.2442 72.5345 11.1427 72.0988C10.3894 69.0484 9.91592 65.9274 9.74989 62.7941C9.58078 59.6639 9.69454 56.5184 10.1035 53.4036C10.9152 47.1739 12.9322 41.0976 15.9885 35.6075C16.0961 35.4111 16.1668 35.2086 16.1976 35.003C16.2283 34.7974 16.2283 34.5948 16.1884 34.4015C16.1115 34.0148 15.8963 33.6711 15.5519 33.4655C15.2075 33.2599 14.8017 33.2354 14.4173 33.3673C14.2267 33.4348 14.0391 33.5361 13.8762 33.6803C13.7132 33.8215 13.5656 33.9995 13.4519 34.2051L13.212 34.6347L12.9814 35.0674C12.8308 35.3559 12.674 35.6444 12.5264 35.9359C12.3173 36.3594 11.9791 36.6693 11.607 36.8381C11.2381 37.0069 10.826 37.0315 10.4632 36.8627L9.64842 36.4822C9.2856 36.3134 9.0427 35.9758 8.94431 35.5646C8.84899 35.1534 8.91049 34.6716 9.13802 34.2204C10.6569 31.2406 12.4403 28.3958 14.4511 25.729C16.462 23.0592 18.7158 20.5765 21.1602 18.3025C23.6077 16.0285 26.252 13.9632 29.0653 12.1526C31.8756 10.339 34.8489 8.76773 37.939 7.46962C38.4094 7.27628 38.7723 6.95406 38.9875 6.5858C39.2027 6.22368 39.2704 5.80939 39.1259 5.435C38.9813 5.0606 38.6554 4.79975 38.2342 4.68007C37.816 4.56652 37.3087 4.59721 36.8137 4.79976C31.8756 6.87427 27.2267 9.61165 23.0204 12.9014C18.8203 16.1973 15.063 20.0487 11.8745 24.3297C8.68603 28.6107 6.07251 33.3274 4.12928 38.3112C2.18297 43.2949 0.928484 48.5518 0.378108 53.8578C0.328912 54.3856 0.44883 54.8797 0.679435 55.2449C0.910039 55.6101 1.26363 55.8464 1.66335 55.874L1.66027 55.8648Z" fill="white" fill-opacity="0.12"/>
<path d="M119.527 63.1838C119.284 62.8248 118.927 62.5977 118.528 62.5823C118.125 62.5639 117.759 62.7573 117.479 63.0764C117.196 63.3956 117.006 63.8405 116.972 64.3438C116.578 69.4718 115.496 74.5691 113.728 79.4209C111.963 84.2727 109.537 88.8759 106.542 93.0648C106.244 93.473 106.106 93.9394 106.118 94.3629C106.124 94.7864 106.287 95.17 106.604 95.4125C106.924 95.6549 107.339 95.7071 107.76 95.5905C108.175 95.4708 108.59 95.1762 108.904 94.7465C112.049 90.3428 114.601 85.5033 116.455 80.406C118.312 75.3087 119.45 69.9475 119.865 64.5617C119.899 64.0308 119.77 63.5429 119.527 63.1838Z" fill="white" fill-opacity="0.12"/>
<path d="M102.224 99.0184C101.802 99.0828 101.375 99.3099 101.021 99.6689C97.3349 103.462 93.1225 106.746 88.5258 109.388C88.0861 109.64 87.6033 109.719 87.1883 109.649C86.7732 109.578 86.4226 109.348 86.2351 108.998L85.8108 108.206C85.6201 107.853 85.6263 107.445 85.7739 107.065C85.9215 106.681 86.2166 106.334 86.6256 106.101C87.7663 105.441 88.8855 104.739 89.977 104.002C90.3645 103.732 90.6258 103.358 90.7242 102.968C90.8195 102.575 90.758 102.17 90.5213 101.848C90.2845 101.526 89.9217 101.341 89.5312 101.302C89.1376 101.259 88.7103 101.354 88.3444 101.608C86.7332 102.704 85.0513 103.701 83.3233 104.604C81.5953 105.509 79.8089 106.307 77.9856 107C74.339 108.394 70.5232 109.345 66.6521 109.854C66.2094 109.916 65.825 110.115 65.5606 110.41C65.2962 110.704 65.1455 111.082 65.1855 111.478C65.2255 111.877 65.4468 112.22 65.782 112.444C66.1141 112.668 66.5599 112.788 67.0303 112.724L68.0542 112.579C68.3955 112.527 68.7337 112.469 69.075 112.414C69.5424 112.34 69.9913 112.414 70.348 112.613C70.7046 112.813 70.9691 113.129 71.049 113.522L71.2304 114.402C71.3104 114.795 71.1843 115.188 70.9106 115.507C70.637 115.823 70.2158 116.078 69.7146 116.158L68.7337 116.32L67.7498 116.458L67.2579 116.526L66.7659 116.584C66.4369 116.621 66.1079 116.661 65.782 116.695C65.124 116.753 64.466 116.817 63.808 116.854C63.479 116.873 63.15 116.897 62.821 116.913L61.834 116.949C61.505 116.965 61.176 116.965 60.847 116.971C60.5181 116.971 60.189 116.983 59.8601 116.977C59.2021 116.968 58.5441 116.965 57.883 116.934C56.5639 116.891 55.248 116.787 53.932 116.652C48.6742 116.099 43.4779 114.789 38.5706 112.8C38.3369 112.705 38.0971 112.65 37.8634 112.635C37.6328 112.619 37.4084 112.635 37.2024 112.687C36.7903 112.794 36.4521 113.04 36.2892 113.405C36.1262 113.77 36.1723 114.187 36.3876 114.565C36.4952 114.755 36.6428 114.936 36.8273 115.093C37.0117 115.249 37.2331 115.381 37.4791 115.483C42.9798 117.717 48.831 119.119 54.7314 119.638C55.4693 119.708 56.2073 119.748 56.9452 119.794L58.0521 119.837C58.4211 119.853 58.79 119.859 59.159 119.862C60.6349 119.889 62.1108 119.849 63.5866 119.767C66.5384 119.598 69.487 119.205 72.3957 118.597C78.21 117.385 83.846 115.292 89.0362 112.423C94.2294 109.557 98.9829 105.926 103.106 101.682C103.481 101.305 103.687 100.838 103.73 100.409C103.773 99.9758 103.65 99.58 103.352 99.3099C103.057 99.0398 102.645 98.9508 102.227 99.0153L102.224 99.0184Z" fill="white" fill-opacity="0.12"/>
<path d="M22.3123 87.2495C22.5552 87.584 22.9057 87.7896 23.2808 87.8417C23.6528 87.897 24.0403 87.8049 24.357 87.5594C24.6737 87.3139 24.8612 86.9641 24.9166 86.6019C24.9657 86.2429 24.892 85.8624 24.6644 85.5493C23.742 84.2789 22.8842 82.9593 22.1062 81.5967C21.9187 81.2591 21.602 81.0321 21.2484 80.9339C20.8979 80.8326 20.5012 80.8602 20.1476 81.0474C19.7941 81.2346 19.5481 81.5476 19.4435 81.9097C19.3421 82.2688 19.3851 82.6739 19.585 83.036C20.4151 84.4906 21.3314 85.8961 22.3153 87.2525L22.3123 87.2495Z" fill="white" fill-opacity="0.12"/>
<path d="M34.5436 13.3002C31.9547 14.7119 29.4857 16.3414 27.1612 18.1551C26.7923 18.4497 26.5617 18.8456 26.4879 19.2415C26.4171 19.6404 26.5094 20.0394 26.7646 20.3462C27.0229 20.6531 27.3949 20.8096 27.7915 20.825C28.1882 20.8434 28.6033 20.7145 28.9538 20.4352C31.1492 18.7198 33.4859 17.1792 35.9334 15.8443C37.1603 15.1784 38.4117 14.5615 39.6877 13.9999C40.9637 13.4353 42.2643 12.9228 43.5834 12.4717C43.6879 12.4348 43.7894 12.3888 43.8816 12.3366C43.9769 12.2845 44.063 12.2262 44.146 12.1617C44.309 12.0328 44.4412 11.8763 44.5427 11.7075C44.7425 11.3669 44.8133 10.9649 44.6964 10.5843C44.5765 10.2007 44.2905 9.91228 43.9185 9.75884C43.7309 9.68212 43.5249 9.63609 43.3066 9.62995C43.199 9.62688 43.0853 9.63302 42.9746 9.64836C42.8639 9.66677 42.7501 9.69439 42.6394 9.73429C41.2435 10.213 39.866 10.7531 38.5162 11.3516C37.1664 11.9469 35.8412 12.6006 34.5436 13.3033V13.3002Z" fill="white" fill-opacity="0.12"/>
<path d="M43.5363 5.00841C43.933 5.16492 44.4157 5.1864 44.9076 5.05751C48.7388 4.00798 52.6806 3.36353 56.6316 3.1303C57.1358 3.09347 57.6032 3.24384 57.9414 3.49241C58.2796 3.74099 58.4918 4.09697 58.501 4.49592L58.5256 5.39508C58.5349 5.79402 58.3504 6.16228 58.049 6.43847C57.7477 6.71467 57.3295 6.88652 56.856 6.92028C55.4663 6.997 54.0796 7.13816 52.699 7.32843C52.0072 7.41742 51.3215 7.53711 50.6328 7.65065C49.9471 7.77954 49.2615 7.90536 48.5819 8.06187C48.3513 8.11404 48.1392 8.1969 47.9547 8.31659C47.7733 8.43627 47.6196 8.58357 47.4996 8.74622C47.2629 9.07458 47.1676 9.47046 47.269 9.85713C47.3674 10.2438 47.638 10.5507 47.9855 10.7348C48.1607 10.8269 48.3544 10.8882 48.5604 10.9159C48.7664 10.9404 48.9847 10.9374 49.203 10.8913C53.5938 9.92157 58.1105 9.56866 62.5873 9.78348C67.0672 10.0136 71.5317 10.8207 75.8025 12.2324C80.0733 13.6348 84.1566 15.6111 87.8924 18.0969C91.6312 20.5796 95.0442 23.5532 97.9929 26.932C98.288 27.2665 98.6693 27.4721 99.0629 27.5304C99.4564 27.5856 99.85 27.5028 100.161 27.2481C100.471 26.9964 100.634 26.619 100.637 26.217C100.637 25.8149 100.49 25.3792 100.179 25.0263C98.7738 23.4274 97.2795 21.9022 95.696 20.4814C94.1095 19.0605 92.446 17.7256 90.6996 16.5011C88.9532 15.2797 87.1391 14.1504 85.2604 13.1438C83.3787 12.1373 81.4416 11.2381 79.4522 10.4617C79.0095 10.2929 78.6682 9.98909 78.4652 9.63311C78.2592 9.28326 78.1977 8.87511 78.33 8.50072L78.6313 7.65372C78.7635 7.27626 79.0771 7.00314 79.4768 6.86504C79.8765 6.73308 80.3624 6.74535 80.8389 6.92641C82.4778 7.5678 84.0889 8.2859 85.6601 9.07458C86.1152 9.29554 86.5918 9.37226 87.013 9.29554C87.4312 9.21882 87.7909 9.00093 87.9815 8.65108C88.1722 8.29817 88.1599 7.88082 87.9754 7.48801C87.7909 7.09827 87.4435 6.72081 86.9638 6.48758C83.6831 4.84269 80.2486 3.49241 76.7188 2.47971C73.189 1.46393 69.5639 0.773447 65.9173 0.417464C64.094 0.236405 62.2645 0.144341 60.4412 0.135134C58.6179 0.125928 56.7884 0.193443 54.9651 0.346883C53.1418 0.500324 51.3185 0.733553 49.5136 1.05578C47.7057 1.378 45.9131 1.78309 44.142 2.26796C43.6255 2.40299 43.2073 2.70066 42.949 3.0505C42.6908 3.40035 42.5954 3.8085 42.7154 4.18904C42.8353 4.56957 43.1427 4.85497 43.5394 5.01147L43.5363 5.00841Z" fill="white" fill-opacity="0.12"/>
<path d="M92.403 13.0609C94.0941 14.224 95.7237 15.4791 97.2795 16.814C97.6639 17.1424 98.1097 17.3296 98.5371 17.3541C98.9645 17.3787 99.358 17.259 99.6317 16.9644C99.9023 16.6698 99.9945 16.2555 99.9115 15.8351C99.8285 15.4116 99.5794 14.9666 99.1735 14.6198C97.5378 13.2174 95.8282 11.8978 94.048 10.6764C93.6114 10.3695 93.1163 10.2437 92.6828 10.2713C92.2493 10.2989 91.8741 10.4892 91.6589 10.8268C91.4437 11.1643 91.4221 11.5817 91.5574 11.9837C91.6927 12.3857 91.9879 12.7693 92.3999 13.0609H92.403Z" fill="white" fill-opacity="0.12"/>
<path d="M64.0687 105.889C64.3577 106.126 64.7482 106.261 65.1602 106.208C70.5041 105.632 75.7434 104.113 80.5677 101.743C82.9813 100.565 85.2874 99.1687 87.4581 97.5882C89.6289 96.0078 91.6674 94.2463 93.5307 92.316C95.3971 90.3888 97.1036 88.302 98.6102 86.0832C100.117 83.8645 101.433 81.5138 102.54 79.071C103.644 76.6252 104.529 74.0811 105.193 71.4818C105.857 68.8826 106.285 66.225 106.494 63.552C106.521 63.1408 106.383 62.7572 106.137 62.4749C105.891 62.1925 105.531 62.0146 105.132 61.9961C104.729 61.9777 104.366 62.125 104.089 62.3644C103.81 62.6068 103.625 62.9444 103.604 63.3311C103.456 65.203 103.198 67.0628 102.816 68.901C102.715 69.3582 102.623 69.8185 102.506 70.2727C102.451 70.4998 102.395 70.73 102.337 70.9571L102.152 71.6353C102.122 71.7488 102.091 71.8624 102.06 71.9759L101.959 72.3135L101.756 72.9886L101.537 73.6576L101.43 73.9921L101.313 74.3236L101.079 74.9864L100.83 75.6432L100.704 75.9715L100.572 76.2968L100.304 76.9474L100.021 77.5918L99.8801 77.9141L99.7325 78.2332L99.4342 78.8715L99.1206 79.5006L98.9638 79.8167L98.8008 80.1267L98.4718 80.7496L98.1274 81.3634L97.9553 81.6703L97.7769 81.9741L97.4172 82.5787L97.0451 83.1771L96.8576 83.4748L96.6639 83.7694L96.2765 84.3586C96.0551 84.6777 95.7199 84.8741 95.3633 84.9294C95.0035 84.9815 94.6161 84.8925 94.2933 84.6593L93.5646 84.1315C93.2386 83.8952 93.0357 83.5668 92.9558 83.2262C92.8758 82.8825 92.925 82.5265 93.1249 82.238C94.3517 80.4151 95.434 78.4941 96.3472 76.4963C97.2542 74.4985 98.0106 72.4301 98.5702 70.3065C98.6655 69.9658 98.5825 69.6129 98.3796 69.3306C98.1797 69.0452 97.8599 68.8304 97.4695 68.7383C97.079 68.6493 96.6946 68.6984 96.3871 68.8457C96.0797 68.9961 95.8552 69.2416 95.7661 69.5577C94.4716 74.3941 92.1717 78.9667 89.0385 82.9009C85.9115 86.8351 81.9759 90.1371 77.5514 92.5124C77.2593 92.6628 77.0748 92.9482 77.001 93.2796C76.9241 93.608 76.9641 93.9946 77.1424 94.3537C77.3208 94.7127 77.6067 94.9736 77.9326 95.1055C78.2555 95.2344 78.6152 95.2283 78.9288 95.0626C79.7037 94.6391 80.4724 94.2033 81.2195 93.7307L81.5024 93.5558C81.5946 93.4975 81.6869 93.4361 81.7791 93.3747L82.3326 93.0126L82.8768 92.6352L83.1504 92.4449L83.4179 92.2485C83.7039 92.0398 84.0606 91.9846 84.4049 92.0459C84.7493 92.1135 85.0875 92.3099 85.3335 92.6259L85.8839 93.3379C86.1299 93.654 86.2313 94.0345 86.1883 94.3936C86.1483 94.7588 85.9607 95.0933 85.6471 95.3204L85.3612 95.529L85.0721 95.7316L84.4941 96.1336L83.9068 96.5203L83.6117 96.7136L83.3134 96.9008L82.7169 97.2721L82.1112 97.6312L81.8068 97.8092L81.4993 97.981L80.8844 98.3247L80.2602 98.6531L79.9496 98.8188L79.633 98.9753L79.0026 99.2883L78.3631 99.586L78.0433 99.7364L77.7205 99.8776L77.0748 100.16L76.4229 100.427L76.097 100.559L75.768 100.685L75.11 100.933L74.4459 101.166C74.0031 101.329 73.5542 101.464 73.1084 101.611C72.2106 101.885 71.3066 102.145 70.3934 102.36C68.567 102.808 66.7129 103.124 64.8435 103.33C64.4592 103.379 64.124 103.563 63.8903 103.849C63.6567 104.131 63.5244 104.508 63.5552 104.907C63.5859 105.306 63.7766 105.653 64.0656 105.889H64.0687Z" fill="white" fill-opacity="0.12"/>
</svg>
