<svg width="220" height="220" viewBox="0 0 220 220" fill="none" xmlns="http://www.w3.org/2000/svg">
<path d="M187.835 90.0695C188.548 92.8652 189.111 95.6977 189.52 98.5517C189.618 99.2545 190.009 99.8529 190.535 100.264C191.066 100.672 191.764 100.893 192.496 100.813C193.228 100.734 193.855 100.362 194.28 99.8161C194.71 99.2698 194.907 98.5487 194.799 97.7968C194.363 94.7525 193.763 91.7298 193.001 88.75C192.807 88.0165 192.336 87.4304 191.743 87.0836C191.15 86.7368 190.415 86.6386 189.711 86.8442C189 87.0498 188.453 87.5163 188.112 88.1024C187.77 88.6886 187.654 89.3852 187.835 90.0695Z" fill="white" fill-opacity="0.12"/>
<path d="M188.317 60.5906C190.236 63.6195 191.986 66.7527 193.545 69.9811C195.097 73.2126 196.462 76.5361 197.637 79.9241C198.815 83.312 199.771 86.7737 200.536 90.2752C201.296 93.7767 201.868 97.3242 202.209 100.887C202.283 101.703 202.646 102.415 203.171 102.919C203.688 103.422 204.374 103.717 205.109 103.671C205.843 103.621 206.486 103.235 206.932 102.636C207.368 102.038 207.593 101.231 207.516 100.365C207.153 96.5969 206.551 92.8468 205.745 89.1397C204.933 85.4357 203.922 81.7715 202.676 78.1871C201.437 74.6028 199.989 71.0859 198.347 67.6672C196.696 64.2517 194.845 60.9343 192.819 57.7335C192.591 57.3652 192.299 57.0584 191.979 56.819C191.66 56.5796 191.312 56.4047 190.956 56.3034C190.245 56.0978 189.498 56.1899 188.889 56.6042C188.281 57.0185 187.924 57.6691 187.819 58.3902C187.767 58.7493 187.782 59.1267 187.865 59.4981C187.948 59.8694 188.102 60.2346 188.317 60.5844V60.5906Z" fill="white" fill-opacity="0.12"/>
<path d="M207.782 71.847C208.114 72.7155 208.695 73.3967 209.362 73.808C210.02 74.2223 210.776 74.3634 211.471 74.1179C212.166 73.8724 212.664 73.2832 212.904 72.5191C213.135 71.758 213.098 70.822 212.747 69.9075C208.286 58.5437 201.924 47.9502 194.01 38.6946C193.383 37.9458 192.562 37.4855 191.784 37.3321C191 37.1786 190.25 37.3351 189.705 37.8292C189.161 38.3233 188.924 39.0567 188.97 39.8362C189.017 40.6157 189.358 41.4351 189.951 42.147C197.481 50.9545 203.535 61.0386 207.782 71.8501V71.847Z" fill="white" fill-opacity="0.12"/>
<path d="M187.883 74.3727C185.814 69.8554 183.326 65.5345 180.501 61.4499C177.672 57.3684 174.489 53.5262 170.99 50.0002C167.494 46.471 163.694 43.2396 159.645 40.3549C155.589 37.4825 151.284 34.9569 146.792 32.821C146.1 32.5018 145.356 32.4742 144.708 32.7166C144.059 32.9591 143.515 33.447 143.223 34.1222C142.927 34.7973 142.933 35.5246 143.167 36.1506C143.404 36.7767 143.856 37.3291 144.505 37.6267C148.714 39.6276 152.751 41.9937 156.555 44.6911C160.352 47.3948 163.915 50.4267 167.196 53.738C170.48 57.0462 173.462 60.649 176.116 64.4788C178.769 68.3087 181.1 72.3595 183.04 76.5945C183.114 76.7571 183.206 76.9044 183.308 77.0425C183.406 77.1806 183.52 77.3095 183.643 77.4231C183.889 77.6502 184.181 77.8282 184.498 77.9478C185.131 78.1872 185.86 78.1995 186.539 77.9172C187.219 77.6318 187.717 77.0978 187.96 76.4564C188.083 76.1342 188.144 75.7874 188.135 75.4314C188.132 75.2534 188.11 75.0754 188.071 74.8974C188.027 74.7195 187.966 74.5445 187.886 74.3727H187.883Z" fill="white" fill-opacity="0.12"/>
<path d="M33.5197 53.4832C34.1132 53.922 34.8419 54.0386 35.5614 53.9005C36.2778 53.7624 36.9604 53.3512 37.4708 52.7098C39.5401 50.1044 41.7477 47.6095 44.0845 45.2373C44.6533 44.645 44.9793 43.9238 45.0315 43.1996C45.0838 42.4753 44.8686 41.7572 44.3582 41.2263C43.8508 40.6954 43.1436 40.453 42.4026 40.5021C41.6647 40.5512 40.8837 40.8826 40.2811 41.5087C37.8121 44.0159 35.4783 46.655 33.2891 49.4108C32.748 50.089 32.5112 50.9023 32.5512 51.6388C32.5912 52.3753 32.9294 53.0535 33.5197 53.4893V53.4832Z" fill="white" fill-opacity="0.12"/>
<path d="M29.7084 80.6145C28.8967 82.8425 28.1741 85.1042 27.5438 87.3935C26.277 91.9661 25.4315 96.6521 24.9395 101.366C24.7028 103.726 24.5705 106.095 24.5244 108.464C24.4752 110.833 24.5367 113.205 24.6905 115.571C24.8473 117.937 25.0809 120.297 25.4407 122.642C25.7943 124.986 26.2401 127.319 26.7813 129.627C27.3163 131.937 27.9712 134.221 28.7061 136.476C29.444 138.732 30.268 140.957 31.1904 143.142C31.4887 143.838 32.0421 144.348 32.6817 144.602C33.3212 144.857 34.0592 144.848 34.7264 144.541C35.3967 144.231 35.8702 143.691 36.1223 143.062C36.3744 142.433 36.3867 141.727 36.1069 141.073C34.8155 137.983 33.6963 134.822 32.7985 131.597C32.5802 130.79 32.3527 129.983 32.162 129.169C32.0637 128.761 31.9591 128.356 31.8669 127.948L31.5994 126.72L31.4672 126.107L31.3503 125.49L31.1136 124.256L30.9045 123.019C30.8368 122.605 30.763 122.194 30.7077 121.78C30.228 118.468 29.9329 115.126 29.8621 111.775C29.7945 108.427 29.9236 105.073 30.2619 101.74C30.3418 101.034 30.7138 100.427 31.2427 100.028C31.7777 99.6289 32.4818 99.4417 33.2105 99.5399L34.8494 99.7608C35.5811 99.859 36.1992 100.215 36.6235 100.703C37.0539 101.191 37.2845 101.808 37.2077 102.452C37.0386 104.226 36.9094 106.003 36.8602 107.786C36.8203 109.569 36.808 111.355 36.8971 113.138C36.9125 113.788 37.2599 114.359 37.7673 114.749C38.2746 115.139 38.9572 115.344 39.689 115.292C40.4238 115.237 41.0726 114.936 41.5277 114.506C41.9858 114.077 42.2379 113.518 42.2226 112.914C41.9151 105.524 42.776 98.1221 44.8361 91.07C45.3403 89.3023 45.9368 87.5623 46.5917 85.8469C47.2497 84.1314 47.9662 82.4374 48.7656 80.7803C50.3644 77.469 52.2093 74.2713 54.3308 71.2577C55.3885 69.7479 56.5016 68.281 57.6731 66.8571C58.8507 65.4393 60.0867 64.0675 61.372 62.7449C63.9394 60.0965 66.7374 57.6721 69.6983 55.4748C71.1773 54.3731 72.7085 53.3451 74.2735 52.3723C75.8386 51.4025 77.4405 50.488 79.0793 49.6472C80.7212 48.8094 82.3908 48.0391 84.0911 47.3333C84.5185 47.1614 84.9398 46.9804 85.3702 46.8177L86.6616 46.3267C87.5287 46.0198 88.3958 45.7099 89.2721 45.4337C89.8409 45.2404 90.2775 44.8077 90.5235 44.2338C90.7695 43.6599 90.8248 42.948 90.6249 42.2391C90.422 41.5332 89.9946 40.9655 89.4535 40.6249C88.9123 40.2842 88.2574 40.1584 87.6425 40.3671C79.2331 43.0492 71.331 47.3087 64.419 52.8142C57.4978 58.3135 51.5974 65.0833 47.0776 72.6632C46.7455 73.2218 46.1859 73.5747 45.5617 73.7189C44.9314 73.857 44.215 73.7711 43.5724 73.4182L42.1242 72.6203C41.4785 72.2643 41.0326 71.6996 40.8389 71.0583C40.6391 70.4169 40.7098 69.7111 41.0757 69.1004C46.518 59.9614 53.802 51.912 62.3713 45.5933C62.9493 45.1759 63.2875 44.5499 63.3982 43.8901C63.5058 43.2303 63.3705 42.5122 62.9524 41.9107C62.5342 41.3061 61.907 40.9317 61.2244 40.8182C60.5387 40.7047 59.8131 40.8765 59.1981 41.3215C51.5636 46.9681 44.8699 53.8791 39.4953 61.7015C36.808 65.6111 34.4343 69.7387 32.4388 74.0442C31.4395 76.1955 30.5263 78.3866 29.7023 80.6115L29.7084 80.6145Z" fill="white" fill-opacity="0.12"/>
<path d="M204.97 118.165C204.235 118.103 203.543 118.386 203.015 118.88C202.492 119.374 202.108 120.08 202.015 120.893C201.628 124.195 201.059 127.482 200.318 130.728C200.13 131.526 200.238 132.318 200.579 132.962C200.921 133.607 201.465 134.104 202.181 134.291C202.888 134.478 203.636 134.319 204.235 133.886C204.835 133.456 205.318 132.763 205.517 131.916C206.305 128.482 206.904 125.008 207.313 121.513C207.411 120.65 207.208 119.837 206.772 119.233C206.341 118.625 205.708 118.226 204.973 118.165H204.97Z" fill="white" fill-opacity="0.12"/>
<path d="M35.7127 184.107C35.5252 183.724 35.27 183.355 34.944 183.024C33.5235 181.578 32.1614 180.078 30.8239 178.556L29.84 177.399C29.5141 177.012 29.182 176.628 28.8653 176.233C28.2288 175.444 27.5862 174.661 26.9744 173.851C24.5023 170.641 22.1962 167.296 20.1116 163.813C18.0238 160.336 16.1329 156.736 14.4541 153.039C12.7875 149.338 11.3301 145.538 10.0972 141.669C9.94957 141.227 9.75279 140.825 9.50681 140.475C9.26083 140.128 8.97181 139.833 8.65203 139.606C8.01249 139.152 7.26533 138.962 6.55814 139.161C5.84788 139.361 5.31288 139.916 5.03308 140.662C4.89164 141.033 4.81477 141.454 4.80555 141.899C4.79632 142.344 4.86089 142.813 5.01463 143.277C6.30909 147.346 7.84031 151.338 9.59598 155.23C11.3578 159.115 13.3471 162.899 15.5394 166.554C17.7286 170.212 20.1515 173.725 22.7497 177.101C23.3923 177.951 24.0687 178.774 24.7359 179.602C25.068 180.019 25.4155 180.422 25.7598 180.83L26.7929 182.045C28.1981 183.644 29.6309 185.221 31.1222 186.74C31.4635 187.09 31.8416 187.369 32.2352 187.575C32.6288 187.777 33.0408 187.903 33.4374 187.952C34.2307 188.054 34.9717 187.845 35.4821 187.314C35.9925 186.783 36.1801 186.037 36.0786 185.267C36.0294 184.88 35.9034 184.491 35.7127 184.11V184.107Z" fill="white" fill-opacity="0.12"/>
<path d="M108.12 202.364C104.793 202.293 101.467 202.054 98.1613 201.624C97.3465 201.51 96.5717 201.704 95.9598 202.103C95.351 202.496 94.9082 203.094 94.7914 203.818C94.6746 204.542 94.9082 205.257 95.394 205.822C95.8799 206.378 96.6209 206.783 97.4818 206.899C100.978 207.353 104.495 207.608 108.01 207.682C108.877 207.691 109.667 207.409 110.227 206.927C110.789 206.439 111.127 205.77 111.118 205.033C111.109 204.3 110.765 203.637 110.22 203.161C109.676 202.68 108.938 202.37 108.12 202.36V202.364Z" fill="white" fill-opacity="0.12"/>
<path d="M68.5347 198.485C74.1492 201.118 80.0219 203.21 86.0391 204.73C86.8847 204.935 87.721 204.837 88.379 204.49C89.0401 204.14 89.5197 203.566 89.6765 202.848C89.8334 202.13 89.6427 201.409 89.2184 200.823C88.7941 200.234 88.1453 199.764 87.3459 199.571C86.8078 199.445 86.279 199.289 85.744 199.15C85.212 199.006 84.677 198.865 84.1512 198.702L82.5647 198.23L80.9904 197.72C80.7936 197.656 80.6092 197.576 80.437 197.484C80.2648 197.386 80.1049 197.275 79.9604 197.153C79.6683 196.907 79.4315 196.619 79.2624 196.303C78.9211 195.67 78.8412 194.94 79.0964 194.246L79.6683 192.697C79.9204 192.009 80.4493 191.491 81.0857 191.202C81.4024 191.058 81.7499 190.975 82.1035 190.957C82.2818 190.948 82.4601 190.957 82.6416 190.981C82.823 191.003 83.0044 191.043 83.1858 191.101C91.2693 193.774 99.7586 195.213 108.266 195.391C109.026 195.4 109.718 195.115 110.21 194.633C110.702 194.145 110.997 193.476 110.987 192.743C110.978 192.009 110.677 191.346 110.203 190.871C109.73 190.389 109.09 190.079 108.377 190.07C103.242 189.959 98.1198 189.367 93.1018 188.287C88.0838 187.21 83.1704 185.645 78.4569 183.622C69.0205 179.584 60.3805 173.704 53.1488 166.425C52.6537 165.915 51.9834 165.667 51.3101 165.654C50.6398 165.642 49.951 165.878 49.4099 166.379C48.8718 166.879 48.5889 167.551 48.5736 168.244C48.5613 168.935 48.8318 169.629 49.3638 170.175C51.7252 172.553 54.2341 174.781 56.8569 176.871C57.0045 176.991 57.1367 177.123 57.2566 177.261C57.3765 177.399 57.481 177.543 57.5702 177.696C57.7485 178.003 57.8654 178.338 57.9207 178.681C58.0253 179.372 57.8808 180.093 57.4442 180.682L56.4572 182.008C56.0175 182.6 55.3564 182.938 54.6431 182.996C54.2864 183.027 53.9144 182.987 53.5485 182.877C53.3671 182.821 53.1856 182.751 53.0104 182.659C52.8351 182.567 52.6691 182.456 52.5092 182.327C50.6951 180.9 48.9517 179.384 47.2545 177.825C46.8333 177.429 46.4059 177.046 45.9939 176.641L44.7547 175.435C43.9461 174.612 43.1313 173.796 42.3503 172.946C35.9641 166.102 30.6079 158.292 26.5616 149.844C26.2141 149.101 25.6268 148.555 24.9596 148.26C24.3016 147.963 23.5545 147.917 22.8811 148.214C22.2077 148.509 21.7342 149.092 21.5221 149.807C21.3161 150.519 21.3806 151.357 21.7496 152.142C26.0296 161.082 31.6933 169.34 38.4454 176.576C42.7346 181.17 47.4636 185.356 52.5523 189.051C57.561 192.691 62.9202 195.855 68.5378 198.485H68.5347Z" fill="white" fill-opacity="0.12"/>
<path d="M6.11038 128.847C6.4732 128.157 6.63616 127.276 6.48242 126.361C5.89208 122.636 5.50773 118.883 5.3294 115.126C5.2925 114.2 4.96351 113.374 4.45925 112.776C3.96422 112.177 3.297 111.806 2.55907 111.818C1.82421 111.831 1.16007 112.226 0.689632 112.874C0.228423 113.518 -0.0360039 114.411 0.00396759 115.384C0.191526 119.331 0.597391 123.274 1.21541 127.19C1.3753 128.154 1.81191 128.979 2.39918 129.519C2.99261 130.059 3.72132 130.317 4.44388 130.179C5.16644 130.041 5.74756 129.538 6.11038 128.85V128.847Z" fill="white" fill-opacity="0.12"/>
<path d="M195.472 157.823L196.163 156.583L196.828 155.328C197.049 154.907 197.273 154.493 197.479 154.067C199.189 150.688 200.705 147.208 202.018 143.654C202.31 142.835 202.288 141.994 202.018 141.306C201.747 140.616 201.212 140.079 200.517 139.849C199.816 139.619 199.084 139.735 198.451 140.091C197.815 140.447 197.289 141.049 197.012 141.822C195.77 145.182 194.337 148.469 192.72 151.667C192.523 152.069 192.311 152.462 192.102 152.857L191.475 154.045L190.82 155.217C190.601 155.607 190.386 156 190.152 156.384C189.694 157.154 189.248 157.927 188.766 158.682L188.052 159.821L187.314 160.941C186.829 161.693 186.309 162.42 185.799 163.156C185.546 163.528 185.276 163.884 185.015 164.246L184.221 165.329C183.139 166.753 182.035 168.165 180.873 169.524C178.561 172.255 176.101 174.864 173.487 177.31C172.885 177.865 172.55 178.599 172.46 179.311C172.377 180.029 172.565 180.753 173.051 181.302C173.537 181.855 174.238 182.125 174.982 182.106C175.732 182.097 176.504 181.772 177.14 181.183C179.904 178.599 182.506 175.843 184.95 172.952C186.177 171.513 187.345 170.021 188.489 168.515L189.328 167.37C189.605 166.986 189.891 166.609 190.159 166.219C190.697 165.44 191.247 164.669 191.76 163.874L192.541 162.69L193.295 161.487C193.805 160.689 194.279 159.87 194.761 159.056C195.007 158.651 195.232 158.237 195.466 157.823H195.472Z" fill="white" fill-opacity="0.12"/>
<path d="M57.735 200.964C57.4552 200.642 57.1109 200.353 56.7081 200.117C53.4581 198.196 50.3127 196.103 47.2902 193.847C46.5523 193.286 45.7036 193.01 44.9165 193.013C44.1386 193.013 43.4222 193.289 42.964 193.863C42.5059 194.437 42.3891 195.201 42.592 195.974C42.798 196.741 43.3176 197.515 44.0955 198.107C47.2717 200.476 50.5771 202.676 53.9931 204.696C54.4143 204.944 54.854 205.116 55.2876 205.214C55.7242 205.306 56.1516 205.322 56.5482 205.266C57.3415 205.156 58.0025 204.763 58.3561 204.119C58.7097 203.474 58.6944 202.704 58.3961 201.986C58.2455 201.627 58.0241 201.28 57.7381 200.964H57.735Z" fill="white" fill-opacity="0.12"/>
<path d="M2.80789 102.403C3.54582 102.455 4.22534 102.118 4.76034 101.547C5.29534 100.973 5.66431 100.166 5.75348 99.2423C6.02713 96.6368 6.3961 94.0376 6.84808 91.4536C7.02027 90.5391 7.47533 89.7658 8.0626 89.2686C8.65602 88.7715 9.39089 88.5475 10.1104 88.7009L11.7277 89.0446C12.4502 89.198 13.0191 89.686 13.3788 90.3427C13.7416 91.0025 13.8861 91.828 13.7263 92.6811C12.5148 99.4417 12.029 106.316 12.2473 113.15C12.4656 119.994 13.4034 126.834 15.0545 133.502C15.2544 134.349 15.7556 135.034 16.3674 135.451C16.9824 135.872 17.7142 136.022 18.4214 135.822C19.1286 135.623 19.682 135.114 20.0049 134.466C20.3277 133.815 20.4169 133.027 20.2293 132.226C18.8426 126.619 17.9755 120.887 17.6681 115.129C17.3575 109.375 17.5697 103.6 18.3168 97.8766C19.8081 86.43 23.5131 75.2626 29.1337 65.1785C29.3336 64.8194 29.4596 64.4419 29.5181 64.0645C29.5734 63.687 29.5734 63.3157 29.5027 62.9597C29.3613 62.2508 28.9646 61.6156 28.3312 61.2381C27.7009 60.8606 26.9507 60.8146 26.2496 61.057C25.8991 61.1798 25.5547 61.3701 25.2534 61.6309C24.9521 61.8918 24.6846 62.2171 24.4724 62.5945L24.0328 63.3801L23.6084 64.175C23.3286 64.7089 23.0427 65.2337 22.7721 65.7738C22.3847 66.5502 21.7636 67.121 21.081 67.4279C20.4015 67.7378 19.6451 67.7808 18.981 67.4709L17.4836 66.7712C16.8164 66.4612 16.3705 65.8444 16.1922 65.0864C16.02 64.3345 16.1307 63.4476 16.5458 62.6129C19.3376 57.1382 22.6122 51.912 26.3081 47.0111C30.0008 42.1071 34.1425 37.5469 38.6377 33.3641C43.136 29.1874 47.991 25.3913 53.1597 22.0617C58.3252 18.7289 63.7859 15.8442 69.4619 13.4567C70.3228 13.1038 70.9931 12.5085 71.3867 11.8302C71.7833 11.1612 71.9063 10.4032 71.6449 9.7189C71.3836 9.03149 70.7779 8.54968 70.0061 8.32873C69.2374 8.11698 68.3027 8.17836 67.3957 8.54968C58.3221 12.3642 49.7775 17.3879 42.0537 23.4365C34.3362 29.4943 27.4334 36.5679 21.573 44.4333C15.7125 52.2987 10.916 60.965 7.34004 70.1223C3.76105 79.2796 1.45501 88.9341 0.446495 98.6837C0.354253 99.6565 0.575634 100.562 0.999947 101.234C1.42426 101.906 2.07303 102.339 2.80481 102.391L2.80789 102.403Z" fill="white" fill-opacity="0.12"/>
<path d="M219.366 115.851C218.92 115.191 218.262 114.777 217.53 114.743C216.792 114.712 216.119 115.065 215.602 115.651C215.083 116.237 214.732 117.057 214.671 117.98C213.945 127.405 211.956 136.771 208.712 145.679C205.471 154.591 201.009 163.049 195.509 170.752C194.961 171.503 194.706 172.357 194.728 173.139C194.743 173.916 195.038 174.621 195.623 175.069C196.207 175.514 196.975 175.613 197.747 175.395C198.51 175.174 199.275 174.634 199.847 173.842C205.628 165.749 210.317 156.862 213.723 147.493C217.133 138.127 219.224 128.279 219.987 118.379C220.051 117.406 219.808 116.504 219.366 115.848V115.851Z" fill="white" fill-opacity="0.12"/>
<path d="M187.585 181.689C186.81 181.809 186.029 182.223 185.374 182.883C178.6 189.852 170.858 195.885 162.418 200.74C161.609 201.2 160.724 201.348 159.964 201.222C159.202 201.093 158.556 200.673 158.212 200.025L157.431 198.567C157.083 197.917 157.089 197.168 157.36 196.468C157.631 195.766 158.172 195.127 158.928 194.698C161.028 193.485 163.079 192.197 165.087 190.843C165.8 190.349 166.28 189.659 166.458 188.941C166.636 188.216 166.523 187.477 166.089 186.881C165.656 186.289 164.988 185.952 164.269 185.878C163.546 185.801 162.762 185.976 162.089 186.443C159.128 188.459 156.041 190.288 152.862 191.948C149.686 193.611 146.405 195.075 143.053 196.349C136.35 198.908 129.34 200.657 122.231 201.593C121.416 201.704 120.712 202.072 120.227 202.615C119.741 203.158 119.467 203.849 119.538 204.579C119.609 205.313 120.017 205.945 120.632 206.356C121.244 206.767 122.065 206.985 122.926 206.869L124.808 206.605C125.435 206.509 126.059 206.402 126.683 206.301C127.541 206.166 128.365 206.298 129.023 206.666C129.678 207.031 130.167 207.614 130.315 208.332L130.647 209.95C130.794 210.671 130.564 211.392 130.06 211.978C129.555 212.561 128.78 213.028 127.861 213.172L126.062 213.47L124.257 213.724L123.354 213.847L122.45 213.951C121.847 214.019 121.244 214.093 120.639 214.154C119.43 214.261 118.222 214.381 117.01 214.449C116.405 214.485 115.799 214.531 115.193 214.556L113.376 214.627C112.77 214.654 112.165 214.654 111.559 214.663C110.953 214.669 110.347 214.685 109.745 214.676C108.533 214.66 107.325 214.654 106.114 214.599C103.691 214.519 101.271 214.332 98.8541 214.08C89.1902 213.064 79.6462 210.662 70.6311 207.004C70.2007 206.829 69.761 206.727 69.3336 206.7C68.9062 206.669 68.4973 206.7 68.1191 206.798C67.3627 206.994 66.7416 207.449 66.4403 208.118C66.142 208.79 66.2281 209.554 66.6186 210.25C66.8154 210.597 67.086 210.932 67.4242 211.22C67.7624 211.506 68.1683 211.751 68.6203 211.935C78.73 216.041 89.4762 218.619 100.318 219.567C101.674 219.699 103.03 219.77 104.386 219.856L106.421 219.936C107.101 219.966 107.777 219.975 108.456 219.982C111.168 220.031 113.88 219.96 116.592 219.807C122.019 219.494 127.437 218.772 132.778 217.658C143.462 215.431 153.815 211.585 163.353 206.316C172.897 201.053 181.629 194.378 189.202 186.584C189.891 185.89 190.272 185.034 190.352 184.242C190.432 183.45 190.201 182.717 189.657 182.223C189.113 181.729 188.359 181.563 187.588 181.683L187.585 181.689Z" fill="white" fill-opacity="0.12"/>
<path d="M40.7544 160.066C41.2003 160.68 41.846 161.057 42.5347 161.155C43.2204 161.257 43.9306 161.085 44.5117 160.637C45.0929 160.186 45.4403 159.544 45.5387 158.881C45.6309 158.219 45.4926 157.522 45.0744 156.948C43.3802 154.613 41.7998 152.191 40.3732 149.684C40.0257 149.064 39.4477 148.65 38.7989 148.466C38.1563 148.279 37.4276 148.331 36.7757 148.672C36.1239 149.015 35.675 149.592 35.4813 150.258C35.2937 150.918 35.3706 151.664 35.7426 152.326C37.2677 154.999 38.9496 157.583 40.7575 160.072L40.7544 160.066Z" fill="white" fill-opacity="0.12"/>
<path d="M63.2315 24.1945C58.4719 26.7907 53.9366 29.7828 49.6689 33.1155C48.9894 33.6587 48.5651 34.3829 48.4329 35.1103C48.3037 35.8406 48.4698 36.5771 48.9433 37.1387C49.4168 37.7034 50.1025 37.9888 50.8281 38.0164C51.5568 38.0471 52.3224 37.8139 52.962 37.3014C56.996 34.1497 61.2852 31.3203 65.7866 28.8652C68.0373 27.6408 70.3403 26.5114 72.6863 25.4742C75.0293 24.4369 77.4184 23.4948 79.8443 22.6632C80.038 22.5956 80.2225 22.5097 80.3947 22.4146C80.5669 22.3195 80.7298 22.212 80.8774 22.0954C81.1757 21.8561 81.4216 21.5737 81.6061 21.2607C81.9751 20.6347 82.1042 19.8951 81.8859 19.1954C81.6676 18.4896 81.1418 17.9617 80.4562 17.6763C80.1149 17.5352 79.7305 17.4523 79.3308 17.44C79.131 17.4339 78.925 17.4462 78.719 17.4769C78.513 17.5106 78.3069 17.5628 78.1009 17.6364C75.5335 18.5141 73.0061 19.5115 70.5279 20.6101C68.0466 21.7057 65.6114 22.9025 63.2315 24.1976V24.1945Z" fill="white" fill-opacity="0.12"/>
<path d="M79.7542 8.96091C80.4829 9.24938 81.3715 9.28621 82.2724 9.04991C89.3135 7.11963 96.5545 5.93507 103.817 5.50543C104.746 5.44099 105.6 5.71411 106.221 6.17136C106.843 6.62862 107.23 7.28227 107.251 8.01572L107.298 9.66674C107.316 10.4002 106.978 11.0784 106.421 11.5817C105.865 12.088 105.096 12.4041 104.232 12.4655C101.68 12.6067 99.1311 12.8675 96.5945 13.2174C95.3246 13.3831 94.064 13.601 92.8002 13.8096C91.5427 14.049 90.282 14.2792 89.0337 14.5646C88.6094 14.6597 88.2189 14.8162 87.8838 15.0341C87.5486 15.255 87.2657 15.522 87.0474 15.8228C86.6108 16.4243 86.4386 17.1516 86.62 17.8635C86.8015 18.5755 87.2965 19.1402 87.9391 19.4777C88.2589 19.6465 88.6186 19.7601 88.9968 19.8092C89.375 19.8583 89.7747 19.8521 90.1775 19.7631C98.2456 17.9832 106.541 17.3326 114.766 17.7254C123 18.1489 131.204 19.6342 139.047 22.2243C146.894 24.8021 154.393 28.4325 161.262 32.9989C168.134 37.5622 174.401 43.0247 179.821 49.2329C180.365 49.8467 181.063 50.2272 181.786 50.3315C182.509 50.4359 183.234 50.2794 183.806 49.816C184.375 49.3526 184.679 48.659 184.682 47.9225C184.685 47.186 184.415 46.3851 183.837 45.7345C181.254 42.7976 178.511 39.9958 175.597 37.3842C172.682 34.7757 169.625 32.3207 166.418 30.0743C163.212 27.828 159.879 25.7565 156.423 23.906C152.967 22.0586 149.403 20.4014 145.75 18.9775C144.938 18.6676 144.308 18.109 143.933 17.4585C143.558 16.814 143.441 16.0683 143.684 15.3747L144.237 13.8188C144.483 13.1253 145.055 12.622 145.793 12.3734C146.528 12.131 147.423 12.1525 148.293 12.487C151.306 13.6654 154.264 14.9819 157.154 16.4335C157.991 16.8416 158.867 16.9797 159.639 16.8386C160.407 16.7005 161.068 16.2954 161.419 15.6509C161.773 15.0034 161.745 14.2393 161.41 13.515C161.072 12.7969 160.429 12.1064 159.55 11.6768C153.523 8.65403 147.214 6.17443 140.726 4.31167C134.238 2.44276 127.579 1.17841 120.879 0.521684C117.524 0.190252 114.167 0.0214676 110.812 -1.40443e-05C107.461 -0.0184269 104.103 0.110463 100.748 0.389725C97.397 0.672055 94.0517 1.10169 90.731 1.6909C87.4102 2.28318 84.1141 3.02583 80.8611 3.91886C79.911 4.16743 79.1454 4.71675 78.6719 5.35813C78.1984 6.00258 78.0231 6.7483 78.2414 7.45106C78.4597 8.15382 79.0255 8.67858 79.7542 8.96398V8.96091Z" fill="white" fill-opacity="0.12"/>
<path d="M169.542 23.7556C172.65 25.8946 175.642 28.1962 178.501 30.6512C179.205 31.2558 180.026 31.5964 180.81 31.6455C181.594 31.6916 182.32 31.4706 182.821 30.9274C183.316 30.3904 183.492 29.6263 183.335 28.8499C183.181 28.0734 182.723 27.2541 181.982 26.6188C178.978 24.041 175.832 21.6197 172.567 19.3734C171.768 18.8118 170.854 18.5785 170.061 18.6307C169.265 18.6829 168.579 19.0297 168.179 19.6496C167.783 20.2695 167.743 21.0367 167.992 21.7762C168.241 22.5158 168.782 23.2217 169.542 23.7556Z" fill="white" fill-opacity="0.12"/>
<path d="M117.475 194.314C118.007 194.747 118.723 194.995 119.479 194.903C129.294 193.841 138.927 191.055 147.788 186.7C152.225 184.534 156.459 181.968 160.45 179.065C164.438 176.165 168.183 172.924 171.608 169.377C175.037 165.832 178.17 162.003 180.943 157.927C183.713 153.849 186.133 149.534 188.166 145.041C190.192 140.545 191.822 135.875 193.042 131.1C194.26 126.321 195.044 121.439 195.431 116.529C195.48 115.771 195.225 115.065 194.773 114.549C194.321 114.031 193.657 113.703 192.925 113.672C192.187 113.641 191.517 113.908 191.01 114.35C190.499 114.795 190.158 115.418 190.115 116.127C189.845 119.564 189.371 122.986 188.67 126.358C188.482 127.199 188.313 128.043 188.098 128.878C187.994 129.295 187.895 129.716 187.788 130.133L187.449 131.379C187.391 131.588 187.339 131.796 187.277 132.002L187.093 132.622L186.724 133.862L186.324 135.092L186.124 135.706L185.909 136.317L185.478 137.535L185.017 138.744L184.787 139.349L184.541 139.947L184.052 141.144L183.532 142.328L183.274 142.921L183 143.507L182.453 144.679L181.878 145.836L181.589 146.416L181.288 146.987L180.685 148.132L180.055 149.261L179.738 149.825L179.409 150.381L178.751 151.495L178.065 152.59L177.724 153.14L177.367 153.68L176.654 154.76C176.248 155.346 175.633 155.705 174.978 155.807C174.317 155.905 173.607 155.739 173.01 155.309L171.67 154.343C171.073 153.91 170.695 153.306 170.551 152.676C170.403 152.044 170.492 151.394 170.861 150.86C173.115 147.509 175.107 143.982 176.783 140.312C178.45 136.639 179.839 132.84 180.869 128.942C181.048 128.316 180.891 127.672 180.522 127.15C180.153 126.628 179.566 126.229 178.849 126.064C178.133 125.898 177.423 125.99 176.86 126.263C176.294 126.536 175.885 126.994 175.719 127.57C173.339 136.458 169.112 144.857 163.359 152.084C157.612 159.314 150.387 165.381 142.254 169.742C141.719 170.021 141.381 170.543 141.242 171.154C141.104 171.758 141.175 172.467 141.504 173.124C141.833 173.781 142.358 174.262 142.955 174.505C143.548 174.744 144.206 174.729 144.784 174.428C146.208 173.652 147.622 172.851 148.991 171.979L149.507 171.657C149.679 171.55 149.845 171.436 150.018 171.323L151.035 170.654L152.038 169.96L152.539 169.613L153.031 169.254C153.557 168.874 154.211 168.766 154.842 168.883C155.475 169.006 156.099 169.365 156.551 169.948L157.566 171.252C158.018 171.832 158.202 172.529 158.126 173.194C158.055 173.863 157.711 174.48 157.132 174.901L156.61 175.281L156.078 175.65L155.014 176.386L153.932 177.098L153.391 177.454L152.843 177.798L151.746 178.482L150.632 179.142L150.076 179.47L149.51 179.786L148.379 180.418L147.235 181.023L146.663 181.324L146.085 181.612L144.926 182.186L143.754 182.732L143.167 183.005L142.574 183.266L141.387 183.785L140.188 184.276L139.588 184.521L138.982 184.752L137.771 185.212L136.55 185.642C135.738 185.936 134.911 186.188 134.094 186.458C132.442 186.961 130.782 187.44 129.103 187.836C125.749 188.658 122.339 189.241 118.907 189.619C118.2 189.708 117.585 190.045 117.158 190.57C116.731 191.092 116.488 191.782 116.543 192.513C116.598 193.246 116.949 193.881 117.484 194.317L117.475 194.314Z" fill="white" fill-opacity="0.12"/>
</svg>
