<svg width="18" height="14" viewBox="0 0 18 14" fill="none" xmlns="http://www.w3.org/2000/svg">
<path d="M3.85685 0.520217C3.80807 0.465222 3.74885 0.420457 3.68263 0.388516C3.61642 0.356576 3.54452 0.338095 3.47111 0.334146C3.3977 0.330196 3.32423 0.340857 3.25497 0.365509C3.18571 0.390161 3.12203 0.428315 3.06762 0.477758C3.01322 0.527202 2.96917 0.586953 2.93802 0.653547C2.90688 0.720142 2.88926 0.792255 2.88619 0.865708C2.88312 0.939161 2.89466 1.01249 2.92014 1.08145C2.94562 1.15041 2.98454 1.21363 3.03463 1.26744L4.37074 2.73758C1.84852 4.2855 0.763796 6.67161 0.715879 6.77994C0.684291 6.85099 0.667969 6.92788 0.667969 7.00564C0.667969 7.08339 0.684291 7.16028 0.715879 7.23133C0.740184 7.28619 1.32838 8.59036 2.63602 9.898C4.37838 11.6397 6.57908 12.5605 9.0013 12.5605C10.2462 12.5676 11.4785 12.3113 12.6173 11.8084L14.1451 13.4897C14.1938 13.5447 14.2531 13.5894 14.3193 13.6214C14.3855 13.6533 14.4574 13.6718 14.5308 13.6757C14.6042 13.6797 14.6777 13.669 14.7469 13.6444C14.8162 13.6197 14.8799 13.5816 14.9343 13.5321C14.9887 13.4827 15.0327 13.4229 15.0639 13.3563C15.095 13.2897 15.1126 13.2176 15.1157 13.1442C15.1188 13.0707 15.1072 12.9974 15.0818 12.9284C15.0563 12.8595 15.0174 12.7963 14.9673 12.7424L3.85685 0.520217ZM7.14366 5.78689L10.0374 8.97092C9.60165 9.20017 9.10208 9.2782 8.61716 9.19275C8.13224 9.10731 7.68943 8.86323 7.35826 8.49884C7.02709 8.13445 6.82632 7.6704 6.78748 7.17954C6.74864 6.68868 6.87393 6.19882 7.14366 5.78689ZM9.0013 11.4494C6.8638 11.4494 4.99644 10.6723 3.4506 9.14036C2.8161 8.50979 2.27645 7.79049 1.84852 7.00494C2.17421 6.39453 3.2138 4.68619 5.13672 3.57578L6.38672 4.9473C5.90278 5.5671 5.65355 6.33802 5.68306 7.12381C5.71257 7.9096 6.01893 8.65966 6.54799 9.24141C7.07705 9.82316 7.79474 10.1991 8.57421 10.3029C9.35368 10.4067 10.1447 10.2315 10.8076 9.80842L11.8305 10.9334C10.9277 11.2798 9.96823 11.4548 9.0013 11.4494ZM9.41797 4.8223C9.2732 4.79468 9.14535 4.71068 9.06252 4.58878C8.97969 4.46688 8.94868 4.31707 8.9763 4.1723C9.00393 4.02754 9.08793 3.89968 9.20983 3.81685C9.33173 3.73402 9.48154 3.70301 9.6263 3.73064C10.3344 3.86791 10.9791 4.23039 11.4643 4.76403C11.9495 5.29767 12.2492 5.97386 12.3187 6.69175C12.3324 6.83845 12.2873 6.98459 12.1932 7.09802C12.0992 7.21145 11.964 7.28289 11.8173 7.29661C11.7999 7.29763 11.7825 7.29763 11.7652 7.29661C11.6263 7.29721 11.4923 7.24578 11.3895 7.15246C11.2866 7.05915 11.2225 6.93071 11.2096 6.79244C11.1629 6.31494 10.9633 5.86528 10.6404 5.51032C10.3176 5.15536 9.8889 4.91406 9.41797 4.8223ZM17.2846 7.23133C17.2555 7.29661 16.552 8.85425 14.968 10.273C14.9138 10.323 14.8503 10.3618 14.7811 10.387C14.7118 10.4122 14.6382 10.4234 14.5646 10.4199C14.491 10.4165 14.4188 10.3984 14.3523 10.3667C14.2857 10.335 14.2261 10.2905 14.177 10.2355C14.1278 10.1806 14.0901 10.1165 14.066 10.0468C14.0418 9.9772 14.0318 9.90345 14.0365 9.8299C14.0411 9.75635 14.0604 9.68446 14.0931 9.61842C14.1258 9.55237 14.1713 9.4935 14.227 9.44522C15.0041 8.74704 15.6569 7.92187 16.1576 7.00494C15.7287 6.21868 15.1878 5.49889 14.552 4.86814C13.0062 3.33758 11.1388 2.5605 9.0013 2.5605C8.55092 2.55995 8.10126 2.59641 7.65686 2.66952C7.58459 2.68231 7.5105 2.68064 7.43888 2.66463C7.36726 2.64861 7.29952 2.61856 7.23958 2.57622C7.17964 2.53388 7.12868 2.48008 7.08964 2.41793C7.05061 2.35578 7.02428 2.28651 7.01217 2.21413C7.00006 2.14174 7.00241 2.06768 7.01909 1.99621C7.03577 1.92474 7.06644 1.85728 7.10934 1.79773C7.15223 1.73819 7.2065 1.68773 7.26901 1.64927C7.33152 1.61082 7.40103 1.58513 7.47352 1.57369C7.9785 1.49031 8.48949 1.44874 9.0013 1.44938C11.4235 1.44938 13.6242 2.37022 15.3666 4.11258C16.6742 5.42022 17.2624 6.72508 17.2867 6.77994C17.3183 6.85099 17.3346 6.92788 17.3346 7.00564C17.3346 7.08339 17.3183 7.16028 17.2867 7.23133H17.2846Z" fill="#909090"/>
</svg>
