<svg width="19" height="19" viewBox="0 0 19 19" fill="none" xmlns="http://www.w3.org/2000/svg">
<path d="M18.75 9.25004V18.25C18.75 18.449 18.671 18.6397 18.5303 18.7804C18.3897 18.921 18.1989 19 18 19H12.75C12.5511 19 12.3603 18.921 12.2197 18.7804C12.079 18.6397 12 18.449 12 18.25V13.375C12 13.2756 11.9605 13.1802 11.8902 13.1099C11.8198 13.0395 11.7245 13 11.625 13H7.875C7.77554 13 7.68016 13.0395 7.60983 13.1099C7.53951 13.1802 7.5 13.2756 7.5 13.375V18.25C7.5 18.449 7.42098 18.6397 7.28033 18.7804C7.13968 18.921 6.94891 19 6.75 19H1.5C1.30109 19 1.11032 18.921 0.96967 18.7804C0.829018 18.6397 0.75 18.449 0.75 18.25V9.25004C0.750184 8.85228 0.90834 8.47089 1.18969 8.18973L8.68969 0.689725C8.97096 0.408633 9.35235 0.250732 9.75 0.250732C10.1477 0.250732 10.529 0.408633 10.8103 0.689725L18.3103 8.18973C18.5917 8.47089 18.7498 8.85228 18.75 9.25004Z" fill="currentColor"/>
</svg>
