<svg width="19" height="19" viewBox="0 0 19 19" fill="none" xmlns="http://www.w3.org/2000/svg">
<path d="M18.3103 8.18875L10.8103 0.688748C10.529 0.407656 10.1477 0.249756 9.75001 0.249756C9.35236 0.249756 8.97097 0.407656 8.6897 0.688748L1.1897 8.18875C1.04973 8.32767 0.938783 8.49304 0.8633 8.67523C0.787817 8.85742 0.749308 9.05279 0.750009 9.25V18.25C0.750009 18.4489 0.829027 18.6397 0.969679 18.7803C1.11033 18.921 1.3011 19 1.50001 19H7.50001C7.69892 19 7.88969 18.921 8.03034 18.7803C8.17099 18.6397 8.25001 18.4489 8.25001 18.25V13H11.25V18.25C11.25 18.4489 11.329 18.6397 11.4697 18.7803C11.6103 18.921 11.8011 19 12 19H18C18.1989 19 18.3897 18.921 18.5303 18.7803C18.671 18.6397 18.75 18.4489 18.75 18.25V9.25C18.7507 9.05279 18.7122 8.85742 18.6367 8.67523C18.5612 8.49304 18.4503 8.32767 18.3103 8.18875ZM17.25 17.5H12.75V12.25C12.75 12.0511 12.671 11.8603 12.5303 11.7197C12.3897 11.579 12.1989 11.5 12 11.5H7.50001C7.3011 11.5 7.11033 11.579 6.96968 11.7197C6.82903 11.8603 6.75001 12.0511 6.75001 12.25V17.5H2.25001V9.25L9.75001 1.75L17.25 9.25V17.5Z" fill="currentColor"/>
</svg>
