<svg width="52" height="48" viewBox="0 0 52 48" fill="none" xmlns="http://www.w3.org/2000/svg">
<path d="M109.259 51.586C109.672 53.1872 109.998 54.8094 110.235 56.444C110.292 56.8464 110.519 57.1892 110.824 57.4247C111.132 57.6584 111.536 57.785 111.96 57.7393C112.385 57.6936 112.748 57.4809 112.994 57.1681C113.243 56.8552 113.358 56.4422 113.295 56.0116C113.042 54.2681 112.695 52.5369 112.253 50.8302C112.14 50.4102 111.868 50.0745 111.524 49.8759C111.18 49.6773 110.754 49.621 110.346 49.7388C109.934 49.8565 109.617 50.1237 109.419 50.4594C109.222 50.7951 109.154 51.1941 109.259 51.586Z" fill="white" fill-opacity="0.12"/>
<path d="M109.54 34.7027C110.652 36.4374 111.666 38.2319 112.569 40.0808C113.469 41.9316 114.26 43.835 114.941 45.7754C115.623 47.7158 116.178 49.6983 116.621 51.7037C117.061 53.7091 117.393 55.7409 117.591 57.7814C117.633 58.2489 117.844 58.6567 118.148 58.9449C118.448 59.2332 118.845 59.4019 119.271 59.3755C119.697 59.3474 120.069 59.126 120.328 58.7832C120.581 58.4405 120.711 57.9783 120.666 57.4826C120.456 55.3243 120.107 53.1766 119.64 51.0534C119.17 48.932 118.583 46.8335 117.862 44.7806C117.143 42.7278 116.304 40.7136 115.353 38.7556C114.396 36.7995 113.323 34.8995 112.148 33.0664C112.017 32.8554 111.847 32.6797 111.662 32.5426C111.477 32.4055 111.275 32.3053 111.069 32.2473C110.657 32.1296 110.224 32.1823 109.871 32.4196C109.518 32.6568 109.312 33.0294 109.251 33.4425C109.221 33.6481 109.23 33.8643 109.278 34.077C109.326 34.2896 109.415 34.4988 109.54 34.6991V34.7027Z" fill="white" fill-opacity="0.12"/>
<path d="M120.819 41.1495C121.011 41.6469 121.348 42.0371 121.735 42.2726C122.116 42.5098 122.554 42.5907 122.957 42.4501C123.36 42.3095 123.649 41.972 123.788 41.5344C123.921 41.0985 123.9 40.5625 123.697 40.0387C121.111 33.5304 117.424 27.4632 112.837 22.1624C112.474 21.7335 111.998 21.4699 111.547 21.382C111.093 21.2941 110.658 21.3838 110.342 21.6667C110.027 21.9497 109.89 22.3698 109.917 22.8162C109.943 23.2626 110.141 23.7319 110.485 24.1396C114.849 29.1839 118.358 34.9593 120.819 41.1512V41.1495Z" fill="white" fill-opacity="0.12"/>
<path d="M109.285 42.5959C108.086 40.0087 106.644 37.5341 105.007 35.1947C103.367 32.8571 101.523 30.6567 99.495 28.6372C97.4689 26.616 95.2664 24.7653 92.9195 23.1131C90.569 21.468 88.0743 20.0216 85.4708 18.7983C85.0698 18.6155 84.6386 18.5997 84.2626 18.7385C83.8866 18.8774 83.5712 19.1568 83.4019 19.5435C83.2308 19.9302 83.2344 20.3467 83.3698 20.7053C83.507 21.0638 83.769 21.3802 84.145 21.5506C86.5845 22.6966 88.9243 24.0517 91.1286 25.5966C93.3294 27.145 95.3947 28.8815 97.2961 30.7779C99.1992 32.6726 100.928 34.736 102.466 36.9295C104.003 39.1229 105.354 41.4429 106.479 43.8684C106.521 43.9615 106.575 44.0459 106.634 44.125C106.691 44.2041 106.757 44.2779 106.828 44.3429C106.971 44.473 107.14 44.5749 107.323 44.6435C107.69 44.7806 108.113 44.7876 108.507 44.6259C108.9 44.4624 109.189 44.1566 109.33 43.7893C109.401 43.6047 109.437 43.4061 109.431 43.2022C109.43 43.1003 109.417 42.9984 109.394 42.8964C109.369 42.7945 109.333 42.6943 109.287 42.5959H109.285Z" fill="white" fill-opacity="0.12"/>
<path d="M19.8255 30.6321C20.1694 30.8835 20.5917 30.9503 21.0087 30.8712C21.4239 30.7921 21.8195 30.5566 22.1153 30.1892C23.3146 28.697 24.5941 27.2681 25.9484 25.9095C26.2781 25.5703 26.467 25.1573 26.4973 24.7425C26.5276 24.3277 26.4028 23.9164 26.107 23.6124C25.813 23.3083 25.4031 23.1695 24.9737 23.1976C24.546 23.2257 24.0934 23.4155 23.7441 23.7741C22.3131 25.21 20.9606 26.7215 19.6918 28.2998C19.3782 28.6882 19.241 29.154 19.2642 29.5758C19.2873 29.9976 19.4833 30.3861 19.8255 30.6356V30.6321Z" fill="white" fill-opacity="0.12"/>
<path d="M17.6152 46.1708C17.1448 47.4468 16.726 48.7422 16.3607 50.0533C15.6265 52.6721 15.1365 55.3559 14.8514 58.0556C14.7142 59.4072 14.6375 60.764 14.6108 62.1209C14.5823 63.4777 14.6179 64.8363 14.707 66.1914C14.7979 67.5465 14.9333 68.8981 15.1418 70.2409C15.3468 71.5837 15.6052 72.9194 15.9188 74.2411C16.2289 75.5646 16.6084 76.8722 17.0343 78.164C17.462 79.4558 17.9396 80.7301 18.4742 81.9815C18.647 82.3805 18.9678 82.6722 19.3384 82.8181C19.7091 82.964 20.1368 82.9587 20.5235 82.7829C20.9119 82.6054 21.1864 82.2961 21.3325 81.9358C21.4786 81.5755 21.4857 81.1712 21.3236 80.7969C20.5751 79.027 19.9265 77.2167 19.4061 75.3695C19.2796 74.9072 19.1478 74.445 19.0373 73.9792C18.9802 73.7455 18.9197 73.5135 18.8662 73.2797L18.7112 72.5767L18.6345 72.2252L18.5668 71.8719L18.4296 71.1654L18.3084 70.457C18.2692 70.2198 18.2265 69.9843 18.1944 69.747C17.9164 67.8506 17.7453 65.9366 17.7043 64.0173C17.6651 62.0998 17.74 60.1787 17.936 58.27C17.9823 57.8658 18.198 57.5178 18.5045 57.2893C18.8145 57.0608 19.2226 56.9536 19.6449 57.0098L20.5947 57.1364C21.0189 57.1926 21.377 57.3965 21.6229 57.6759C21.8724 57.9554 22.0061 58.3087 21.9615 58.6778C21.8635 59.6936 21.7887 60.7113 21.7602 61.7324C21.737 62.7536 21.7299 63.7765 21.7815 64.7976C21.7905 65.1702 21.9918 65.4972 22.2858 65.7204C22.5799 65.9436 22.9755 66.0613 23.3996 66.0315C23.8255 65.9998 24.2015 65.8276 24.4652 65.5815C24.7307 65.3355 24.8769 65.0156 24.868 64.6693C24.6898 60.4371 25.1887 56.1978 26.3827 52.1589C26.6749 51.1465 27.0206 50.15 27.4002 49.1675C27.7815 48.185 28.1967 47.2148 28.66 46.2658C29.5867 44.3693 30.6559 42.5379 31.8854 40.812C32.4985 39.9473 33.1435 39.1071 33.8225 38.2916C34.505 37.4796 35.2213 36.694 35.9662 35.9365C37.4542 34.4197 39.0758 33.0312 40.7919 31.7728C41.649 31.1418 42.5364 30.553 43.4435 29.9959C44.3505 29.4405 45.2789 28.9167 46.2287 28.4351C47.1803 27.9553 48.1479 27.5142 49.1334 27.1099C49.3811 27.0115 49.6252 26.9078 49.8747 26.8146L50.6231 26.5334C51.1256 26.3577 51.6282 26.1802 52.136 26.022C52.4657 25.9112 52.7187 25.6634 52.8613 25.3348C53.0039 25.0061 53.0359 24.5983 52.9201 24.1923C52.8025 23.7881 52.5548 23.4629 52.2412 23.2678C51.9275 23.0728 51.548 23.0007 51.1916 23.1202C46.3178 24.6563 41.7381 27.0959 37.7322 30.2489C33.7209 33.3985 30.3013 37.2757 27.6817 41.617C27.4893 41.9368 27.1649 42.139 26.8032 42.2216C26.4379 42.3007 26.0227 42.2514 25.6503 42.0493L24.8109 41.5924C24.4367 41.3885 24.1783 41.0651 24.0661 40.6977C23.9502 40.3304 23.9912 39.9262 24.2033 39.5764C27.3574 34.3423 31.5789 29.7322 36.5454 26.1134C36.8804 25.8743 37.0764 25.5158 37.1405 25.1379C37.2029 24.76 37.1245 24.3488 36.8822 24.0043C36.6398 23.658 36.2763 23.4436 35.8807 23.3786C35.4833 23.3135 35.0627 23.412 34.7063 23.6668C30.2817 26.9008 26.4023 30.8588 23.2873 35.3389C21.7299 37.578 20.3542 39.942 19.1977 42.4079C18.6185 43.6399 18.0893 44.8948 17.6117 46.1691L17.6152 46.1708Z" fill="white" fill-opacity="0.12"/>
<path d="M119.189 67.6766C118.763 67.6415 118.362 67.8032 118.055 68.0862C117.752 68.3691 117.53 68.7734 117.476 69.2391C117.252 71.1303 116.922 73.0126 116.493 74.8722C116.384 75.3291 116.446 75.7826 116.644 76.1517C116.842 76.5208 117.157 76.8055 117.572 76.9127C117.982 77.0199 118.415 76.9285 118.763 76.6807C119.11 76.4346 119.39 76.0374 119.506 75.5523C119.962 73.5856 120.31 71.596 120.547 69.5942C120.604 69.1003 120.486 68.6345 120.233 68.2883C119.983 67.9403 119.616 67.7118 119.19 67.6766H119.189Z" fill="white" fill-opacity="0.12"/>
<path d="M21.0944 105.444C20.9857 105.224 20.8378 105.013 20.6489 104.823C19.8256 103.995 19.0362 103.136 18.261 102.264L17.6908 101.602C17.5019 101.38 17.3094 101.16 17.1259 100.934C16.757 100.482 16.3846 100.034 16.0299 99.5698C14.5972 97.7314 13.2607 95.8156 12.0525 93.8207C10.8426 91.8294 9.74664 89.7678 8.77367 87.6499C7.80783 85.5303 6.96316 83.3544 6.24858 81.1381C6.16305 80.885 6.049 80.6547 5.90644 80.4544C5.76388 80.2558 5.59637 80.087 5.41105 79.957C5.04039 79.6969 4.60737 79.5879 4.19751 79.7021C3.78587 79.8164 3.4758 80.1345 3.31364 80.5616C3.23167 80.7742 3.18712 81.015 3.18177 81.2699C3.17643 81.5247 3.21385 81.7936 3.30295 82.059C4.05317 84.3896 4.9406 86.6762 5.95812 88.9048C6.9792 91.1299 8.13215 93.297 9.40271 95.3903C10.6715 97.4853 12.0757 99.4977 13.5815 101.431C13.9539 101.918 14.346 102.389 14.7327 102.863C14.9251 103.103 15.1265 103.333 15.3261 103.567L15.9248 104.263C16.7392 105.178 17.5696 106.082 18.4339 106.952C18.6317 107.152 18.8508 107.312 19.0789 107.43C19.307 107.546 19.5458 107.618 19.7757 107.646C20.2355 107.704 20.6649 107.584 20.9607 107.28C21.2565 106.976 21.3652 106.549 21.3064 106.108C21.2779 105.887 21.2049 105.663 21.0944 105.445V105.444Z" fill="white" fill-opacity="0.12"/>
<path d="M63.0581 115.899C61.13 115.859 59.2019 115.722 57.2862 115.476C56.814 115.411 56.3649 115.521 56.0103 115.75C55.6575 115.975 55.4009 116.318 55.3332 116.732C55.2654 117.147 55.4009 117.557 55.6824 117.88C55.964 118.198 56.3934 118.43 56.8924 118.497C58.9185 118.757 60.9571 118.903 62.994 118.945C63.4965 118.95 63.9545 118.789 64.2788 118.513C64.6049 118.233 64.8009 117.85 64.7955 117.428C64.7902 117.008 64.5906 116.629 64.2752 116.356C63.9598 116.08 63.5321 115.903 63.0581 115.898V115.899Z" fill="white" fill-opacity="0.12"/>
<path d="M40.1164 113.678C43.3703 115.186 46.774 116.384 50.2613 117.254C50.7514 117.372 51.2361 117.316 51.6174 117.117C52.0005 116.917 52.2785 116.588 52.3694 116.177C52.4603 115.766 52.3498 115.353 52.1039 115.017C51.858 114.68 51.482 114.411 51.0187 114.3C50.7068 114.228 50.4003 114.138 50.0902 114.059C49.782 113.977 49.4719 113.896 49.1672 113.803L48.2477 113.532L47.3353 113.24C47.2212 113.203 47.1143 113.158 47.0145 113.105C46.9147 113.049 46.8221 112.985 46.7383 112.915C46.569 112.774 46.4318 112.609 46.3338 112.428C46.136 112.066 46.0897 111.648 46.2376 111.251L46.569 110.363C46.7151 109.969 47.0217 109.672 47.3905 109.507C47.5741 109.424 47.7754 109.377 47.9804 109.366C48.0837 109.361 48.1871 109.366 48.2922 109.381C48.3974 109.393 48.5025 109.416 48.6076 109.449C53.2925 110.98 58.2126 111.804 63.1433 111.906C63.5835 111.911 63.9844 111.748 64.2696 111.472C64.5547 111.193 64.7258 110.809 64.7204 110.389C64.7151 109.969 64.5404 109.59 64.266 109.317C63.9916 109.041 63.6209 108.864 63.2075 108.859C60.2316 108.795 57.2628 108.456 54.3546 107.837C51.4463 107.22 48.5987 106.324 45.8669 105.166C40.398 102.853 35.3906 99.4854 31.1993 95.3164C30.9124 95.0246 30.524 94.8823 30.1337 94.8752C29.7452 94.8682 29.3461 95.0035 29.0324 95.29C28.7206 95.5765 28.5566 95.9614 28.5477 96.3586C28.5406 96.7541 28.6974 97.1513 29.0057 97.4642C30.3743 98.8263 31.8284 100.102 33.3484 101.299C33.434 101.368 33.5106 101.443 33.5801 101.522C33.6496 101.601 33.7102 101.684 33.7618 101.772C33.8652 101.948 33.9329 102.139 33.965 102.336C34.0256 102.732 33.9418 103.145 33.6888 103.482L33.1168 104.241C32.8619 104.581 32.4788 104.774 32.0654 104.807C31.8587 104.825 31.643 104.802 31.431 104.739C31.3259 104.707 31.2207 104.667 31.1191 104.614C31.0176 104.561 30.9213 104.498 30.8287 104.424C29.7773 103.607 28.7669 102.739 27.7832 101.846C27.5391 101.619 27.2914 101.399 27.0526 101.167L26.3345 100.477C25.8658 100.006 25.3936 99.5381 24.941 99.0512C21.2398 95.1319 18.1355 90.6588 15.7904 85.8202C15.5891 85.3949 15.2487 85.082 14.862 84.9133C14.4807 84.7428 14.0476 84.7164 13.6574 84.8869C13.2671 85.0556 12.9927 85.3896 12.8697 85.7991C12.7503 86.2069 12.7878 86.6867 13.0016 87.1366C15.4821 92.2565 18.7646 96.9861 22.6778 101.13C25.1637 103.762 27.9044 106.159 30.8536 108.275C33.7565 110.36 36.8625 112.172 40.1182 113.678H40.1164Z" fill="white" fill-opacity="0.12"/>
<path d="M3.93978 73.7946C4.15005 73.3992 4.2445 72.8948 4.1554 72.371C3.81326 70.2373 3.59051 68.0878 3.48715 65.9365C3.46577 65.4057 3.27509 64.9329 2.98285 64.5902C2.69595 64.2475 2.30925 64.0348 1.88157 64.0418C1.45568 64.0489 1.07077 64.2756 0.798122 64.6464C0.530823 65.0155 0.377571 65.527 0.400737 66.0841C0.509439 68.3444 0.744662 70.6029 1.10284 72.8456C1.19551 73.3974 1.44855 73.8702 1.78891 74.1796C2.13284 74.4889 2.55517 74.6365 2.97394 74.5574C3.3927 74.4783 3.7295 74.1901 3.93978 73.7964V73.7946Z" fill="white" fill-opacity="0.12"/>
<path d="M113.683 90.3897L114.084 89.6796L114.469 88.9607C114.597 88.72 114.727 88.4827 114.847 88.2384C115.837 86.3033 116.716 84.3102 117.477 82.2749C117.646 81.8056 117.634 81.3241 117.477 80.9304C117.32 80.5349 117.01 80.2273 116.607 80.0955C116.201 79.9637 115.777 80.0305 115.41 80.2344C115.041 80.4383 114.736 80.7827 114.576 81.2257C113.856 83.1502 113.025 85.0326 112.088 86.864C111.974 87.0942 111.851 87.3192 111.73 87.5459L111.366 88.2261L110.987 88.8975C110.86 89.1207 110.735 89.3457 110.6 89.5654C110.335 90.0065 110.076 90.4494 109.796 90.8818L109.383 91.5338L108.955 92.1754C108.674 92.606 108.373 93.0225 108.077 93.4443C107.931 93.657 107.774 93.8609 107.622 94.0683L107.163 94.6887C106.535 95.5042 105.896 96.3127 105.222 97.0913C103.882 98.6555 102.456 100.149 100.942 101.55C100.592 101.868 100.398 102.288 100.346 102.696C100.298 103.107 100.407 103.522 100.689 103.837C100.97 104.153 101.376 104.308 101.808 104.297C102.243 104.292 102.69 104.106 103.059 103.768C104.661 102.288 106.168 100.71 107.585 99.0545C108.296 98.2302 108.973 97.376 109.636 96.5131L110.122 95.8575C110.283 95.6378 110.449 95.4216 110.604 95.1984C110.915 94.752 111.234 94.3108 111.532 93.8556L111.985 93.1772L112.421 92.4882C112.717 92.0312 112.991 91.562 113.271 91.0962C113.414 90.8642 113.544 90.6269 113.679 90.3897H113.683Z" fill="white" fill-opacity="0.12"/>
<path d="M33.8569 115.098C33.6947 114.913 33.4951 114.748 33.2617 114.613C31.3781 113.513 29.5551 112.314 27.8034 111.022C27.3757 110.7 26.8839 110.542 26.4277 110.544C25.9769 110.544 25.5617 110.702 25.2962 111.031C25.0306 111.359 24.9629 111.797 25.0805 112.24C25.1999 112.679 25.5011 113.122 25.9519 113.462C27.7927 114.818 29.7084 116.079 31.6882 117.235C31.9323 117.377 32.1871 117.476 32.4384 117.532C32.6914 117.585 32.9391 117.594 33.169 117.562C33.6288 117.499 34.0119 117.274 34.2168 116.905C34.4217 116.536 34.4128 116.094 34.24 115.683C34.1527 115.477 34.0244 115.279 33.8586 115.098H33.8569Z" fill="white" fill-opacity="0.12"/>
<path d="M2.02409 58.6495C2.45177 58.6794 2.84559 58.4861 3.15566 58.1592C3.46573 57.8305 3.67957 57.3683 3.73124 56.8392C3.88984 55.3471 4.10368 53.8584 4.36563 52.3785C4.46543 51.8547 4.72916 51.4118 5.06952 51.1271C5.41345 50.8424 5.83934 50.7141 6.25633 50.802L7.19366 50.9988C7.61243 51.0867 7.94209 51.3661 8.15059 51.7423C8.36086 52.1201 8.44462 52.5929 8.35195 53.0815C7.64985 56.9535 7.36829 60.8905 7.49481 64.8046C7.62134 68.724 8.16484 72.6416 9.12178 76.4608C9.23761 76.9459 9.52807 77.3379 9.88269 77.5769C10.2391 77.8177 10.6632 77.9038 11.0731 77.7896C11.4829 77.6753 11.8037 77.3836 11.9908 77.0127C12.1779 76.6401 12.2296 76.1884 12.1209 75.7297C11.3172 72.5186 10.8147 69.2354 10.6365 65.9382C10.4565 62.6428 10.5794 59.335 11.0125 56.0571C11.8767 49.5014 14.024 43.1055 17.2815 37.3301C17.3974 37.1245 17.4704 36.9083 17.5043 36.6921C17.5364 36.4759 17.5364 36.2633 17.4954 36.0594C17.4134 35.6534 17.1835 35.2896 16.8164 35.0734C16.4511 34.8572 16.0163 34.8308 15.61 34.9697C15.4069 35.04 15.2073 35.149 15.0326 35.2984C14.858 35.4478 14.703 35.6341 14.58 35.8502L14.3252 36.3002L14.0793 36.7554C13.9171 37.0612 13.7514 37.3618 13.5946 37.6711C13.37 38.1158 13.0101 38.4427 12.6145 38.6184C12.2207 38.7959 11.7823 38.8205 11.3974 38.643L10.5296 38.2423C10.1429 38.0648 9.88447 37.7115 9.78111 37.2774C9.68132 36.8468 9.74547 36.3388 9.98604 35.8608C11.6041 32.7253 13.5019 29.7321 15.6439 26.9253C17.784 24.1167 20.1844 21.5049 22.7897 19.1093C25.3967 16.7172 28.2105 14.5431 31.206 12.6362C34.1998 10.7274 37.3646 9.0753 40.6542 7.70791C41.1531 7.50578 41.5416 7.16481 41.7697 6.77639C41.9996 6.39324 42.0708 5.95912 41.9194 5.56718C41.7679 5.17348 41.4169 4.89754 40.9696 4.77099C40.5241 4.64972 39.9823 4.68487 39.4567 4.89754C34.198 7.08221 29.2458 9.95936 24.7695 13.4235C20.2967 16.893 16.2961 20.9442 12.8996 25.4489C9.50312 29.9536 6.72321 34.917 4.65075 40.1616C2.57651 45.4062 1.24002 50.9355 0.655522 56.5194C0.602062 57.0765 0.730366 57.595 0.976281 57.9799C1.2222 58.3648 1.5982 58.6126 2.02231 58.6425L2.02409 58.6495Z" fill="white" fill-opacity="0.12"/>
<path d="M127.537 66.3512C127.279 65.9734 126.898 65.7361 126.473 65.7168C126.046 65.6992 125.656 65.9013 125.356 66.237C125.055 66.5727 124.852 67.042 124.816 67.571C124.396 72.9685 123.243 78.3326 121.363 83.4349C119.484 88.5389 116.899 93.3828 113.711 97.7943C113.394 98.2249 113.246 98.7135 113.258 99.1617C113.267 99.6064 113.438 100.011 113.777 100.267C114.115 100.522 114.561 100.578 115.008 100.454C115.45 100.327 115.894 100.018 116.225 99.5642C119.575 94.9295 122.293 89.8395 124.267 84.4736C126.244 79.1095 127.455 73.4694 127.897 67.7995C127.935 67.2423 127.794 66.7256 127.537 66.3495V66.3512Z" fill="white" fill-opacity="0.12"/>
<path d="M109.115 104.059C108.666 104.127 108.213 104.364 107.834 104.742C103.908 108.734 99.4208 112.189 94.5292 114.97C94.0605 115.233 93.5473 115.318 93.1072 115.246C92.6652 115.172 92.291 114.931 92.0914 114.56L91.6388 113.725C91.4374 113.353 91.441 112.924 91.5978 112.523C91.7546 112.121 92.0683 111.755 92.5066 111.509C93.7237 110.815 94.9123 110.076 96.076 109.301C96.4894 109.018 96.7674 108.623 96.8707 108.212C96.9741 107.797 96.9082 107.373 96.6569 107.032C96.4056 106.693 96.019 106.5 95.602 106.458C95.1832 106.414 94.7288 106.514 94.3385 106.781C92.6225 107.936 90.8334 108.983 88.9908 109.934C87.15 110.887 85.2486 111.725 83.3062 112.454C79.4215 113.92 75.3585 114.922 71.2385 115.458C70.7663 115.521 70.3582 115.732 70.0767 116.043C69.7951 116.355 69.6365 116.75 69.6775 117.168C69.7185 117.588 69.9555 117.95 70.3119 118.186C70.6665 118.421 71.1423 118.546 71.6413 118.479L72.7318 118.328C73.0954 118.274 73.4571 118.212 73.8189 118.154C74.316 118.077 74.7936 118.153 75.175 118.363C75.5545 118.573 75.8379 118.907 75.9234 119.318L76.1159 120.244C76.2014 120.657 76.0677 121.07 75.7755 121.406C75.4833 121.74 75.0342 122.007 74.5014 122.09L73.4589 122.26L72.4129 122.406L71.889 122.476L71.3651 122.536C71.0158 122.575 70.6665 122.617 70.3155 122.652C69.6151 122.713 68.9148 122.782 68.2127 122.821C67.8617 122.842 67.5106 122.868 67.1596 122.882L66.1064 122.923C65.7553 122.938 65.4043 122.938 65.0532 122.944C64.7022 122.947 64.3511 122.956 64.0019 122.951C63.2998 122.942 62.5994 122.938 61.8973 122.907C60.4931 122.861 59.0907 122.754 57.69 122.61C52.0892 122.028 46.5579 120.652 41.3331 118.557C41.0836 118.457 40.8288 118.399 40.5811 118.383C40.3334 118.365 40.0964 118.383 39.8772 118.439C39.4389 118.552 39.0789 118.812 38.9043 119.195C38.7314 119.58 38.7813 120.017 39.0076 120.416C39.1217 120.615 39.2785 120.806 39.4745 120.972C39.6705 121.135 39.9057 121.276 40.1677 121.381C46.0269 123.733 52.255 125.209 58.5383 125.752C59.3241 125.828 60.11 125.868 60.8959 125.918L62.0755 125.963C62.4694 125.981 62.8614 125.986 63.2552 125.99C64.8269 126.018 66.3986 125.977 67.9704 125.889C71.1156 125.71 74.2555 125.297 77.3508 124.659C83.5432 123.383 89.5432 121.181 95.0709 118.163C100.602 115.149 105.663 111.326 110.052 106.862C110.451 106.465 110.672 105.974 110.719 105.521C110.765 105.067 110.631 104.647 110.316 104.364C110 104.081 109.564 103.986 109.117 104.055L109.115 104.059Z" fill="white" fill-opacity="0.12"/>
<path d="M24.0192 91.6745C24.2776 92.0261 24.6518 92.2422 25.051 92.2985C25.4484 92.3565 25.86 92.2581 26.1968 92.0015C26.5336 91.7431 26.735 91.3758 26.792 90.9961C26.8455 90.6165 26.7653 90.2175 26.5229 89.8888C25.541 88.5513 24.6251 87.1646 23.7982 85.7287C23.5969 85.3736 23.2619 85.1364 22.8859 85.0309C22.5134 84.9237 22.0911 84.9536 21.7133 85.1487C21.3355 85.3455 21.0754 85.6759 20.9631 86.0573C20.8544 86.4352 20.8989 86.8623 21.1146 87.2419C21.9984 88.7728 22.9732 90.2527 24.021 91.6781L24.0192 91.6745Z" fill="white" fill-opacity="0.12"/>
<path d="M78.1939 16.0583C75.2839 15.2164 72.2937 14.6399 69.2786 14.3341C66.2616 14.0353 63.2198 14.0054 60.1975 14.2409C54.153 14.7137 48.1958 16.3008 42.7286 18.8932C42.333 19.0848 42.0532 19.4152 41.9232 19.7861C41.7949 20.1587 41.8216 20.5805 42.0176 20.9531C42.2154 21.3275 42.5451 21.5823 42.9157 21.7071C43.2882 21.8337 43.698 21.8214 44.0687 21.6421C49.1937 19.2113 54.7731 17.7262 60.4434 17.2815C63.2786 17.0618 66.1369 17.09 68.9649 17.3694C71.7947 17.6559 74.596 18.1972 77.3225 18.9864C77.7181 19.1024 78.1262 19.0409 78.4701 18.8651C78.814 18.6858 79.0991 18.3765 79.2328 17.9758C79.3664 17.5768 79.3219 17.162 79.1348 16.8105C78.9494 16.4572 78.6162 16.1848 78.1939 16.06V16.0583Z" fill="white" fill-opacity="0.12"/>
<path d="M37.0455 13.8577C34.2869 15.3446 31.6585 17.0583 29.1851 18.967C28.7913 19.2781 28.5453 19.6929 28.4687 20.1094C28.3939 20.5277 28.4901 20.9495 28.7645 21.2712C29.039 21.5946 29.4363 21.758 29.8569 21.7738C30.2792 21.7914 30.7229 21.6578 31.0936 21.3643C33.4316 19.5593 35.9174 17.9388 38.5263 16.5327C39.8307 15.8315 41.1654 15.1847 42.5251 14.5906C43.883 13.9966 45.2676 13.457 46.6736 12.9807C46.7858 12.942 46.8927 12.8928 46.9925 12.8383C47.0923 12.7838 47.1868 12.7223 47.2723 12.6555C47.4452 12.5184 47.5877 12.3567 47.6946 12.1775C47.9085 11.8189 47.9833 11.3953 47.8568 10.9946C47.7303 10.5904 47.4256 10.2881 47.0282 10.1246C46.8304 10.0438 46.6076 9.99632 46.376 9.98928C46.2601 9.98577 46.1408 9.9928 46.0214 10.0104C45.902 10.0297 45.7826 10.0596 45.6632 10.1018C44.1752 10.6044 42.7104 11.1756 41.2741 11.8049C39.8361 12.4323 38.4247 13.1178 37.0455 13.8595V13.8577Z" fill="white" fill-opacity="0.12"/>
<path d="M46.6252 5.13312C47.0476 5.29833 47.5626 5.31942 48.0847 5.18408C52.1655 4.07857 56.3621 3.40014 60.5711 3.15408C61.1093 3.11717 61.6047 3.2736 61.9646 3.53548C62.3246 3.79736 62.5491 4.17172 62.5616 4.59178L62.5883 5.53736C62.599 5.95742 62.403 6.34584 62.0805 6.63409C61.7579 6.92409 61.3124 7.10512 60.8117 7.14027C59.3326 7.22112 57.8554 7.37051 56.3852 7.57088C55.6493 7.66578 54.9186 7.79057 54.1862 7.91009C53.4574 8.04718 52.7268 8.179 52.0033 8.34245C51.7574 8.39694 51.5311 8.48657 51.3368 8.61136C51.1426 8.73791 50.9787 8.89082 50.8521 9.06306C50.5991 9.40754 50.4993 9.82409 50.6044 10.2318C50.7096 10.6396 50.9965 10.963 51.3689 11.1563C51.5542 11.253 51.7627 11.318 51.9819 11.3462C52.2011 11.3743 52.4328 11.3708 52.6662 11.3198C57.3422 10.3004 62.15 9.92779 66.9168 10.1528C71.689 10.3953 76.4433 11.246 80.9892 12.7294C85.5369 14.2057 89.8831 16.2849 93.8641 18.9002C97.8469 21.5137 101.479 24.6422 104.62 28.1978C104.936 28.5493 105.34 28.7673 105.759 28.827C106.178 28.8868 106.598 28.7971 106.93 28.5317C107.259 28.2664 107.436 27.8691 107.438 27.4473C107.439 27.0255 107.283 26.5668 106.948 26.1942C105.451 24.5122 103.861 22.9075 102.172 21.4118C100.482 19.9179 98.7111 18.5118 96.8525 17.2253C94.9939 15.9387 93.0622 14.7523 91.0593 13.6925C89.0563 12.6345 86.991 11.6854 84.874 10.8698C84.4035 10.6923 84.0382 10.3725 83.8208 9.99985C83.6034 9.63076 83.5357 9.20366 83.6765 8.80645L83.9972 7.91536C84.1398 7.51815 84.4712 7.22991 84.8989 7.08754C85.3248 6.94869 85.8434 6.961 86.3477 7.15257C88.094 7.82748 89.8083 8.58148 91.4834 9.41282C91.9681 9.64657 92.4759 9.72567 92.9232 9.64482C93.3687 9.56573 93.7518 9.33372 93.955 8.96463C94.1599 8.59379 94.1439 8.15615 93.9497 7.74136C93.7536 7.33009 93.3812 6.93463 92.8716 6.68857C89.3788 4.95736 85.7222 3.53723 81.9622 2.47038C78.2022 1.40002 74.3424 0.675898 70.4594 0.299776C68.5153 0.109958 66.5693 0.0132913 64.6252 0.000988209C62.6828 -0.00955726 60.7369 0.064261 58.7927 0.224201C56.8503 0.385898 54.9115 0.631959 52.987 0.969414C51.0624 1.30863 49.1521 1.73396 47.2668 2.24541C46.7161 2.38778 46.2724 2.70238 45.998 3.06972C45.7236 3.43881 45.622 3.8659 45.7485 4.26839C45.875 4.67087 46.2029 4.97142 46.6252 5.13487V5.13312Z" fill="white" fill-opacity="0.12"/>
<path d="M98.6557 13.6065C100.457 14.8315 102.191 16.1497 103.848 17.5557C104.257 17.902 104.732 18.0971 105.187 18.1252C105.641 18.1516 106.062 18.025 106.352 17.7139C106.639 17.4064 106.741 16.9687 106.65 16.524C106.561 16.0794 106.295 15.6101 105.866 15.2463C104.125 13.7699 102.302 12.3832 100.409 11.0966C99.9459 10.775 99.4166 10.6414 98.9569 10.6713C98.4954 10.7012 98.098 10.8998 97.8663 11.2548C97.6364 11.6099 97.6133 12.0493 97.7576 12.4728C97.9019 12.8964 98.2156 13.3007 98.6557 13.6065Z" fill="white" fill-opacity="0.12"/>
<path d="M68.486 111.289C68.7942 111.537 69.2095 111.679 69.6478 111.627C75.3359 111.018 80.9189 109.423 86.0546 106.929C88.6261 105.688 91.0799 104.218 93.3929 102.556C95.7041 100.895 97.8746 99.0387 99.8597 97.007C101.847 94.977 103.663 92.7835 105.27 90.4494C106.875 88.1136 108.278 85.6425 109.456 83.0694C110.63 80.4945 111.575 77.8195 112.282 75.0847C112.988 72.3482 113.442 69.5518 113.667 66.7397C113.695 66.3056 113.547 65.9014 113.285 65.6061C113.023 65.3091 112.638 65.121 112.214 65.1034C111.787 65.0858 111.398 65.2388 111.104 65.4918C110.808 65.7467 110.611 66.1035 110.586 66.5095C110.429 68.478 110.154 70.4377 109.748 72.3692C109.639 72.8508 109.541 73.3342 109.417 73.8122C109.356 74.0512 109.299 74.292 109.237 74.5311L109.041 75.2446C109.007 75.3642 108.976 75.4837 108.941 75.6014L108.62 76.6665L108.273 77.7228L107.898 78.7703L107.497 79.8091L107.355 80.1518L107.071 80.8373L106.77 81.5157L106.621 81.8549L106.145 82.862L105.812 83.5246L105.644 83.8568L105.469 84.1837L105.12 84.8393L104.755 85.4861L104.571 85.8094L104.381 86.1276L103.999 86.7656L103.602 87.393L103.404 87.7076L102.784 88.6356C102.549 88.9713 102.192 89.177 101.813 89.235C101.43 89.2912 101.018 89.1963 100.672 88.9502L99.8954 88.3966C99.5497 88.1488 99.3305 87.8025 99.2467 87.4422C99.1612 87.0802 99.2129 86.7076 99.4267 86.4017C100.733 84.4825 101.888 82.463 102.859 80.361C103.825 78.2571 104.63 76.0813 105.227 73.8491C105.33 73.4906 105.24 73.1215 105.026 72.8227C104.812 72.5239 104.472 72.2954 104.056 72.2005C103.641 72.1056 103.229 72.1583 102.903 72.3148C102.576 72.4712 102.338 72.7331 102.242 73.0635C100.863 78.1534 98.4128 82.9639 95.0787 87.103C91.7481 91.2439 87.5604 94.7186 82.847 97.2161C82.537 97.3761 82.341 97.6749 82.2608 98.0246C82.1806 98.3708 82.2216 98.7769 82.4122 99.153C82.6029 99.5291 82.9076 99.805 83.2533 99.9439C83.5973 100.081 83.9786 100.072 84.3136 99.8999C85.1387 99.4553 85.9584 98.9965 86.7514 98.4974L87.0508 98.3129C87.1506 98.2513 87.2468 98.1863 87.3466 98.1213L87.9364 97.7381L88.8078 97.1423L89.0929 96.9367C89.3977 96.7187 89.7772 96.6572 90.1425 96.724C90.5096 96.7943 90.8714 96.9999 91.1333 97.3339L91.7214 98.0808C91.9833 98.413 92.0903 98.812 92.0457 99.1934C92.0047 99.5766 91.8051 99.9298 91.4701 100.171L91.1672 100.389L90.2423 101.021L89.3014 101.633L88.9842 101.83L88.3481 102.222L87.703 102.6L87.3804 102.788L86.3968 103.331L85.7339 103.677L85.4024 103.849L85.0674 104.014L84.3956 104.343L83.7167 104.656L83.3763 104.812L83.0324 104.962L82.3445 105.259L81.3021 105.681L80.2489 106.076L79.5415 106.322C79.071 106.491 78.5916 106.635 78.1176 106.79C77.1607 107.078 76.1984 107.352 75.2255 107.579C73.2813 108.05 71.3051 108.384 69.3164 108.6C68.9065 108.651 68.5501 108.844 68.3024 109.145C68.0547 109.444 67.9139 109.839 67.946 110.257C67.9781 110.677 68.1812 111.041 68.4913 111.291L68.486 111.289Z" fill="white" fill-opacity="0.12"/>
</svg>
