<svg width="383" height="482" viewBox="0 0 383 482" fill="none" xmlns="http://www.w3.org/2000/svg">
<g opacity="0.7">
<path d="M293.168 427.799C297.815 411.823 300.987 395.41 302.655 378.863C304.284 362.306 304.419 345.615 303.081 329.035C300.395 295.873 291.52 263.202 277.067 233.23C275.999 231.061 274.161 229.529 272.1 228.819C270.03 228.119 267.687 228.27 265.62 229.349C263.542 230.439 262.13 232.25 261.441 234.285C260.742 236.33 260.814 238.579 261.814 240.611C275.365 268.707 283.67 299.306 286.196 330.415C287.445 345.969 287.317 361.653 285.794 377.173C284.231 392.703 281.253 408.079 276.897 423.047C276.257 425.219 276.603 427.458 277.582 429.343C278.581 431.228 280.302 432.79 282.529 433.519C284.746 434.248 287.05 434 289 432.969C290.96 431.949 292.47 430.118 293.159 427.799L293.168 427.799Z" fill="url(#paint0_linear_12357_95236)"/>
<path d="M146.123 598.677C160.48 592.07 174.209 584.134 187.185 575.125C200.151 566.105 212.354 555.963 223.549 544.815C234.754 533.678 245.011 521.573 254.163 508.679C263.276 495.766 271.284 482.062 278.052 467.764C279.063 465.562 279.147 463.196 278.372 461.134C277.597 459.073 276.042 457.345 273.892 456.42C271.743 455.485 269.43 455.509 267.44 456.256C265.45 457.012 263.696 458.453 262.752 460.518C256.413 473.915 248.91 486.767 240.352 498.878C231.775 510.969 222.151 522.319 211.638 532.772C201.134 543.233 189.692 552.739 177.525 561.199C165.358 569.66 152.487 577.095 139.028 583.29C138.511 583.525 138.043 583.819 137.604 584.143C137.165 584.457 136.756 584.819 136.396 585.211C135.675 585.994 135.11 586.924 134.731 587.932C133.974 589.948 133.939 592.265 134.841 594.424C135.753 596.584 137.454 598.165 139.496 598.933C140.521 599.322 141.625 599.516 142.757 599.485C143.323 599.474 143.889 599.404 144.455 599.276C145.021 599.138 145.577 598.942 146.123 598.686L146.123 598.677Z" fill="url(#paint1_linear_12357_95236)"/>
<path d="M211.633 107.663C210.24 109.552 209.874 111.87 210.317 114.158C210.761 116.435 212.073 118.603 214.116 120.223C222.415 126.788 230.364 133.794 237.923 141.211C239.811 143.016 242.106 144.049 244.41 144.211C246.714 144.373 248.997 143.684 250.683 142.058C252.369 140.441 253.136 138.191 252.975 135.835C252.815 133.489 251.756 131.007 249.761 129.094C241.772 121.257 233.363 113.851 224.585 106.906C222.424 105.189 219.836 104.441 217.494 104.572C215.151 104.703 212.996 105.783 211.613 107.663L211.633 107.663Z" fill="url(#paint2_linear_12357_95236)"/>
<path d="M125.316 95.709C118.224 93.1407 111.026 90.8561 103.74 88.8651C89.1882 84.8633 74.2777 82.2018 59.2813 80.6649C51.7734 79.9257 44.2369 79.5191 36.7008 79.3863C29.1647 79.2437 21.6196 79.4531 14.0944 79.9557C6.56933 80.4682 -0.935833 81.2251 -8.39142 82.3828C-15.8471 83.5209 -23.2631 84.9523 -30.6005 86.6866C-37.9477 88.4014 -45.2063 90.4974 -52.3766 92.8474C-59.5469 95.2072 -66.6191 97.8407 -73.5638 100.787C-75.7779 101.739 -77.3951 103.502 -78.2016 105.537C-79.008 107.573 -78.9744 109.919 -77.9944 112.039C-77.0046 114.169 -75.2838 115.672 -73.2812 116.47C-71.2787 117.268 -69.0335 117.303 -66.956 116.409C-57.1338 112.285 -47.0861 108.707 -36.8322 105.833C-34.2662 105.134 -31.7003 104.406 -29.1146 103.795C-27.8169 103.48 -26.529 103.145 -25.2313 102.849L-21.3283 101.991L-19.3768 101.567L-17.4155 101.192L-13.4928 100.432L-9.56015 99.76C-8.24276 99.5425 -6.93516 99.3054 -5.6177 99.127C4.91203 97.5823 15.5404 96.6242 26.1994 96.3797C36.8487 96.1451 47.5187 96.5362 58.1215 97.5923C60.3671 97.8424 62.302 99.022 63.5741 100.701C64.8462 102.4 65.4457 104.638 65.1376 106.956L64.4444 112.169C64.1363 114.497 63.0076 116.464 61.458 117.816C59.9084 119.188 57.9477 119.925 55.8974 119.684C50.2543 119.157 44.6017 118.757 38.9301 118.611C33.2585 118.494 27.5773 118.465 21.9065 118.759C19.8372 118.812 18.0236 119.92 16.7868 121.536C15.5501 123.151 14.9001 125.323 15.0703 127.65C15.2503 129.986 16.2107 132.048 17.5799 133.492C18.9492 134.947 20.7273 135.745 22.6502 135.693C46.1538 134.672 69.7032 137.367 92.1469 143.876C97.7724 145.47 103.311 147.356 108.771 149.429C114.231 151.512 119.624 153.78 124.9 156.312C135.442 161.377 145.624 167.225 155.222 173.955C160.031 177.309 164.703 180.84 169.239 184.557C173.756 188.294 178.126 192.216 182.341 196.296C190.78 204.445 198.508 213.328 205.514 222.732C209.027 227.428 212.306 232.291 215.41 237.263C218.503 242.234 221.422 247.323 224.106 252.529C226.78 257.746 229.24 263.051 231.495 268.454C232.044 269.812 232.623 271.15 233.143 272.518L234.712 276.622C235.693 279.377 236.684 282.133 237.568 284.918C238.186 286.726 239.565 288.112 241.392 288.89C243.219 289.669 245.484 289.841 247.737 289.202C249.981 288.552 251.785 287.19 252.865 285.467C253.945 283.744 254.342 281.661 253.674 279.706C245.094 252.98 231.499 227.876 213.947 205.928C196.414 183.95 174.846 165.226 150.709 150.897C148.93 149.844 147.804 148.067 147.342 146.083C146.899 144.079 147.168 141.8 148.287 139.755L150.816 135.145C151.945 133.089 153.739 131.668 155.778 131.049C157.816 130.409 160.062 130.63 162.007 131.79C191.108 149.043 216.754 172.16 236.903 199.374C238.234 201.209 240.227 202.281 242.327 202.629C244.426 202.968 246.709 202.533 248.62 201.2C250.541 199.867 251.728 197.87 252.085 195.699C252.442 193.517 251.891 191.211 250.472 189.258C232.467 165.013 210.445 143.767 185.532 126.721C173.08 118.198 159.938 110.674 146.231 104.353C139.382 101.188 132.407 98.2969 125.325 95.6895L125.316 95.709Z" fill="url(#paint3_linear_12357_95236)"/>
<path d="M-28.2445 20.9759C-26.0461 22.1256 -23.2436 22.6387 -20.3356 22.1445C-8.48876 20.2454 3.4472 19.0013 15.3941 18.4123C18.3418 18.2895 20.9657 17.2385 22.8663 15.6315C24.7668 14.0538 25.9441 11.9299 25.9007 9.5833C25.8574 7.24651 24.5943 5.13684 22.5319 3.64464C20.4793 2.18175 17.6372 1.34608 14.5431 1.47886C1.99101 2.09833 -10.55 3.412 -23.0019 5.40017C-26.0661 5.91423 -28.6894 7.30748 -30.4039 9.17816C-32.1185 11.0684 -32.9342 13.3872 -32.4907 15.6842C-32.0472 17.9811 -30.443 19.8262 -28.2543 20.9759L-28.2445 20.9759Z" fill="url(#paint4_linear_12357_95236)"/>
<path d="M55.8311 10.2476C55.6695 12.5945 56.7472 14.7535 58.566 16.4514C60.3945 18.1494 62.9639 19.318 65.9026 19.5962C74.1916 20.4512 82.4616 21.6094 90.6834 23.0316C93.5932 23.5739 96.0558 25.0164 97.6405 26.8811C99.2254 28.7653 99.9422 31.1009 99.4584 33.3897L98.3745 38.5348C97.8907 40.8335 96.3419 42.6452 94.2551 43.793C92.1585 44.9507 89.5336 45.415 86.819 44.9116C65.3076 41.0986 43.4392 39.5938 21.7019 40.3279C-0.0646829 41.062 -21.8173 44.0841 -43.0192 49.3737C-45.7122 50.0142 -47.886 51.6119 -49.21 53.5601C-50.5437 55.5181 -51.0177 57.8461 -50.3791 60.0938C-49.7405 62.3415 -48.1169 64.0985 -46.0554 65.1214C-43.9841 66.1443 -41.4748 66.4232 -38.9282 65.8221C-21.1023 61.3797 -2.87308 58.5889 15.4375 57.5776C33.7383 56.5564 52.1104 57.1974 70.3198 59.54C106.738 64.2154 142.282 75.9324 174.39 93.7473C175.534 94.3807 176.735 94.7794 177.936 94.963C179.137 95.1368 180.318 95.1346 181.45 94.9077C183.704 94.4538 185.722 93.1887 186.919 91.1723C188.116 89.1657 188.258 86.7796 187.483 84.5517C187.091 83.4378 186.483 82.3438 185.652 81.3871C184.82 80.4304 183.784 79.5816 182.582 78.9092L180.081 77.5156L177.55 76.1709C175.85 75.2842 174.179 74.3779 172.46 73.5207C169.988 72.2932 168.168 70.3214 167.188 68.1526C166.198 65.9935 166.057 63.5884 167.039 61.4746L169.256 56.7088C170.238 54.5852 172.198 53.1638 174.608 52.5923C176.998 52.0404 179.82 52.3872 182.477 53.7023C199.908 62.5486 216.551 72.9313 232.161 84.6556C247.782 96.37 262.311 109.514 275.642 123.785C288.954 138.065 301.057 153.482 311.678 169.899C322.309 186.306 331.517 203.654 339.144 221.69C340.272 224.426 342.17 226.554 344.329 227.802C346.459 229.059 348.871 229.446 351.046 228.611C353.231 227.775 354.76 225.846 355.459 223.391C356.128 220.945 355.927 217.973 354.741 215.091C342.554 186.259 326.525 159.116 307.24 134.59C287.926 110.083 265.386 88.1733 240.333 69.5829C215.281 50.9924 187.686 35.7897 158.538 24.4716C129.389 13.1438 98.666 5.86682 67.6481 2.7166C64.5533 2.42894 61.6749 3.13822 59.5397 4.49147C57.4044 5.84471 56.0319 7.91034 55.8702 10.2377L55.8311 10.2476Z" fill="url(#paint5_linear_12357_95236)"/>
<path d="M304.992 201.956C296.706 186.835 287.162 172.43 276.536 158.878C274.805 156.72 272.498 155.375 270.184 154.959C267.86 154.552 265.519 155.085 263.735 156.594C261.942 158.103 261.038 160.285 260.954 162.593C260.861 164.91 261.607 167.344 263.241 169.374C273.29 182.184 282.314 195.808 290.15 210.108C294.058 217.258 297.663 224.575 300.976 232.03C304.289 239.474 307.3 247.066 309.96 254.776C310.175 255.392 310.45 255.978 310.753 256.525C311.057 257.072 311.4 257.589 311.771 258.058C312.535 259.005 313.434 259.786 314.431 260.371C316.424 261.54 318.777 261.947 321.002 261.248C323.246 260.55 324.921 258.875 325.825 256.693C326.272 255.607 326.534 254.384 326.57 253.113C326.589 252.477 326.548 251.822 326.45 251.167C326.341 250.512 326.174 249.857 325.938 249.203C323.132 241.043 319.944 233.012 316.435 225.137C312.936 217.253 309.115 209.516 304.982 201.956L304.992 201.956Z" fill="url(#paint6_linear_12357_95236)"/>
<path d="M353.524 254.458C352.611 256.777 352.499 259.603 353.256 262.466C359.437 284.846 363.247 307.866 364.656 330.959C364.866 333.911 364.003 336.631 362.552 338.609C361.101 340.586 359.024 341.822 356.691 341.895L351.44 342.051C349.107 342.114 346.948 341.043 345.344 339.276C343.73 337.509 342.72 335.066 342.52 332.319C342.056 324.204 341.211 316.1 340.084 308.036C339.549 303.998 338.849 299.991 338.178 295.973C337.409 291.975 336.67 287.968 335.754 284C335.449 282.651 334.949 281.41 334.254 280.346C333.549 279.281 332.699 278.383 331.741 277.691C329.825 276.306 327.51 275.762 325.247 276.343C322.983 276.925 321.19 278.502 320.12 280.548C319.585 281.565 319.226 282.71 319.072 283.913C318.918 285.116 318.94 286.387 319.225 287.667C324.934 313.314 327.052 339.691 325.851 365.848C324.552 392.036 319.875 418.132 311.682 443.09C303.529 468.058 292.025 491.927 277.54 513.797C263.065 535.677 245.727 555.636 226.011 572.911C224.062 574.645 222.856 576.867 222.528 579.165C222.2 581.464 222.703 583.77 224.18 585.586C225.657 587.392 227.865 588.356 230.208 588.362C232.55 588.367 235.097 587.502 237.163 585.66C246.489 577.43 255.385 568.692 263.675 559.407C271.955 550.122 279.746 540.389 286.873 530.178C293.999 519.966 300.569 509.355 306.435 498.354C312.291 487.353 317.541 476.011 322.049 464.387C323.03 461.803 324.803 459.796 326.87 458.599C328.918 457.402 331.289 457.026 333.497 457.795L338.449 459.546C340.656 460.324 342.26 462.14 343.055 464.485C343.831 466.82 343.768 469.666 342.709 472.435C338.978 482.024 334.808 491.438 330.208 500.638C328.914 503.299 328.48 506.087 328.934 508.54C329.377 510.984 330.67 513.084 332.722 514.195C334.783 515.315 337.214 515.223 339.515 514.153C341.798 513.073 343.99 511.026 345.352 508.227C354.931 489.045 362.782 468.966 368.669 448.324C374.575 427.682 378.558 406.496 380.608 385.186C381.643 374.517 382.16 363.839 382.209 353.171C382.248 342.513 381.818 331.836 380.91 321.17C379.993 310.514 378.607 299.879 376.713 289.322C374.81 278.765 372.428 268.288 369.569 257.948C368.772 254.928 367.021 252.497 364.978 250.995C362.925 249.493 360.552 248.94 358.318 249.638C356.084 250.337 354.418 252.139 353.515 254.458L353.524 254.458Z" fill="url(#paint7_linear_12357_95236)"/>
<path d="M-235.785 375.459C-237.158 377.153 -237.944 379.432 -237.647 381.837C-234.212 413.042 -225.293 443.659 -211.39 471.813C-204.472 485.91 -196.287 499.359 -187.029 512.033C-177.782 524.698 -167.452 536.589 -156.148 547.46C-144.853 558.342 -132.653 568.283 -119.674 577.079C-106.684 585.865 -92.9459 593.535 -78.6434 599.972C-64.3312 606.389 -49.4649 611.544 -34.2691 615.398C-19.0635 619.242 -3.52862 621.707 12.0918 622.91C14.5032 623.062 16.7468 622.247 18.3841 620.806C20.0311 619.366 21.0717 617.252 21.165 614.925C21.2583 612.578 20.4052 610.448 18.9966 608.837C17.5782 607.217 15.5946 606.135 13.3395 606.002C2.40521 605.162 -8.48146 603.676 -19.2133 601.466C-21.889 600.875 -24.5744 600.342 -27.2307 599.662C-28.5589 599.332 -29.8967 599.022 -31.2249 598.682L-35.19 597.614C-35.8541 597.429 -36.5182 597.264 -37.1726 597.07L-39.1454 596.487L-43.0912 595.321L-47.0078 594.057L-48.9613 593.425L-50.905 592.744L-54.7828 591.382L-58.6315 589.922L-60.5558 589.193L-62.4607 588.414L-66.2705 586.866L-70.0414 585.221L-71.9269 584.403L-73.7929 583.536L-77.5249 581.802L-81.2083 579.981L-83.0549 579.065L-84.8723 578.11L-88.5168 576.2L-92.1126 574.203L-93.9106 573.199L-95.6793 572.156L-99.2265 570.07L-102.715 567.896L-104.465 566.814L-106.185 565.683L-109.625 563.42C-111.492 562.133 -112.637 560.18 -112.963 558.098C-113.279 555.996 -112.756 553.736 -111.393 551.837L-108.326 547.568C-106.954 545.669 -105.033 544.463 -103.033 543.999C-101.023 543.526 -98.9526 543.806 -97.252 544.976C-86.5794 552.124 -75.352 558.439 -63.6676 563.747C-51.9735 569.025 -39.8809 573.422 -27.4779 576.675C-25.4856 577.239 -23.4366 576.736 -21.7793 575.56C-20.122 574.383 -18.8565 572.514 -18.3336 570.234C-17.8106 567.955 -18.1076 565.697 -18.9797 563.909C-19.8517 562.112 -21.3086 560.814 -23.1447 560.289C-51.4275 552.773 -78.169 539.378 -101.191 521.126C-124.222 502.893 -143.562 479.951 -157.481 454.114C-158.372 452.415 -160.033 451.342 -161.977 450.906C-163.901 450.469 -166.155 450.698 -168.242 451.748C-170.329 452.798 -171.859 454.473 -172.626 456.371C-173.384 458.26 -173.331 460.352 -172.371 462.189C-169.894 466.711 -167.338 471.204 -164.557 475.55L-163.529 477.191C-163.187 477.738 -162.825 478.265 -162.462 478.812L-160.329 482.045L-158.117 485.228L-157.011 486.82L-155.866 488.383C-154.652 490.052 -154.307 492.134 -154.674 494.139C-155.061 496.154 -156.199 498.141 -158.051 499.582L-162.194 502.816C-164.036 504.257 -166.251 504.848 -168.37 504.607C-170.498 504.386 -172.462 503.295 -173.803 501.459L-175.016 499.799L-176.191 498.11L-178.54 494.731L-180.81 491.293L-181.946 489.574L-183.042 487.836L-185.226 484.349L-187.331 480.814L-188.378 479.046L-189.387 477.248L-191.405 473.654L-193.334 470.02L-194.294 468.203L-195.215 466.367L-197.047 462.684L-198.792 458.962L-199.664 457.096L-200.497 455.21L-202.154 451.439L-203.723 447.628L-204.507 445.723L-205.243 443.798L-206.714 439.949L-208.088 436.069C-209.029 433.49 -209.835 430.861 -210.698 428.262C-212.309 423.014 -213.841 417.737 -215.11 412.4C-217.746 401.738 -219.621 390.898 -220.841 379.988C-221.129 377.739 -222.206 375.786 -223.878 374.43C-225.539 373.074 -227.737 372.305 -230.06 372.486C-232.393 372.666 -234.411 373.784 -235.794 375.488L-235.785 375.459Z" fill="url(#paint8_linear_12357_95236)"/>
</g>
<g opacity="0.6">
<path d="M102.167 489.081C109.539 484.348 116.468 478.929 122.855 472.94C129.227 466.925 135.052 460.36 140.26 453.311C150.656 439.219 158.439 423.185 163.062 406.3C163.391 405.071 163.191 403.833 162.619 402.836C162.034 401.84 161.058 401.093 159.866 400.81C158.667 400.521 157.478 400.753 156.507 401.325C155.522 401.898 154.775 402.816 154.467 403.963C150.132 419.796 142.841 434.817 133.08 448.032C128.196 454.637 122.72 460.815 116.75 466.453C110.759 472.072 104.262 477.152 97.3585 481.591C96.3517 482.232 95.7122 483.242 95.4462 484.326C95.1944 485.422 95.3394 486.637 95.9621 487.691C96.5918 488.751 97.5911 489.443 98.7215 489.71C99.8519 489.977 101.084 489.782 102.155 489.096L102.167 489.081Z" fill="url(#paint9_linear_12357_95236)"/>
<path d="M1.62585 521.73C-4.31022 520.836 -10.1896 519.603 -15.9855 518.029C-21.7752 516.449 -27.4744 514.533 -33.0421 512.294C-38.6223 510.068 -44.0472 507.477 -49.3111 504.599C-54.5751 501.722 -59.6853 498.552 -64.5627 495.071C-65.6769 494.267 -66.9719 493.945 -68.1901 494.052C-69.3887 494.151 -70.5229 494.695 -71.2648 495.679C-72.0137 496.656 -72.2285 497.897 -71.9627 499.117C-71.6844 500.323 -70.9129 501.493 -69.7283 502.346C-64.5623 506.027 -59.1583 509.377 -53.5943 512.427C-48.0241 515.47 -42.2745 518.205 -36.3766 520.569C-30.4787 522.932 -24.4504 524.958 -18.3253 526.642C-12.1949 528.305 -5.96965 529.6 0.305208 530.55C1.0237 530.673 1.73104 530.636 2.37764 530.496C3.03756 530.355 3.62961 530.105 4.15564 529.772C5.19344 529.095 5.89773 528.054 6.04689 526.831C6.19606 525.608 5.75969 524.44 4.9588 523.52C4.55835 523.06 4.07547 522.666 3.51197 522.365C2.94847 522.064 2.3177 521.854 1.64013 521.742L1.62585 521.73Z" fill="url(#paint10_linear_12357_95236)"/>
<path d="M-15.3341 506.024C-7.35492 508.365 0.840701 509.968 9.10795 510.869C17.3752 511.77 25.7203 511.962 34.0205 511.414C42.3207 510.867 50.5716 509.612 58.6596 507.653C66.7466 505.681 74.6573 503.005 82.2878 499.672C83.4434 499.147 84.3045 498.242 84.7038 497.149C85.1102 496.061 85.0852 494.838 84.5593 493.73C84.0333 492.623 83.1004 491.826 82.0549 491.432C81.0032 491.045 79.8086 491.01 78.7179 491.503C71.5684 494.627 64.1416 497.135 56.5616 498.984C48.9808 500.82 41.2335 501.998 33.4469 502.515C25.6604 503.033 17.8317 502.851 10.0774 502.007C2.32935 501.156 -5.35668 499.657 -12.8369 497.461C-13.1242 497.374 -13.4087 497.328 -13.6976 497.315C-13.9874 497.289 -14.2683 497.296 -14.541 497.322C-15.099 497.389 -15.6433 497.555 -16.1402 497.825C-17.1339 498.365 -17.9551 499.267 -18.3355 500.44C-18.7159 501.612 -18.5913 502.822 -18.0452 503.834C-17.7753 504.344 -17.3953 504.799 -16.94 505.182C-16.719 505.373 -16.4599 505.536 -16.1884 505.684C-15.924 505.825 -15.6348 505.938 -15.3208 506.023L-15.3341 506.024Z" fill="url(#paint11_linear_12357_95236)"/>
<path d="M180.498 333.802C179.291 334.07 178.348 334.867 177.732 335.923C177.123 336.984 176.899 338.293 177.141 339.641C178.165 345.113 178.899 350.645 179.326 356.2C179.449 357.571 180.002 358.777 180.865 359.639C181.722 360.495 182.87 361.015 184.098 360.954C185.326 360.893 186.408 360.266 187.163 359.281C187.911 358.29 188.346 356.94 188.219 355.502C187.756 349.629 186.98 343.785 185.907 337.995C185.646 336.568 184.874 335.384 183.897 334.624C182.92 333.863 181.692 333.549 180.498 333.816L180.498 333.802Z" fill="url(#paint12_linear_12357_95236)"/>
<path d="M150.383 299.26C148.459 295.788 146.394 292.394 144.188 289.09C139.795 282.473 134.801 276.261 129.381 270.469C126.662 267.583 123.803 264.815 120.859 262.159C117.92 259.497 114.851 256.971 111.69 254.579C108.53 252.187 105.289 249.888 101.926 247.772C98.5763 245.641 95.1423 243.65 91.6243 241.8C88.1125 239.942 84.5062 238.265 80.8488 236.719C77.1851 235.18 73.4641 233.779 69.6947 232.549C68.4821 232.16 67.2329 232.304 66.2116 232.832C65.1902 233.361 64.3923 234.308 64.0457 235.485C63.7 236.675 63.8698 237.862 64.3821 238.87C64.9016 239.884 65.7803 240.671 66.9172 241.032C72.2435 242.787 77.4632 244.837 82.5266 247.24C83.7816 247.853 85.0552 248.445 86.2997 249.099C86.9183 249.423 87.5494 249.733 88.1619 250.064L90.0073 251.077L90.9331 251.58L91.8404 252.104L93.662 253.159L95.4597 254.255C96.0545 254.621 96.6555 254.98 97.245 255.366C101.964 258.397 106.506 261.688 110.815 265.276C115.124 268.865 119.223 272.71 123.064 276.794C123.869 277.668 124.229 278.807 124.153 279.917C124.07 281.035 123.53 282.132 122.615 282.941L120.539 284.77C119.611 285.58 118.48 285.976 117.402 285.98C116.311 285.984 115.28 285.603 114.548 284.805C112.495 282.648 110.385 280.529 108.188 278.51C105.979 276.505 103.731 274.53 101.386 272.682C100.547 271.992 99.442 271.797 98.3921 272.013C97.3423 272.229 96.3345 272.857 95.5999 273.847C94.8652 274.837 94.5301 275.986 94.5697 277.035C94.6093 278.083 95.0432 279.023 95.8246 279.664C105.505 287.388 113.916 296.589 120.571 306.934C122.251 309.506 123.796 312.175 125.244 314.883C126.686 317.6 128.051 320.361 129.259 323.188C131.689 328.84 133.711 334.689 135.193 340.67C135.944 343.663 136.576 346.678 137.083 349.722C137.584 352.774 137.965 355.834 138.219 358.909C138.755 365.059 138.745 371.261 138.27 377.409C138.036 380.486 137.66 383.553 137.169 386.595C136.678 389.637 136.072 392.667 135.336 395.66C134.593 398.646 133.735 401.608 132.76 404.53C132.503 405.259 132.279 405.991 132.008 406.72L131.215 408.887C130.645 410.321 130.096 411.76 129.477 413.163C129.093 414.095 129.165 415.121 129.625 416.059C130.086 416.997 130.916 417.855 132.037 418.377C133.152 418.894 134.343 418.976 135.36 418.668C136.39 418.36 137.258 417.662 137.678 416.661C143.516 403.083 146.801 388.43 147.424 373.646C148.068 358.866 145.985 343.975 141.364 329.948C141.024 328.914 141.189 327.818 141.692 326.877C142.202 325.93 143.104 325.122 144.26 324.698L146.859 323.748C148.015 323.324 149.217 323.378 150.241 323.841C151.271 324.296 152.087 325.155 152.454 326.287C158.034 343.199 160.215 361.231 158.801 378.998C158.697 380.184 159.116 381.299 159.826 382.166C160.542 383.025 161.596 383.64 162.818 383.773C164.039 383.906 165.205 383.528 166.098 382.788C166.991 382.048 167.577 380.941 167.689 379.674C168.935 363.827 167.536 347.788 163.543 332.404C161.547 324.712 158.932 317.184 155.682 309.943C154.056 306.316 152.294 302.759 150.377 299.281L150.383 299.26Z" fill="url(#paint13_linear_12357_95236)"/>
<path d="M12.933 193.31C13.6223 193.495 14.3709 193.569 15.1449 193.527C18.5321 193.311 21.9296 193.242 25.3166 193.213L27.8568 193.239C28.7082 193.252 29.5526 193.258 30.3988 193.291C32.0974 193.35 33.795 193.396 35.484 193.509C42.2629 193.908 49.0197 194.662 55.7059 195.844C62.392 197.026 69.0171 198.58 75.5349 200.517C82.0474 202.475 88.4446 204.796 94.6936 207.489C95.4108 207.786 96.1411 207.981 96.8497 208.058C97.5582 208.134 98.2513 208.084 98.8837 207.932C100.155 207.62 101.215 206.888 101.741 205.778C102.272 204.662 102.156 203.371 101.518 202.205C101.203 201.618 100.755 201.054 100.205 200.565C99.6544 200.062 98.9883 199.634 98.2364 199.319C91.6696 196.488 84.9423 194.044 78.0954 191.996C71.2493 189.962 64.2836 188.325 57.2587 187.087C50.2328 185.836 43.1319 185.046 36.0171 184.631C34.2338 184.511 32.4553 184.458 30.6696 184.399C29.7763 184.362 28.8919 184.358 27.9934 184.342L25.319 184.313C21.7507 184.334 18.1933 184.415 14.6389 184.636C13.8249 184.681 13.0531 184.85 12.3625 185.128C11.6719 185.405 11.0687 185.783 10.5643 186.234C9.56806 187.123 9.01347 188.294 9.1256 189.518C9.23774 190.742 9.97415 191.795 11.0562 192.521C11.6039 192.883 12.2321 193.153 12.9206 193.325L12.933 193.31Z" fill="url(#paint14_linear_12357_95236)"/>
<path d="M-41.2617 219.032C-50.7533 223.241 -59.8395 228.366 -68.3668 234.301C-69.5534 235.149 -70.3497 236.311 -70.634 237.517C-70.9174 238.736 -70.7173 239.974 -69.9855 240.959C-69.2538 241.945 -68.1305 242.494 -66.9241 242.602C-65.7177 242.709 -64.406 242.408 -63.2833 241.604C-62.5375 241.062 -61.7551 240.564 -60.9941 240.047C-60.2331 239.53 -59.4588 239.013 -58.6827 238.522L-56.3417 237.035L-53.9705 235.599C-53.6751 235.418 -53.3769 235.276 -53.0635 235.159C-52.7563 235.05 -52.434 234.967 -52.1222 234.925C-51.4932 234.819 -50.8683 234.848 -50.2769 234.973C-49.1003 235.23 -48.093 235.942 -47.4952 237.024L-46.1609 239.446C-45.5702 240.522 -45.4909 241.756 -45.8279 242.878C-45.9969 243.433 -46.261 243.967 -46.6302 244.436C-46.8081 244.669 -47.0208 244.885 -47.2477 245.089C-47.4746 245.293 -47.7229 245.478 -47.9925 245.645C-60.2432 252.931 -71.3862 262.081 -80.9377 272.636C-81.7827 273.58 -82.1817 274.774 -82.1151 275.921C-82.0414 277.075 -81.5155 278.182 -80.5825 278.979C-79.6496 279.776 -78.4736 280.12 -77.354 280.04C-76.2273 279.966 -75.1347 279.499 -74.3393 278.612C-68.5684 272.238 -62.1897 266.417 -55.3228 261.258C-48.4559 256.098 -41.0805 251.605 -33.3517 247.857C-17.8941 240.361 -0.973429 235.887 16.1653 234.733C17.3524 234.661 18.3977 234.091 19.1568 233.259C19.9088 232.422 20.3658 231.291 20.3203 230.062C20.2748 228.833 19.7426 227.733 18.8782 226.958C18.0209 226.189 16.8394 225.764 15.5722 225.842C9.97248 226.216 4.40398 226.943 -1.1174 227.962C-1.4283 228.018 -1.74105 228.047 -2.04946 228.042C-2.35074 228.043 -2.65387 228.018 -2.94554 227.966C-3.52888 227.86 -4.08679 227.639 -4.57744 227.326C-5.56494 226.707 -6.31625 225.729 -6.5812 224.523L-7.17152 221.819C-7.43646 220.613 -7.13881 219.406 -6.42895 218.445C-6.07401 217.964 -5.61492 217.536 -5.0765 217.189C-4.80682 217.023 -4.51577 216.874 -4.21665 216.746C-3.9104 216.623 -3.58804 216.54 -3.24429 216.475C0.549361 215.748 4.38267 215.206 8.21722 214.777C9.175 214.681 10.1309 214.559 11.0968 214.483L13.98 214.243C15.9074 214.125 17.84 213.987 19.7648 213.929C35.4247 213.37 51.1752 215.168 66.2992 219.314C67.6246 219.688 68.9546 219.552 70.0569 219.031C71.1539 218.531 72.0354 217.631 72.3954 216.453C72.7624 215.282 72.5418 214.038 71.8659 212.989C71.1908 211.952 70.0605 211.109 68.6666 210.713C52.6682 206.321 36.0126 204.414 19.4579 205.011C8.94245 205.39 -1.53615 206.777 -11.7913 209.159C-21.8884 211.503 -31.772 214.796 -41.2627 219.019L-41.2617 219.032Z" fill="url(#paint15_linear_12357_95236)"/>
<path d="M115.303 216.539C115.776 217.751 116.708 218.923 118.037 219.739C123.394 223.085 128.563 226.706 133.51 230.611C134.722 231.575 136.13 232.07 137.437 232.091C138.732 232.125 139.941 231.683 140.732 230.743C141.524 229.802 141.749 228.52 141.451 227.222C141.141 225.939 140.299 224.619 139.029 223.605C133.834 219.511 128.405 215.701 122.768 212.187C121.376 211.329 119.858 210.976 118.522 211.132C117.187 211.288 116.066 211.931 115.444 212.993C114.821 214.056 114.824 215.348 115.297 216.56L115.303 216.539Z" fill="url(#paint16_linear_12357_95236)"/>
<path d="M152.339 241.365C151.463 242.245 151.147 243.473 151.278 244.776C151.416 246.086 152.033 247.435 153.103 248.563C156.098 251.764 158.982 255.08 161.745 258.492C162.707 259.715 163.188 261.134 163.178 262.427C163.154 263.721 162.633 264.897 161.653 265.637L159.439 267.309C158.453 268.056 157.207 268.239 155.989 267.971C154.758 267.705 153.549 266.981 152.653 265.84C145.432 256.895 137.281 248.733 128.392 241.508C119.496 234.276 109.826 227.951 99.5761 222.725C98.2898 222.047 96.8755 221.934 95.6712 222.242C94.4679 222.562 93.4757 223.316 92.944 224.433C92.4186 225.542 92.4597 226.804 92.9262 227.923C93.3926 229.041 94.2914 230.022 95.5083 230.664C104.113 235.064 112.318 240.255 119.931 246.185C127.544 252.102 134.621 258.707 141.032 265.936C153.867 280.379 163.915 297.311 170.506 315.476C170.745 316.122 171.073 316.694 171.489 317.18C171.905 317.666 172.375 318.074 172.905 318.371C173.958 318.972 175.19 319.165 176.362 318.78C177.534 318.395 178.41 317.501 178.878 316.343C179.106 315.764 179.249 315.124 179.242 314.455C179.243 313.792 179.127 313.09 178.879 312.412L178.364 310.989L177.824 309.581C177.458 308.65 177.104 307.704 176.724 306.773C176.162 305.434 176.124 304.024 176.482 302.82C176.834 301.622 177.608 300.616 178.731 300.114L181.258 298.988C182.382 298.486 183.656 298.602 184.809 299.203C185.957 299.81 186.952 300.924 187.541 302.362C191.401 311.896 194.413 321.772 196.554 331.818C198.701 341.87 199.924 352.109 200.278 362.37C200.625 372.638 200.091 382.942 198.624 393.126C197.171 403.309 194.826 413.382 191.61 423.175C191.111 424.657 191.128 426.149 191.549 427.392C191.957 428.621 192.783 429.614 193.944 430.033C195.105 430.452 196.368 430.221 197.495 429.484C198.602 428.741 199.554 427.501 200.082 425.943C205.219 410.293 208.234 393.978 209.073 377.578C209.886 361.179 208.515 344.69 205 328.655C201.484 312.62 195.797 297.043 188.138 282.483C180.485 267.917 170.803 254.407 159.587 242.433C158.46 241.255 157.07 240.538 155.757 240.337C154.444 240.136 153.182 240.481 152.312 241.354L152.339 241.365Z" fill="url(#paint17_linear_12357_95236)"/>
<path d="M37.7878 226.045C36.521 225.935 35.3366 226.335 34.459 227.101C33.5806 227.854 33.0133 228.939 32.945 230.169C32.8767 231.4 33.3112 232.54 34.0408 233.399C34.7757 234.237 35.8085 234.833 36.9944 234.935C41.8056 235.354 46.6007 236.022 51.3344 236.961C52.4967 237.206 53.6628 236.929 54.6039 236.305C55.5459 235.695 56.2815 234.718 56.5596 233.52C56.8377 232.321 56.6066 231.119 55.9762 230.146C55.3467 229.187 54.3189 228.47 53.0747 228.205C48.0218 227.201 42.9093 226.495 37.7745 226.046L37.7878 226.045Z" fill="url(#paint18_linear_12357_95236)"/>
<path d="M184.902 403.559C186.842 394.701 188.035 385.682 188.509 376.627C188.569 375.177 188.114 373.843 187.343 372.874C186.559 371.905 185.447 371.315 184.219 371.289C182.985 371.271 181.872 371.819 181.036 372.709C180.194 373.594 179.656 374.817 179.598 376.194C179.157 384.751 178.024 393.283 176.19 401.658C175.263 405.85 174.173 410 172.904 414.095C171.643 418.197 170.211 422.251 168.599 426.223C168.474 426.54 168.377 426.869 168.312 427.188C168.241 427.515 168.203 427.832 168.185 428.155C168.156 428.793 168.253 429.416 168.44 429.992C168.828 431.143 169.62 432.117 170.739 432.613C171.872 433.108 173.119 433.025 174.225 432.47C174.782 432.189 175.304 431.804 175.759 431.309C175.983 431.065 176.198 430.789 176.385 430.501C176.566 430.206 176.731 429.887 176.862 429.549C178.564 425.342 180.087 421.054 181.418 416.713C182.757 412.378 183.911 407.983 184.894 403.553L184.902 403.559Z" fill="url(#paint19_linear_12357_95236)"/>
<path d="M186.021 441.096C184.857 441.702 183.834 442.78 183.141 444.182C177.855 455.195 171.404 465.649 163.979 475.295C163.048 476.541 161.756 477.323 160.497 477.607C159.238 477.892 157.983 477.667 157.037 476.884L154.899 475.129C153.954 474.346 153.47 473.175 153.436 471.919C153.402 470.662 153.846 469.345 154.723 468.177C157.347 464.795 159.815 461.289 162.156 457.7C163.345 455.914 164.449 454.08 165.574 452.251C166.657 450.399 167.747 448.553 168.754 446.66C169.098 446.019 169.333 445.359 169.427 444.689C169.515 444.027 169.482 443.373 169.346 442.766C169.061 441.555 168.334 440.535 167.231 439.992C166.134 439.441 164.876 439.45 163.747 439.886C163.18 440.108 162.647 440.434 162.168 440.857C161.695 441.286 161.262 441.799 160.929 442.399C154.329 454.551 146.041 465.752 136.515 475.716C126.948 485.657 116.071 494.398 104.181 501.471C92.3117 508.563 79.4877 514.063 66.1809 517.728C52.8751 521.407 39.0858 523.34 25.2916 523.377C23.9194 523.388 22.6731 523.859 21.7441 524.656C20.8222 525.458 20.2211 526.539 20.1867 527.774C20.145 529.003 20.6933 530.142 21.6209 530.959C22.5548 531.77 23.8647 532.305 25.3106 532.296C31.8579 532.255 38.4139 531.859 44.9073 531.045C51.4069 530.225 57.8619 529.052 64.2276 527.465C70.5862 525.871 76.8673 523.934 82.9935 521.6C89.1259 519.258 95.1204 516.572 100.935 513.517C102.22 512.829 103.614 512.649 104.85 512.895C106.078 513.122 107.15 513.802 107.753 514.863L109.113 517.271C109.723 518.338 109.725 519.617 109.24 520.824C108.741 522.018 107.733 523.122 106.351 523.864C101.557 526.377 96.6403 528.671 91.6402 530.731C90.2094 531.342 89.0703 532.294 88.3991 533.427C87.7342 534.553 87.515 535.828 87.9433 536.976C88.3787 538.13 89.373 538.942 90.6575 539.306C91.9348 539.663 93.5122 539.617 95.0211 538.973C105.457 534.669 115.519 529.415 124.988 523.258C134.465 517.108 143.378 510.081 151.558 502.329C155.655 498.46 159.558 494.396 163.255 490.18C166.953 485.964 170.485 481.579 173.805 477.035C177.125 472.492 180.26 467.787 183.15 462.946C186.047 458.097 188.72 453.118 191.165 448.027C191.893 446.555 192.045 444.984 191.753 443.679C191.461 442.374 190.705 441.33 189.579 440.841C188.453 440.353 187.171 440.491 186.007 441.097L186.021 441.096Z" fill="url(#paint20_linear_12357_95236)"/>
<path d="M-89.7058 285.431C-90.8375 285.626 -91.9385 286.261 -92.6481 287.323C-102.083 300.897 -109.118 316.127 -113.342 332.107C-115.472 340.088 -116.878 348.258 -117.583 356.485C-118.289 364.713 -118.307 372.998 -117.58 381.216C-116.867 389.436 -115.46 397.605 -113.344 405.577C-111.228 413.548 -108.42 421.343 -104.978 428.838C-101.522 436.332 -97.3975 443.516 -92.6986 450.298C-87.9997 457.08 -82.6879 463.43 -76.9003 469.303C-76.0009 470.197 -74.8308 470.649 -73.679 470.646C-72.5272 470.644 -71.3883 470.168 -70.5396 469.276C-69.6847 468.378 -69.2953 467.238 -69.2934 466.113C-69.2924 464.975 -69.7046 463.866 -70.5594 463.036C-74.6103 458.92 -78.4096 454.572 -81.911 449.981C-82.7686 448.823 -83.6519 447.681 -84.4714 446.494C-84.8873 445.908 -85.3104 445.316 -85.7201 444.722L-86.9236 442.927C-87.1253 442.626 -87.3271 442.326 -87.5289 442.026L-88.1085 441.11L-89.2676 439.277L-90.3815 437.422L-90.9415 436.498L-91.4758 435.558L-92.5445 433.679L-93.5679 431.777L-94.0765 430.822L-94.5655 429.86L-95.5375 427.927L-96.4641 425.971L-96.9275 424.993L-97.3713 424.007L-98.2527 422.028L-99.0817 420.031L-99.4998 419.03L-99.8912 418.026L-100.675 416.007L-101.406 413.97L-101.772 412.951L-102.118 411.925L-102.797 409.87L-103.437 407.8L-103.751 406.764L-104.044 405.721L-104.632 403.633C-104.927 402.476 -104.707 401.302 -104.117 400.362C-103.512 399.421 -102.524 398.701 -101.332 398.421L-98.6362 397.793C-97.4301 397.512 -96.2582 397.703 -95.3057 398.204C-94.3461 398.711 -93.6184 399.543 -93.3512 400.588C-91.5904 407.112 -89.3101 413.498 -86.5106 419.646C-83.6986 425.78 -80.419 431.706 -76.6142 437.286C-76.0151 438.194 -75.0279 438.713 -73.9629 438.81C-72.8969 438.921 -71.7532 438.612 -70.7519 437.89C-69.7578 437.163 -69.0969 436.171 -68.8192 435.16C-68.5485 434.143 -68.6662 433.127 -69.2207 432.283C-77.8456 419.527 -83.8301 404.969 -86.6517 389.762C-89.4857 374.569 -89.2207 358.772 -85.817 343.709C-85.5774 342.727 -85.8684 341.723 -86.4895 340.884C-87.0973 340.044 -88.0761 339.357 -89.2698 339.047C-90.4634 338.738 -91.6459 338.876 -92.6096 339.367C-93.56 339.857 -94.2711 340.705 -94.5185 341.767C-95.097 344.421 -95.6347 347.084 -96.0434 349.772L-96.2074 350.782C-96.2579 351.113 -96.3013 351.451 -96.3448 351.789L-96.6195 353.805L-96.84 355.829L-96.9498 356.848L-97.0329 357.866C-97.1247 358.95 -97.7156 359.89 -98.5525 360.566C-99.4037 361.23 -100.542 361.619 -101.772 361.554L-104.536 361.397C-105.766 361.331 -106.855 360.799 -107.602 359.976C-108.37 359.147 -108.768 358.037 -108.664 356.851L-108.572 355.766L-108.459 354.686L-108.228 352.534L-107.942 350.39L-107.796 349.315L-107.629 348.245L-107.289 346.111L-106.902 343.981L-106.702 342.915L-106.481 341.854L-106.039 339.733L-105.544 337.622L-105.302 336.567L-105.027 335.516L-104.484 333.421L-103.886 331.335L-103.59 330.29L-103.267 329.255L-102.621 327.186L-101.927 325.134L-101.576 324.111L-101.205 323.094L-100.456 321.065L-99.6585 319.052C-99.1436 317.696 -98.5521 316.381 -97.9953 315.049C-96.8195 312.413 -95.6027 309.788 -94.2604 307.234C-91.6186 302.089 -88.6145 297.146 -85.3227 292.39C-84.6618 291.398 -84.4138 290.248 -84.6056 289.13C-84.7902 288.019 -85.4005 286.951 -86.3892 286.218C-87.378 285.485 -88.5679 285.229 -89.6996 285.424L-89.7058 285.431Z" fill="url(#paint21_linear_12357_95236)"/>
</g>
<defs>
<linearGradient id="paint0_linear_12357_95236" x1="303.954" y1="331.116" x2="261.152" y2="331.195" gradientUnits="userSpaceOnUse">
<stop stop-color="#3B96F6"/>
<stop offset="1" stop-color="#1D62D8"/>
</linearGradient>
<linearGradient id="paint1_linear_12357_95236" x1="279.007" y1="527.464" x2="134.047" y2="527.73" gradientUnits="userSpaceOnUse">
<stop stop-color="#3B96F6"/>
<stop offset="1" stop-color="#1D62D8"/>
</linearGradient>
<linearGradient id="paint2_linear_12357_95236" x1="252.974" y1="124.356" x2="210.162" y2="124.435" gradientUnits="userSpaceOnUse">
<stop stop-color="#3B96F6"/>
<stop offset="1" stop-color="#1D62D8"/>
</linearGradient>
<linearGradient id="paint3_linear_12357_95236" x1="253.822" y1="184.256" x2="-78.6308" y2="184.867" gradientUnits="userSpaceOnUse">
<stop stop-color="#3B96F6"/>
<stop offset="1" stop-color="#1D62D8"/>
</linearGradient>
<linearGradient id="paint4_linear_12357_95236" x1="25.9058" y1="11.8444" x2="-32.6145" y2="11.9518" gradientUnits="userSpaceOnUse">
<stop stop-color="#3B96F6"/>
<stop offset="1" stop-color="#1D62D8"/>
</linearGradient>
<linearGradient id="paint5_linear_12357_95236" x1="355.646" y1="115.582" x2="-50.5534" y2="116.328" gradientUnits="userSpaceOnUse">
<stop stop-color="#3B96F6"/>
<stop offset="1" stop-color="#1D62D8"/>
</linearGradient>
<linearGradient id="paint6_linear_12357_95236" x1="326.493" y1="208.149" x2="261.03" y2="208.269" gradientUnits="userSpaceOnUse">
<stop stop-color="#3B96F6"/>
<stop offset="1" stop-color="#1D62D8"/>
</linearGradient>
<linearGradient id="paint7_linear_12357_95236" x1="382.334" y1="418.691" x2="222.136" y2="418.985" gradientUnits="userSpaceOnUse">
<stop stop-color="#3B96F6"/>
<stop offset="1" stop-color="#1D62D8"/>
</linearGradient>
<linearGradient id="paint8_linear_12357_95236" x1="20.9569" y1="497.457" x2="-237.494" y2="497.931" gradientUnits="userSpaceOnUse">
<stop stop-color="#3B96F6"/>
<stop offset="1" stop-color="#1D62D8"/>
</linearGradient>
<linearGradient id="paint9_linear_12357_95236" x1="139.876" y1="454.447" x2="122.877" y2="439.689" gradientUnits="userSpaceOnUse">
<stop stop-color="#3B96F6"/>
<stop offset="1" stop-color="#1D62D8"/>
</linearGradient>
<linearGradient id="paint10_linear_12357_95236" x1="-3.06654" y1="538.357" x2="-63.0887" y2="486.247" gradientUnits="userSpaceOnUse">
<stop stop-color="#3B96F6"/>
<stop offset="1" stop-color="#1D62D8"/>
</linearGradient>
<linearGradient id="paint11_linear_12357_95236" x1="62.0244" y1="523.689" x2="4.42281" y2="473.681" gradientUnits="userSpaceOnUse">
<stop stop-color="#3B96F6"/>
<stop offset="1" stop-color="#1D62D8"/>
</linearGradient>
<linearGradient id="paint12_linear_12357_95236" x1="191.13" y1="354.726" x2="174.113" y2="339.953" gradientUnits="userSpaceOnUse">
<stop stop-color="#3B96F6"/>
<stop offset="1" stop-color="#1D62D8"/>
</linearGradient>
<linearGradient id="paint13_linear_12357_95236" x1="170.747" y1="378.825" x2="38.6403" y2="264.132" gradientUnits="userSpaceOnUse">
<stop stop-color="#3B96F6"/>
<stop offset="1" stop-color="#1D62D8"/>
</linearGradient>
<linearGradient id="paint14_linear_12357_95236" x1="86.587" y1="223.43" x2="24.7929" y2="169.782" gradientUnits="userSpaceOnUse">
<stop stop-color="#3B96F6"/>
<stop offset="1" stop-color="#1D62D8"/>
</linearGradient>
<linearGradient id="paint15_linear_12357_95236" x1="25.1139" y1="271.431" x2="-46.7045" y2="209.08" gradientUnits="userSpaceOnUse">
<stop stop-color="#3B96F6"/>
<stop offset="1" stop-color="#1D62D8"/>
</linearGradient>
<linearGradient id="paint16_linear_12357_95236" x1="139.953" y1="231.641" x2="116.701" y2="211.454" gradientUnits="userSpaceOnUse">
<stop stop-color="#3B96F6"/>
<stop offset="1" stop-color="#1D62D8"/>
</linearGradient>
<linearGradient id="paint17_linear_12357_95236" x1="234.848" y1="386.767" x2="73.4616" y2="246.655" gradientUnits="userSpaceOnUse">
<stop stop-color="#3B96F6"/>
<stop offset="1" stop-color="#1D62D8"/>
</linearGradient>
<linearGradient id="paint18_linear_12357_95236" x1="52.8987" y1="238.541" x2="36.6847" y2="224.465" gradientUnits="userSpaceOnUse">
<stop stop-color="#3B96F6"/>
<stop offset="1" stop-color="#1D62D8"/>
</linearGradient>
<linearGradient id="paint19_linear_12357_95236" x1="191.281" y1="413.433" x2="165.276" y2="390.855" gradientUnits="userSpaceOnUse">
<stop stop-color="#3B96F6"/>
<stop offset="1" stop-color="#1D62D8"/>
</linearGradient>
<linearGradient id="paint20_linear_12357_95236" x1="140.656" y1="516.215" x2="76.9915" y2="460.943" gradientUnits="userSpaceOnUse">
<stop stop-color="#3B96F6"/>
<stop offset="1" stop-color="#1D62D8"/>
</linearGradient>
<linearGradient id="paint21_linear_12357_95236" x1="-29.9924" y1="422.58" x2="-132.704" y2="333.408" gradientUnits="userSpaceOnUse">
<stop stop-color="#3B96F6"/>
<stop offset="1" stop-color="#1D62D8"/>
</linearGradient>
</defs>
</svg>
