<svg width="208" height="261" viewBox="0 0 208 261" fill="none" xmlns="http://www.w3.org/2000/svg">
<g opacity="0.7">
<path d="M158.641 231.669C161.155 223.022 162.871 214.138 163.774 205.182C164.656 196.221 164.729 187.186 164.005 178.212C162.551 160.263 157.749 142.579 149.928 126.357C149.35 125.183 148.355 124.354 147.24 123.969C146.12 123.59 144.852 123.672 143.733 124.256C142.609 124.846 141.845 125.826 141.472 126.928C141.094 128.035 141.133 129.252 141.674 130.352C149.007 145.559 153.501 162.121 154.868 178.959C155.543 187.378 155.474 195.867 154.65 204.267C153.804 212.673 152.193 220.996 149.836 229.097C149.489 230.273 149.676 231.484 150.207 232.505C150.747 233.525 151.678 234.37 152.883 234.765C154.083 235.16 155.33 235.025 156.385 234.468C157.446 233.915 158.263 232.924 158.635 231.669L158.641 231.669Z" fill="url(#paint0_linear_11849_82670)"/>
<path d="M79.0708 324.158C86.8396 320.582 94.2689 316.287 101.291 311.411C108.307 306.529 114.91 301.039 120.968 295.005C127.031 288.977 132.582 282.425 137.534 275.446C142.465 268.457 146.799 261.04 150.461 253.301C151.008 252.109 151.053 250.828 150.634 249.712C150.215 248.596 149.373 247.661 148.21 247.16C147.047 246.654 145.795 246.667 144.718 247.072C143.642 247.481 142.692 248.261 142.182 249.378C138.751 256.63 134.692 263.586 130.061 270.141C125.419 276.686 120.212 282.829 114.522 288.487C108.839 294.149 102.647 299.294 96.0632 303.873C89.4795 308.453 82.5145 312.477 75.2313 315.83C74.9515 315.958 74.6983 316.117 74.4609 316.292C74.2235 316.462 74.002 316.658 73.807 316.87C73.4169 317.294 73.1115 317.797 72.9065 318.343C72.4964 319.434 72.4776 320.688 72.9657 321.857C73.4591 323.026 74.3798 323.881 75.4845 324.297C76.0395 324.508 76.6366 324.613 77.2493 324.596C77.5556 324.59 77.8619 324.552 78.1682 324.483C78.4744 324.408 78.7753 324.302 79.0708 324.164L79.0708 324.158Z" fill="url(#paint1_linear_11849_82670)"/>
<path d="M114.52 58.3921C113.767 59.4149 113.568 60.6696 113.808 61.9075C114.048 63.1402 114.758 64.3138 115.864 65.1903C120.355 68.7438 124.656 72.5358 128.747 76.5504C129.768 77.5276 131.01 78.0863 132.257 78.174C133.504 78.2617 134.739 77.889 135.651 77.0088C136.563 76.1339 136.978 74.9159 136.892 73.6406C136.805 72.3706 136.232 71.0274 135.152 69.9921C130.829 65.7503 126.279 61.7417 121.529 57.9823C120.36 57.053 118.959 56.6481 117.692 56.7192C116.424 56.7903 115.258 57.3746 114.51 58.3921L114.52 58.3921Z" fill="url(#paint2_linear_11849_82670)"/>
<path d="M67.8125 51.922C63.9751 50.5319 60.0799 49.2954 56.1374 48.2177C48.263 46.0517 40.1945 44.6111 32.0796 43.7793C28.0169 43.3792 23.9387 43.1591 19.8607 43.0872C15.7828 43.01 11.6999 43.1234 7.62785 43.3955C3.55582 43.6728 -0.505406 44.0825 -4.53983 44.7091C-8.57426 45.3251 -12.5873 46.0999 -16.5577 47.0386C-20.5335 47.9668 -24.4613 49.1012 -28.3414 50.3732C-32.2214 51.6505 -36.0483 53.0759 -39.8063 54.6704C-41.0044 55.186 -41.8795 56.1402 -42.3159 57.2418C-42.7523 58.3434 -42.7341 59.6135 -42.2038 60.761C-41.6682 61.9137 -40.737 62.7271 -39.6534 63.159C-38.5697 63.591 -37.3548 63.61 -36.2306 63.1263C-30.9156 60.8938 -25.4785 58.9574 -19.9298 57.4018C-18.5413 57.0235 -17.1528 56.6294 -15.7537 56.2987C-15.0515 56.128 -14.3546 55.9468 -13.6523 55.7868L-11.5403 55.3224L-10.4843 55.0929L-9.42298 54.8899L-7.3003 54.4785L-5.17226 54.1147C-4.45938 53.997 -3.75181 53.8686 -3.0389 53.7721C2.65901 52.936 8.41031 52.4174 14.1782 52.2851C19.9408 52.1581 25.7146 52.3698 31.452 52.9414C32.6672 53.0768 33.7142 53.7152 34.4025 54.6242C35.0909 55.5438 35.4154 56.7552 35.2486 58.0097L34.8735 60.8312C34.7068 62.0911 34.096 63.156 33.2575 63.8879C32.419 64.6303 31.358 65.0292 30.2485 64.8989C27.1949 64.6135 24.1361 64.3968 21.0671 64.3177C17.998 64.2546 14.9238 64.2391 11.8551 64.3982C10.7354 64.4267 9.75399 65.0265 9.08476 65.901C8.41553 66.7754 8.06379 67.951 8.1559 69.2104C8.2533 70.4751 8.773 71.5908 9.51394 72.3727C10.2549 73.1599 11.217 73.5921 12.2576 73.5637C24.976 73.0111 37.7192 74.4696 49.864 77.9932C52.9081 78.8555 55.905 79.8767 58.8598 80.9985C61.8146 82.1257 64.7325 83.3534 67.5874 84.7242C73.2919 87.4657 78.8017 90.631 83.9955 94.2732C86.5976 96.0889 89.126 98.0001 91.5806 100.012C94.0247 102.034 96.3897 104.158 98.6703 106.366C103.237 110.776 107.419 115.585 111.21 120.674C113.111 123.216 114.885 125.849 116.565 128.539C118.239 131.23 119.818 133.984 121.27 136.803C122.718 139.626 124.049 142.497 125.269 145.422C125.566 146.157 125.879 146.881 126.16 147.622L127.01 149.843C127.541 151.334 128.077 152.826 128.555 154.333C128.89 155.312 129.636 156.062 130.624 156.483C131.613 156.905 132.838 156.998 134.058 156.652C135.272 156.3 136.248 155.563 136.833 154.63C137.417 153.698 137.632 152.57 137.271 151.512C132.627 137.046 125.271 123.459 115.773 111.579C106.285 99.6833 94.6145 89.5488 81.5533 81.7931C80.5909 81.2233 79.9817 80.2612 79.7315 79.1873C79.4918 78.1028 79.6374 76.8695 80.2429 75.7623L81.6116 73.2671C82.2223 72.1546 83.1928 71.3854 84.2962 71.05C85.3995 70.7039 86.6146 70.8234 87.6669 71.4513C103.414 80.7898 117.292 93.3018 128.195 108.031C128.916 109.025 129.994 109.605 131.13 109.794C132.266 109.977 133.502 109.742 134.536 109.02C135.575 108.298 136.217 107.218 136.411 106.042C136.604 104.862 136.306 103.613 135.538 102.556C125.795 89.4334 113.878 77.9339 100.397 68.7077C93.6592 64.0946 86.5473 60.0219 79.1301 56.6008C75.4242 54.8876 71.6499 53.3228 67.8177 51.9114L67.8125 51.922Z" fill="url(#paint3_linear_11849_82670)"/>
<path d="M-15.284 11.4719C-14.0944 12.0942 -12.5779 12.3719 -11.0043 12.1044C-4.59364 11.0766 1.86521 10.4032 8.32999 10.0843C9.92508 10.0179 11.3449 9.44903 12.3734 8.57921C13.4018 7.72527 14.0388 6.57568 14.0154 5.30557C13.9919 4.04076 13.3084 2.89889 12.1924 2.09122C11.0817 1.29941 9.54378 0.847101 7.86947 0.918973C1.07723 1.25427 -5.70904 1.9653 -12.4471 3.04141C-14.1052 3.31966 -15.5247 4.07376 -16.4525 5.08629C-17.3803 6.1094 -17.8217 7.36448 -17.5817 8.60773C-17.3417 9.85097 -16.4736 10.8496 -15.2893 11.4719L-15.284 11.4719Z" fill="url(#paint4_linear_11849_82670)"/>
<path d="M30.2112 5.66544C30.1238 6.93576 30.707 8.10429 31.6911 9.02334C32.6806 9.94239 34.0709 10.5749 35.6611 10.7255C40.1465 11.1883 44.6217 11.8151 49.0707 12.5849C50.6453 12.8784 51.9778 13.6592 52.8354 14.6685C53.6929 15.6883 54.0809 16.9525 53.819 18.1913L53.2325 20.9762C52.9707 22.2203 52.1327 23.201 51.0034 23.8222C49.8689 24.4488 48.4485 24.7001 46.9795 24.4276C35.3392 22.3638 23.5057 21.5494 11.743 21.9467C-0.035453 22.3441 -11.8064 23.9798 -23.2792 26.8429C-24.7365 27.1895 -25.9128 28.0543 -26.6292 29.1088C-27.351 30.1686 -27.6075 31.4286 -27.2619 32.6452C-26.9163 33.8618 -26.0377 34.8128 -24.9222 35.3665C-23.8014 35.9201 -22.4436 36.0711 -21.0655 35.7457C-11.4194 33.3412 -1.55515 31.8307 8.35316 31.2833C18.2562 30.7306 28.1978 31.0775 38.0514 32.3454C57.7585 34.876 76.9918 41.218 94.3667 50.8604C94.9853 51.2033 95.6354 51.4191 96.2853 51.5184C96.9352 51.6125 97.5743 51.6113 98.1868 51.4885C99.4066 51.2428 100.499 50.5581 101.146 49.4667C101.794 48.3806 101.871 47.0891 101.451 45.8832C101.239 45.2803 100.911 44.6882 100.461 44.1703C100.011 43.6525 99.4499 43.1931 98.7995 42.8291L97.4459 42.0748L96.0765 41.347C95.1565 40.8671 94.2524 40.3766 93.3219 39.9126C91.9843 39.2482 90.9998 38.1809 90.4695 37.007C89.9338 35.8384 89.8575 34.5366 90.3889 33.3925L91.5885 30.813C92.1199 29.6636 93.1802 28.8942 94.4843 28.5849C95.7779 28.2861 97.3047 28.4739 98.7428 29.1857C108.175 33.9738 117.181 39.5936 125.628 45.9394C134.081 52.28 141.943 59.3943 149.157 67.1184C156.36 74.8478 162.909 83.1923 168.657 92.0781C174.409 100.959 179.392 110.349 183.519 120.111C184.129 121.591 185.156 122.743 186.325 123.419C187.478 124.099 188.783 124.308 189.96 123.856C191.142 123.404 191.969 122.36 192.347 121.031C192.709 119.707 192.601 118.099 191.959 116.539C185.364 100.933 176.691 86.2419 166.255 72.9667C155.804 59.7022 143.607 47.8434 130.05 37.7812C116.493 27.7189 101.562 19.4903 85.7883 13.3643C70.0151 7.23301 53.3902 3.29429 36.6057 1.58922C34.931 1.43352 33.3735 1.81743 32.218 2.54988C31.0626 3.28234 30.3199 4.40038 30.2324 5.66011L30.2112 5.66544Z" fill="url(#paint5_linear_11849_82670)"/>
<path d="M165.039 109.429C160.556 101.245 155.391 93.4481 149.642 86.1128C148.704 84.945 147.457 84.2169 146.204 83.9916C144.947 83.7717 143.68 84.0598 142.714 84.8766C141.744 85.6934 141.255 86.8745 141.21 88.1235C141.159 89.3779 141.563 90.695 142.447 91.7942C147.885 98.7277 152.768 106.102 157.008 113.842C159.123 117.712 161.074 121.672 162.867 125.707C164.659 129.736 166.289 133.846 167.728 138.019C167.844 138.352 167.993 138.669 168.157 138.965C168.322 139.261 168.507 139.541 168.708 139.795C169.121 140.308 169.608 140.73 170.147 141.047C171.226 141.68 172.499 141.9 173.703 141.522C174.917 141.144 175.824 140.237 176.313 139.056C176.555 138.468 176.696 137.806 176.716 137.118C176.726 136.774 176.704 136.42 176.651 136.065C176.592 135.711 176.502 135.356 176.374 135.002C174.855 130.586 173.131 126.239 171.232 121.976C169.338 117.709 167.271 113.521 165.034 109.429L165.039 109.429Z" fill="url(#paint6_linear_11849_82670)"/>
<path d="M191.301 137.846C190.807 139.102 190.746 140.631 191.156 142.181C194.501 154.294 196.562 166.754 197.325 179.253C197.439 180.851 196.971 182.323 196.186 183.394C195.401 184.464 194.277 185.133 193.015 185.173L190.173 185.257C188.911 185.291 187.742 184.711 186.874 183.755C186.001 182.799 185.455 181.477 185.346 179.99C185.095 175.597 184.638 171.211 184.028 166.846C183.739 164.661 183.36 162.491 182.997 160.317C182.581 158.153 182.18 155.984 181.685 153.836C181.52 153.106 181.25 152.435 180.873 151.858C180.492 151.282 180.032 150.796 179.513 150.421C178.477 149.672 177.224 149.378 175.999 149.692C174.775 150.007 173.804 150.861 173.225 151.968C172.936 152.519 172.741 153.138 172.658 153.789C172.575 154.44 172.587 155.128 172.741 155.821C175.83 169.703 176.976 183.98 176.326 198.138C175.623 212.312 173.092 226.437 168.659 239.945C164.247 253.46 158.022 266.379 150.184 278.217C142.351 290.059 132.969 300.862 122.3 310.212C121.246 311.151 120.593 312.354 120.416 313.598C120.238 314.842 120.51 316.09 121.309 317.073C122.109 318.051 123.303 318.572 124.571 318.575C125.839 318.578 127.217 318.11 128.335 317.113C133.381 312.658 138.195 307.929 142.681 302.903C147.162 297.878 151.378 292.609 155.234 287.083C159.09 281.556 162.645 275.812 165.819 269.858C168.988 263.903 171.829 257.764 174.269 251.472C174.8 250.074 175.759 248.988 176.878 248.34C177.986 247.692 179.269 247.489 180.463 247.905L183.143 248.852C184.338 249.274 185.206 250.256 185.636 251.526C186.056 252.79 186.021 254.33 185.448 255.829C183.43 261.019 181.173 266.114 178.684 271.094C177.984 272.534 177.749 274.043 177.994 275.371C178.234 276.694 178.934 277.83 180.044 278.432C181.16 279.038 182.475 278.988 183.72 278.409C184.955 277.825 186.142 276.716 186.878 275.201C192.062 264.819 196.31 253.951 199.496 242.778C202.692 231.606 204.848 220.139 205.957 208.605C206.517 202.83 206.796 197.05 206.823 191.276C206.844 185.507 206.612 179.728 206.12 173.955C205.624 168.188 204.874 162.431 203.849 156.717C202.819 151.003 201.53 145.332 199.983 139.736C199.552 138.101 198.604 136.785 197.499 135.972C196.388 135.159 195.104 134.86 193.895 135.238C192.686 135.616 191.785 136.591 191.296 137.846L191.301 137.846Z" fill="url(#paint7_linear_11849_82670)"/>
<path d="M-127.59 203.339C-128.333 204.256 -128.759 205.49 -128.598 206.792C-126.739 223.682 -121.913 240.254 -114.389 255.492C-110.646 263.122 -106.217 270.402 -101.207 277.262C-96.2031 284.117 -90.6133 290.553 -84.4964 296.437C-78.3847 302.327 -71.7827 307.708 -64.7593 312.468C-57.7306 317.224 -50.2963 321.375 -42.5569 324.859C-34.8122 328.333 -26.7676 331.123 -18.5448 333.209C-10.3167 335.289 -1.91032 336.624 6.5423 337.275C7.84714 337.357 9.06123 336.916 9.9472 336.136C10.8384 335.357 11.4015 334.212 11.452 332.953C11.5025 331.682 11.0409 330.53 10.2786 329.658C9.51112 328.781 8.43777 328.195 7.21746 328.123C1.30063 327.668 -4.59043 326.864 -10.3977 325.668C-11.8456 325.348 -13.2987 325.06 -14.7361 324.692C-15.4548 324.513 -16.1788 324.345 -16.8975 324.161L-19.0431 323.583C-19.4025 323.483 -19.7618 323.394 -20.1159 323.289L-21.1835 322.973L-23.3186 322.342L-25.438 321.658L-26.4951 321.316L-27.5469 320.947L-29.6453 320.21L-31.7279 319.42L-32.7692 319.025L-33.8 318.604L-35.8616 317.766L-37.9021 316.875L-38.9224 316.433L-39.9321 315.963L-41.9516 315.025L-43.9448 314.039L-44.944 313.543L-45.9275 313.027L-47.8996 311.993L-49.8454 310.912L-50.8183 310.368L-51.7754 309.804L-53.6949 308.675L-55.5828 307.498L-56.5294 306.912L-57.4601 306.3L-59.3217 305.076C-60.3319 304.379 -60.9518 303.322 -61.1282 302.195C-61.2993 301.057 -61.0163 299.834 -60.2787 298.806L-58.6191 296.495C-57.8762 295.467 -56.8368 294.814 -55.7544 294.564C-54.6668 294.308 -53.5467 294.459 -52.6264 295.093C-46.8512 298.961 -40.7758 302.379 -34.4531 305.252C-28.1251 308.109 -21.5814 310.489 -14.8699 312.25C-13.7918 312.555 -12.683 312.283 -11.7862 311.646C-10.8894 311.009 -10.2046 309.997 -9.92164 308.764C-9.63867 307.53 -9.79937 306.308 -10.2713 305.34C-10.7432 304.367 -11.5315 303.665 -12.5251 303.381C-27.8296 299.313 -42.3001 292.062 -54.7577 282.183C-67.2205 272.315 -77.6861 259.897 -85.2177 245.913C-85.7001 244.993 -86.5991 244.412 -87.6507 244.176C-88.6917 243.94 -89.9116 244.064 -91.041 244.632C-92.1703 245.2 -92.9979 246.107 -93.4133 247.134C-93.8235 248.156 -93.795 249.289 -93.2755 250.283C-91.9346 252.731 -90.5515 255.163 -89.0471 257.515L-88.4908 258.403C-88.3054 258.699 -88.1095 258.985 -87.9135 259.281L-86.7588 261.03L-85.5618 262.753L-84.9634 263.615L-84.3438 264.461C-83.6872 265.364 -83.5002 266.491 -83.6989 267.577C-83.9082 268.667 -84.5242 269.743 -85.5264 270.522L-87.7681 272.273C-88.765 273.053 -89.9635 273.373 -91.1099 273.242C-92.2617 273.123 -93.3245 272.532 -94.0499 271.538L-94.7066 270.64L-95.3421 269.725L-96.6132 267.897L-97.8421 266.036L-98.4565 265.106L-99.0498 264.165L-100.231 262.278L-101.37 260.364L-101.937 259.407L-102.483 258.434L-103.575 256.489L-104.619 254.522L-105.138 253.538L-105.637 252.544L-106.628 250.551L-107.572 248.536L-108.044 247.526L-108.495 246.506L-109.391 244.464L-110.24 242.402L-110.665 241.371L-111.063 240.329L-111.859 238.245L-112.602 236.146C-113.112 234.749 -113.548 233.326 -114.015 231.92C-114.887 229.079 -115.716 226.223 -116.403 223.334C-117.829 217.563 -118.843 211.696 -119.504 205.791C-119.659 204.574 -120.242 203.516 -121.147 202.783C-122.046 202.049 -123.235 201.633 -124.492 201.73C-125.755 201.828 -126.847 202.433 -127.595 203.355L-127.59 203.339Z" fill="url(#paint8_linear_11849_82670)"/>
</g>
<defs>
<linearGradient id="paint0_linear_11849_82670" x1="164.477" y1="179.339" x2="141.316" y2="179.381" gradientUnits="userSpaceOnUse">
<stop stop-color="#3B96F6"/>
<stop offset="1" stop-color="#1D62D8"/>
</linearGradient>
<linearGradient id="paint1_linear_11849_82670" x1="150.978" y1="285.614" x2="72.5362" y2="285.758" gradientUnits="userSpaceOnUse">
<stop stop-color="#3B96F6"/>
<stop offset="1" stop-color="#1D62D8"/>
</linearGradient>
<linearGradient id="paint2_linear_11849_82670" x1="136.891" y1="67.4276" x2="113.724" y2="67.4701" gradientUnits="userSpaceOnUse">
<stop stop-color="#3B96F6"/>
<stop offset="1" stop-color="#1D62D8"/>
</linearGradient>
<linearGradient id="paint3_linear_11849_82670" x1="137.351" y1="99.849" x2="-42.5482" y2="100.179" gradientUnits="userSpaceOnUse">
<stop stop-color="#3B96F6"/>
<stop offset="1" stop-color="#1D62D8"/>
</linearGradient>
<linearGradient id="paint4_linear_11849_82670" x1="14.0181" y1="6.5294" x2="-17.6487" y2="6.58752" gradientUnits="userSpaceOnUse">
<stop stop-color="#3B96F6"/>
<stop offset="1" stop-color="#1D62D8"/>
</linearGradient>
<linearGradient id="paint5_linear_11849_82670" x1="192.449" y1="62.6784" x2="-27.3562" y2="63.0818" gradientUnits="userSpaceOnUse">
<stop stop-color="#3B96F6"/>
<stop offset="1" stop-color="#1D62D8"/>
</linearGradient>
<linearGradient id="paint6_linear_11849_82670" x1="176.674" y1="112.781" x2="141.25" y2="112.846" gradientUnits="userSpaceOnUse">
<stop stop-color="#3B96F6"/>
<stop offset="1" stop-color="#1D62D8"/>
</linearGradient>
<linearGradient id="paint7_linear_11849_82670" x1="206.891" y1="226.739" x2="120.203" y2="226.898" gradientUnits="userSpaceOnUse">
<stop stop-color="#3B96F6"/>
<stop offset="1" stop-color="#1D62D8"/>
</linearGradient>
<linearGradient id="paint8_linear_11849_82670" x1="11.3395" y1="269.372" x2="-128.515" y2="269.629" gradientUnits="userSpaceOnUse">
<stop stop-color="#3B96F6"/>
<stop offset="1" stop-color="#1D62D8"/>
</linearGradient>
</defs>
</svg>
