<svg width="14" height="13" viewBox="0 0 14 13" fill="none" xmlns="http://www.w3.org/2000/svg">
<path d="M13.1703 0.993652H3.78881C3.44548 0.993652 3.16797 1.27303 3.16797 1.61865C3.16797 1.96428 3.44548 2.24365 3.78881 2.24365H13.1703C13.5136 2.24365 13.7911 1.96428 13.7911 1.61865C13.7911 1.27303 13.5136 0.993652 13.1703 0.993652Z" fill="#1D62D8"/>
<path d="M1.26329 5.79932C0.749854 5.79932 0.332031 6.23947 0.332031 6.78033C0.332031 7.3212 0.749854 7.76135 1.26329 7.76135C1.77672 7.76135 2.19454 7.3212 2.19454 6.78033C2.19454 6.23947 1.77672 5.79932 1.26329 5.79932Z" fill="#1D62D8"/>
<path d="M1.26329 0.666504C0.749854 0.666504 0.332031 1.10665 0.332031 1.64752C0.332031 2.18839 0.749854 2.62854 1.26329 2.62854C1.77672 2.62854 2.19454 2.18839 2.19454 1.64752C2.19454 1.10665 1.77672 0.666504 1.26329 0.666504Z" fill="#1D62D8"/>
<path d="M1.26329 10.9321C0.749854 10.9321 0.332031 11.3723 0.332031 11.9131C0.332031 12.454 0.749854 12.8942 1.26329 12.8942C1.77672 12.8942 2.19454 12.454 2.19454 11.9131C2.19454 11.3723 1.77672 10.9321 1.26329 10.9321Z" fill="#1D62D8"/>
<path d="M13.1703 6.12646H3.78881C3.44548 6.12646 3.16797 6.40584 3.16797 6.75146C3.16797 7.09709 3.44548 7.37646 3.78881 7.37646H13.1703C13.5136 7.37646 13.7911 7.09709 13.7911 6.75146C13.7911 6.40584 13.5136 6.12646 13.1703 6.12646Z" fill="#1D62D8"/>
<path d="M13.1703 11.2593H3.78881C3.44548 11.2593 3.16797 11.5387 3.16797 11.8843C3.16797 12.2299 3.44548 12.5093 3.78881 12.5093H13.1703C13.5136 12.5093 13.7911 12.2299 13.7911 11.8843C13.7911 11.5387 13.5136 11.2593 13.1703 11.2593Z" fill="#1D62D8"/>
</svg>
