<svg width="53" height="52" viewBox="0 0 53 52" fill="none" xmlns="http://www.w3.org/2000/svg">
<path fill-rule="evenodd" clip-rule="evenodd" d="M8.625 13H5.7C3.72562 13 2.125 14.6006 2.125 16.575V45.175C2.125 46.1224 2.502 47.0324 3.1715 47.7035C3.84263 48.373 4.75262 48.75 5.7 48.75H47.3C48.2474 48.75 49.1574 48.373 49.8285 47.7035C50.498 47.0324 50.875 46.1224 50.875 45.175V21.45C50.875 19.4756 49.2744 17.875 47.3 17.875H44.375V6.82499C44.375 4.85062 42.7744 3.25 40.8 3.25H12.2C10.2256 3.25 8.625 4.85062 8.625 6.82499V13ZM41.125 17.875V6.82499C41.125 6.64625 40.9787 6.5 40.8 6.5H12.2C12.0212 6.5 11.875 6.64625 11.875 6.82499V13H14.3174C15.2647 13 16.1747 13.377 16.8459 14.0465L20.5785 17.7791C20.6386 17.8409 20.7215 17.875 20.8076 17.875H41.125ZM26.5 22.1C25.0648 22.1 23.9 23.0464 23.9 24.2124V34.7746C23.9 35.9407 25.0648 36.887 26.5 36.887C27.9352 36.887 29.1 35.9407 29.1 34.7746V24.2124C29.1 23.0464 27.9352 22.1 26.5 22.1ZM23.9 41.1119C23.9 40.5627 24.186 40.0134 24.654 39.6121C25.616 38.8305 27.358 38.8305 28.346 39.6121C28.814 40.0134 29.1 40.5627 29.1 41.1119C29.1 41.6611 28.814 42.2104 28.346 42.6117C27.852 42.992 27.176 43.2243 26.5 43.2243C25.824 43.2243 25.148 42.992 24.654 42.6117C24.186 42.2104 23.9 41.6611 23.9 41.1119Z" fill="#1CD8D9"/>
<path d="M37.5508 14.3H22.9258C22.0288 14.3 21.3008 13.572 21.3008 12.675C21.3008 11.778 22.0288 11.05 22.9258 11.05H37.5508C38.4478 11.05 39.1758 11.778 39.1758 12.675C39.1758 13.572 38.4478 14.3 37.5508 14.3Z" fill="#1CD8D9"/>
</svg>
