<svg width="20" height="20" viewBox="0 0 20 20" fill="none" xmlns="http://www.w3.org/2000/svg">
<path d="M9.18203 16.875H6.2487C5.6237 16.875 5.16536 16.85 4.7737 16.7917C1.9987 16.4833 1.45703 14.8333 1.45703 12.0833V7.91667C1.45703 5.16667 2.00703 3.50833 4.7987 3.2C5.16536 3.15 5.6237 3.125 6.2487 3.125H9.13203C9.4737 3.125 9.75703 3.40833 9.75703 3.75C9.75703 4.09167 9.4737 4.375 9.13203 4.375H6.2487C5.68203 4.375 5.28203 4.4 4.95703 4.44167C3.26536 4.625 2.70703 5.15833 2.70703 7.91667V12.0833C2.70703 14.8417 3.26536 15.3667 4.93203 15.5583C5.28203 15.6083 5.68203 15.625 6.2487 15.625H9.18203C9.5237 15.625 9.80703 15.9083 9.80703 16.25C9.80703 16.5917 9.5237 16.875 9.18203 16.875Z" fill="#464646"/>
<path d="M13.749 16.875H12.5156C12.174 16.875 11.8906 16.5917 11.8906 16.25C11.8906 15.9083 12.174 15.625 12.5156 15.625H13.749C14.3156 15.625 14.7156 15.6 15.0406 15.5583C16.7323 15.375 17.2906 14.8417 17.2906 12.0833V7.91667C17.2906 5.15833 16.7323 4.63333 15.0656 4.44167C14.7156 4.39167 14.3156 4.375 13.749 4.375H12.5156C12.174 4.375 11.8906 4.09167 11.8906 3.75C11.8906 3.40833 12.174 3.125 12.5156 3.125H13.749C14.374 3.125 14.8323 3.15 15.224 3.20833C17.999 3.51667 18.5406 5.16667 18.5406 7.91667V12.0833C18.5406 14.8333 17.9906 16.4917 15.199 16.8C14.8323 16.85 14.374 16.875 13.749 16.875Z" fill="#464646"/>
<path d="M12.5 18.9583C12.1583 18.9583 11.875 18.675 11.875 18.3333V1.66666C11.875 1.32499 12.1583 1.04166 12.5 1.04166C12.8417 1.04166 13.125 1.32499 13.125 1.66666V18.3333C13.125 18.675 12.8417 18.9583 12.5 18.9583Z" fill="#464646"/>
<path d="M5.58333 10.8333C5.475 10.8333 5.36667 10.8083 5.26667 10.7667C5.16667 10.725 5.075 10.6667 4.99167 10.5917C4.91667 10.5083 4.85 10.4167 4.80833 10.3167C4.76667 10.2167 4.75 10.1083 4.75 10C4.75 9.78334 4.84167 9.56668 4.99167 9.40834C5.3 9.10001 5.85833 9.10001 6.175 9.40834C6.325 9.56668 6.41667 9.78334 6.41667 10C6.41667 10.1083 6.39167 10.2167 6.35 10.3167C6.30833 10.4167 6.25 10.5083 6.175 10.5917C6.09167 10.6667 6 10.725 5.9 10.7667C5.8 10.8083 5.69167 10.8333 5.58333 10.8333Z" fill="#464646"/>
<path d="M8.91536 10.8333C8.80703 10.8333 8.6987 10.8083 8.5987 10.7667C8.4987 10.725 8.40703 10.6667 8.3237 10.5917C8.2487 10.5083 8.19037 10.4167 8.14037 10.3167C8.10703 10.2167 8.08203 10.1083 8.08203 10C8.08203 9.78334 8.1737 9.56668 8.3237 9.40834C8.63203 9.10001 9.1987 9.10001 9.50703 9.40834C9.65703 9.56668 9.7487 9.78334 9.7487 10C9.7487 10.1083 9.7237 10.2167 9.68203 10.3167C9.64036 10.4167 9.58203 10.5083 9.50703 10.5917C9.4237 10.6667 9.33203 10.725 9.23203 10.7667C9.13203 10.8083 9.0237 10.8333 8.91536 10.8333Z" fill="#464646"/>
</svg>
