<svg width="36" height="36" viewBox="0 0 36 36" fill="none" xmlns="http://www.w3.org/2000/svg">
<rect width="36" height="36" rx="18" fill="white" fill-opacity="0.08"/>
<path fill-rule="evenodd" clip-rule="evenodd" d="M22.375 21.9044C24.2169 21.07 25.5 19.215 25.5 17.0625C25.5 14.91 24.2169 13.055 22.375 12.2206V10.625C22.375 9.86562 21.7594 9.25 21 9.25H12.5C11.7406 9.25 11.125 9.86562 11.125 10.625V25.375C11.125 26.1344 11.7406 26.75 12.5 26.75H21C21.7594 26.75 22.375 26.1344 22.375 25.375V21.9044ZM21.125 23.625V22.2925C20.8206 22.3469 20.5075 22.375 20.1875 22.375C19.155 22.375 18.1906 22.08 17.375 21.5694V21.75C17.375 22.095 17.095 22.375 16.75 22.375C16.405 22.375 16.125 22.095 16.125 21.75V12.375C16.125 12.03 16.405 11.75 16.75 11.75C17.095 11.75 17.375 12.03 17.375 12.375V12.5556C18.1906 12.045 19.155 11.75 20.1875 11.75C20.5075 11.75 20.8206 11.7781 21.125 11.8325V10.625C21.125 10.5562 21.0687 10.5 21 10.5H12.5C12.4313 10.5 12.375 10.5562 12.375 10.625V23.625H21.125ZM19.5625 14.5681C19.2437 14.5975 18.9438 14.7369 18.715 14.965C18.4575 15.2231 18.3125 15.5731 18.3125 15.9375V16.3125C18.3125 16.6769 18.4575 17.0269 18.715 17.285C18.9731 17.5425 19.3231 17.6875 19.6875 17.6875H20.6875C20.7206 17.6875 20.7525 17.7006 20.7756 17.7244C20.7994 17.7475 20.8125 17.7794 20.8125 17.8125V18.1875C20.8125 18.2206 20.7994 18.2525 20.7756 18.2756C20.7525 18.2994 20.7206 18.3125 20.6875 18.3125C19.9512 18.3125 18.9375 18.3125 18.9375 18.3125C18.5925 18.3125 18.3125 18.5925 18.3125 18.9375C18.3125 19.2825 18.5925 19.5625 18.9375 19.5625H19.5625V19.875C19.5625 20.22 19.8425 20.5 20.1875 20.5C20.5325 20.5 20.8125 20.22 20.8125 19.875V19.5569C21.1313 19.5275 21.4312 19.3881 21.66 19.16C21.9175 18.9019 22.0625 18.5519 22.0625 18.1875C22.0625 18.0638 22.0625 17.9362 22.0625 17.8125C22.0625 17.4481 21.9175 17.0981 21.66 16.84C21.4019 16.5825 21.0519 16.4375 20.6875 16.4375C20.3712 16.4375 20.0038 16.4375 19.6875 16.4375C19.6544 16.4375 19.6225 16.4244 19.5994 16.4006C19.5756 16.3775 19.5625 16.3456 19.5625 16.3125V15.9375C19.5625 15.9044 19.5756 15.8725 19.5994 15.8494C19.6225 15.8256 19.6544 15.8125 19.6875 15.8125H21.4375C21.7825 15.8125 22.0625 15.5325 22.0625 15.1875C22.0625 14.8425 21.7825 14.5625 21.4375 14.5625H20.8125V14.25C20.8125 13.905 20.5325 13.625 20.1875 13.625C19.8425 13.625 19.5625 13.905 19.5625 14.25V14.5681Z" fill="white"/>
</svg>
