<svg width="13" height="13" viewBox="0 0 13 13" fill="none" xmlns="http://www.w3.org/2000/svg">
<path d="M12.2069 3.08561L9.41438 0.292486C9.32152 0.199603 9.21127 0.125923 9.08993 0.075654C8.96859 0.025385 8.83853 -0.000488281 8.70719 -0.000488281C8.57585 -0.000488281 8.4458 0.025385 8.32446 0.075654C8.20312 0.125923 8.09287 0.199603 8 0.292486L0.29313 7.99998C0.199867 8.09251 0.125926 8.20265 0.0756045 8.324C0.025283 8.44535 -0.000414649 8.57549 5.05934e-06 8.70686V11.5C5.05934e-06 11.7652 0.105362 12.0196 0.292898 12.2071C0.480435 12.3946 0.734788 12.5 1 12.5H3.79313C3.9245 12.5004 4.05464 12.4747 4.17599 12.4244C4.29735 12.3741 4.40748 12.3001 4.5 12.2069L12.2069 4.49999C12.2998 4.40712 12.3734 4.29687 12.4237 4.17553C12.474 4.05419 12.4999 3.92414 12.4999 3.7928C12.4999 3.66146 12.474 3.5314 12.4237 3.41006C12.3734 3.28872 12.2998 3.17847 12.2069 3.08561ZM10 5.29249L7.20688 2.49999L8.70688 0.999986L11.5 3.79249L10 5.29249Z" fill="#1E4FAF"/>
</svg>
