<svg width="20" height="19" viewBox="0 0 20 19" fill="none" xmlns="http://www.w3.org/2000/svg">
<path d="M19.8989 18.625C19.8331 18.739 19.7384 18.8337 19.6243 18.8995C19.5103 18.9654 19.3809 19 19.2492 19H1.24923C1.11764 18.9999 0.988408 18.9651 0.874501 18.8992C0.760593 18.8333 0.666024 18.7386 0.600289 18.6247C0.534553 18.5107 0.499966 18.3814 0.5 18.2498C0.500034 18.1182 0.534687 17.9889 0.600481 17.875C2.02829 15.4065 4.22861 13.6365 6.79642 12.7975C5.52626 12.0414 4.53943 10.8892 3.98747 9.51792C3.43551 8.14665 3.34894 6.63211 3.74105 5.20688C4.13316 3.78165 4.98228 2.52454 6.158 1.6286C7.33373 0.732664 8.77105 0.247437 10.2492 0.247437C11.7274 0.247437 13.1647 0.732664 14.3405 1.6286C15.5162 2.52454 16.3653 3.78165 16.7574 5.20688C17.1495 6.63211 17.063 8.14665 16.511 9.51792C15.959 10.8892 14.9722 12.0414 13.702 12.7975C16.2699 13.6365 18.4702 15.4065 19.898 17.875C19.964 17.9889 19.9988 18.1182 19.9989 18.2499C19.9991 18.3815 19.9646 18.5109 19.8989 18.625Z" fill="currentColor"/>
</svg>
