<svg width="24" height="24" viewBox="0 0 24 24" fill="none" xmlns="http://www.w3.org/2000/svg">
<path d="M8.84116 17.9996C8.48098 17.9996 8.13881 17.8389 7.88668 17.5576L2.79013 11.8719C2.26787 11.2893 2.26787 10.325 2.79013 9.74234C3.31239 9.15971 4.17683 9.15971 4.69909 9.74234L8.84116 14.3632L18.0978 4.03658C18.62 3.45395 19.4845 3.45395 20.0067 4.03658C20.529 4.61921 20.529 5.58356 20.0067 6.16619L9.79564 17.5576C9.54351 17.8389 9.20134 17.9996 8.84116 17.9996Z" fill="currentColor"/>
<path d="M19.8273 8.77461L14.4119 15.5148C14.0597 15.9532 14.0776 16.5825 14.4543 17.0001C14.927 17.5243 15.7567 17.5006 16.1987 16.9504L21.2988 10.6022C21.7014 10.1022 21.7014 9.27462 21.2988 8.77461C20.8962 8.27461 20.2299 8.27461 19.8273 8.77461Z" fill="currentColor"/>
</svg>
