<svg width="37" height="36" viewBox="0 0 37 36" fill="none" xmlns="http://www.w3.org/2000/svg">
<rect x="0.5" width="36" height="36" rx="18" fill="white" fill-opacity="0.08"/>
<path fill-rule="evenodd" clip-rule="evenodd" d="M15.3806 9.875H13C12.2406 9.875 11.625 10.4906 11.625 11.25V26C11.625 26.7594 12.2406 27.375 13 27.375H24C24.7594 27.375 25.375 26.7594 25.375 26V11.25C25.375 10.4906 24.7594 9.875 24 9.875H21.6194C21.59 9.55625 21.4506 9.25625 21.2225 9.0275C20.9644 8.77 20.6144 8.625 20.25 8.625C19.3063 8.625 17.6937 8.625 16.75 8.625C16.3856 8.625 16.0356 8.77 15.7775 9.0275C15.5494 9.25625 15.41 9.55625 15.3806 9.875ZM14.75 24.875H22.25C22.595 24.875 22.875 24.595 22.875 24.25C22.875 23.905 22.595 23.625 22.25 23.625H14.75C14.405 23.625 14.125 23.905 14.125 24.25C14.125 24.595 14.405 24.875 14.75 24.875ZM14.75 22.375H22.25C22.595 22.375 22.875 22.095 22.875 21.75C22.875 21.405 22.595 21.125 22.25 21.125H14.75C14.405 21.125 14.125 21.405 14.125 21.75C14.125 22.095 14.405 22.375 14.75 22.375ZM14.75 19.875H22.25C22.595 19.875 22.875 19.595 22.875 19.25C22.875 18.905 22.595 18.625 22.25 18.625H14.75C14.405 18.625 14.125 18.905 14.125 19.25C14.125 19.595 14.405 19.875 14.75 19.875ZM15.125 17.25L17.2544 15.6531C17.2919 15.625 17.3425 15.62 17.385 15.6412L19.0556 16.4769C19.5219 16.7094 20.0794 16.6594 20.4956 16.3469C21.1919 15.825 22.625 14.75 22.625 14.75C22.9012 14.5431 22.9569 14.1513 22.75 13.875C22.5431 13.5988 22.1513 13.5431 21.875 13.75L19.7456 15.3469C19.7081 15.375 19.6575 15.38 19.615 15.3588L17.9444 14.5231C17.4781 14.2906 16.9206 14.3406 16.5044 14.6531C15.8081 15.175 14.375 16.25 14.375 16.25C14.0988 16.4569 14.0431 16.8487 14.25 17.125C14.4569 17.4012 14.8487 17.4569 15.125 17.25ZM20.375 10V11C20.375 11.0331 20.3619 11.065 20.3381 11.0881C20.315 11.1119 20.2831 11.125 20.25 11.125H16.75C16.7169 11.125 16.685 11.1119 16.6619 11.0881C16.6381 11.065 16.625 11.0331 16.625 11V10C16.625 9.96687 16.6381 9.935 16.6619 9.91187C16.685 9.88812 16.7169 9.875 16.75 9.875H20.25C20.2831 9.875 20.315 9.88812 20.3381 9.91187C20.3619 9.935 20.375 9.96687 20.375 10Z" fill="white"/>
</svg>
