<svg width="18" height="18" viewBox="0 0 18 18" fill="none" xmlns="http://www.w3.org/2000/svg">
<path d="M16.9438 16.0577L13.0321 12.1468C14.1659 10.7856 14.7312 9.03977 14.6106 7.27238C14.4899 5.50499 13.6925 3.85217 12.3843 2.65772C11.076 1.46328 9.35761 0.819195 7.58657 0.859445C5.81553 0.899695 4.12818 1.62118 2.87554 2.87383C1.62289 4.12647 0.901404 5.81382 0.861154 7.58486C0.820904 9.35591 1.46499 11.0743 2.65943 12.3825C3.85387 13.6908 5.5067 14.4882 7.27409 14.6089C9.04148 14.7295 10.7874 14.1642 12.1485 13.0304L16.0595 16.9421C16.1175 17.0002 16.1865 17.0463 16.2623 17.0777C16.3382 17.1091 16.4195 17.1253 16.5016 17.1253C16.5838 17.1253 16.6651 17.1091 16.741 17.0777C16.8168 17.0463 16.8858 17.0002 16.9438 16.9421C17.0019 16.8841 17.048 16.8151 17.0794 16.7392C17.1108 16.6634 17.127 16.5821 17.127 16.4999C17.127 16.4178 17.1108 16.3365 17.0794 16.2606C17.048 16.1848 17.0019 16.1158 16.9438 16.0577ZM2.12664 7.74993C2.12664 6.63741 2.45654 5.54988 3.07463 4.62485C3.69271 3.69982 4.57121 2.97885 5.59905 2.55311C6.62688 2.12737 7.75788 2.01598 8.84903 2.23302C9.94017 2.45006 10.9424 2.98579 11.7291 3.77246C12.5158 4.55913 13.0515 5.56141 13.2686 6.65255C13.4856 7.74369 13.3742 8.87469 12.9485 9.90253C12.5227 10.9304 11.8018 11.8089 10.8767 12.427C9.9517 13.045 8.86416 13.3749 7.75164 13.3749C6.26031 13.3733 4.83053 12.7801 3.77599 11.7256C2.72146 10.6711 2.1283 9.24127 2.12664 7.74993Z" fill="currentColor"/>
</svg>
