<svg width="34" height="23" viewBox="0 0 34 23" fill="none" xmlns="http://www.w3.org/2000/svg">
<path d="M33.5715 10.9945C33.5229 10.8847 32.3465 8.27502 29.7312 5.65974C26.2465 2.17501 21.8451 0.333344 17.0007 0.333344C12.1562 0.333344 7.75481 2.17501 4.27009 5.65974C1.65481 8.27502 0.47286 10.8889 0.429804 10.9945C0.366628 11.1366 0.333984 11.2903 0.333984 11.4459C0.333984 11.6014 0.366628 11.7551 0.429804 11.8972C0.478416 12.007 1.65481 14.6153 4.27009 17.2306C7.75481 20.7139 12.1562 22.5556 17.0007 22.5556C21.8451 22.5556 26.2465 20.7139 29.7312 17.2306C32.3465 14.6153 33.5229 12.007 33.5715 11.8972C33.6347 11.7551 33.6673 11.6014 33.6673 11.4459C33.6673 11.2903 33.6347 11.1366 33.5715 10.9945ZM17.0007 20.3334C12.7256 20.3334 8.99092 18.7792 5.89925 15.7153C4.6307 14.4538 3.55146 13.0152 2.69508 11.4445C3.55123 9.87354 4.6305 8.43498 5.89925 7.17363C8.99092 4.10974 12.7256 2.55557 17.0007 2.55557C21.2757 2.55557 25.0104 4.10974 28.102 7.17363C29.3731 8.43468 30.4547 9.87324 31.3132 11.4445C30.3118 13.3139 25.9493 20.3334 17.0007 20.3334ZM17.0007 4.77779C15.6821 4.77779 14.3932 5.16879 13.2968 5.90133C12.2005 6.63387 11.346 7.67506 10.8414 8.89324C10.3369 10.1114 10.2048 11.4519 10.4621 12.7451C10.7193 14.0383 11.3543 15.2262 12.2866 16.1585C13.219 17.0909 14.4068 17.7258 15.7 17.983C16.9933 18.2403 18.3337 18.1082 19.5519 17.6037C20.7701 17.0991 21.8112 16.2446 22.5438 15.1483C23.2763 14.0519 23.6673 12.763 23.6673 11.4445C23.6655 9.67692 22.9625 7.98229 21.7127 6.73244C20.4628 5.4826 18.7682 4.77963 17.0007 4.77779ZM17.0007 15.8889C16.1216 15.8889 15.2623 15.6282 14.5314 15.1399C13.8006 14.6515 13.2309 13.9574 12.8945 13.1453C12.5581 12.3332 12.4701 11.4395 12.6416 10.5774C12.8131 9.71526 13.2364 8.92333 13.858 8.30176C14.4795 7.6802 15.2714 7.2569 16.1336 7.08541C16.9957 6.91392 17.8894 7.00194 18.7015 7.33833C19.5136 7.67472 20.2077 8.24438 20.6961 8.97526C21.1844 9.70615 21.4451 10.5654 21.4451 11.4445C21.4451 12.6232 20.9768 13.7537 20.1434 14.5872C19.3099 15.4207 18.1794 15.8889 17.0007 15.8889Z" fill="#909090"/>
</svg>
