<svg width="36" height="37" viewBox="0 0 36 37" fill="none" xmlns="http://www.w3.org/2000/svg">
<path d="M5.4856 17C6.07301 17 6.54933 16.5185 6.54933 15.9247V13.1407C6.54933 11.0485 8.23356 9.34471 10.3043 9.34471H12.791L12.4365 9.70316C12.0204 10.1225 12.0204 10.8036 12.4365 11.223C12.6445 11.4333 12.9163 11.5384 13.1882 11.5384C13.46 11.5384 13.7318 11.4333 13.9398 11.223L16.1098 9.02927C16.3096 8.82854 16.4219 8.55492 16.4219 8.26936C16.4219 7.98379 16.3096 7.71018 16.1098 7.50825L13.9398 5.31454C13.5238 4.89515 12.8513 4.89515 12.4353 5.31454C12.0204 5.73512 12.0204 6.41498 12.4353 6.83556L12.7898 7.19401H10.3043C7.0611 7.19401 4.42188 9.86207 4.42188 13.1407V15.9247C4.42188 16.5185 4.89819 17 5.4856 17Z" fill="#1CD8D9"/>
<path d="M31.0826 20C30.4953 20 30.019 20.4816 30.019 21.0755V23.8598C30.019 25.9522 28.3351 27.6562 26.266 27.6562H23.7798L24.1343 27.2977C24.5502 26.8771 24.5502 26.1972 24.1343 25.7765C23.7183 25.3571 23.0447 25.3571 22.63 25.7765L20.4604 27.9705C20.0444 28.3912 20.0444 29.0711 20.4604 29.4905L22.63 31.6845C22.838 31.8948 23.1097 32 23.3827 32C23.6557 32 23.9275 31.8948 24.1354 31.6845C24.5514 31.2651 24.5514 30.5839 24.1354 30.1645L23.7809 29.806H26.2672C29.5097 29.806 32.1484 27.1388 32.1484 23.8586V21.0743C32.1461 20.4816 31.6699 20 31.0826 20Z" fill="#1CD8D9"/>
<path d="M33 9.97974V16.46C33 16.6032 32.9407 16.7406 32.8352 16.8418C32.7298 16.9431 32.5867 17 32.4375 17H28.5C28.3508 17 28.2077 16.9431 28.1023 16.8418C27.9968 16.7406 27.9375 16.6032 27.9375 16.46V12.9499C27.9375 12.8782 27.9079 12.8096 27.8551 12.7589C27.8024 12.7083 27.7308 12.6798 27.6562 12.6798H24.8438C24.7692 12.6798 24.6976 12.7083 24.6449 12.7589C24.5921 12.8096 24.5625 12.8782 24.5625 12.9499V16.46C24.5625 16.6032 24.5032 16.7406 24.3977 16.8418C24.2923 16.9431 24.1492 17 24 17H20.0625C19.9133 17 19.7702 16.9431 19.6648 16.8418C19.5593 16.7406 19.5 16.6032 19.5 16.46V9.97974C19.5001 9.69335 19.6188 9.41873 19.8298 9.21629L25.4548 3.81609C25.6657 3.61369 25.9518 3.5 26.25 3.5C26.5482 3.5 26.8343 3.61369 27.0452 3.81609L32.6702 9.21629C32.8812 9.41873 32.9999 9.69335 33 9.97974Z" fill="#1D62D8"/>
<path d="M16.5 26.4797V32.96C16.5 33.1032 16.4407 33.2406 16.3352 33.3418C16.2298 33.4431 16.0867 33.5 15.9375 33.5H12C11.8508 33.5 11.7077 33.4431 11.6023 33.3418C11.4968 33.2406 11.4375 33.1032 11.4375 32.96V29.4499C11.4375 29.3782 11.4079 29.3096 11.3551 29.2589C11.3024 29.2083 11.2308 29.1798 11.1562 29.1798H8.34375C8.26916 29.1798 8.19762 29.2083 8.14488 29.2589C8.09213 29.3096 8.0625 29.3782 8.0625 29.4499V32.96C8.0625 33.1032 8.00324 33.2406 7.89775 33.3418C7.79226 33.4431 7.64918 33.5 7.5 33.5H3.5625C3.41332 33.5 3.27024 33.4431 3.16475 33.3418C3.05926 33.2406 3 33.1032 3 32.96V26.4797C3.00014 26.1933 3.11876 25.9187 3.32977 25.7163L8.95477 20.3161C9.16572 20.1137 9.45176 20 9.75 20C10.0482 20 10.3343 20.1137 10.5452 20.3161L16.1702 25.7163C16.3812 25.9187 16.4999 26.1933 16.5 26.4797Z" fill="#1D62D8"/>
</svg>
