<svg width="36" height="36" viewBox="0 0 36 36" fill="none" xmlns="http://www.w3.org/2000/svg">
<rect width="36" height="36" rx="18" fill="white" fill-opacity="0.08"/>
<path fill-rule="evenodd" clip-rule="evenodd" d="M24.875 10C24.875 9.24062 24.2594 8.625 23.5 8.625H12.5C11.7406 8.625 11.125 9.24062 11.125 10V25.7C11.125 26.1563 11.3512 26.5825 11.7294 26.8387C12.1069 27.0944 12.5869 27.1463 13.0106 26.9769L14.8287 26.2494C14.8581 26.2375 14.8919 26.2375 14.9213 26.2494L17.4894 27.2769C17.8169 27.4075 18.1831 27.4075 18.5106 27.2769L21.0787 26.2494C21.1081 26.2375 21.1419 26.2375 21.1713 26.2494L22.9894 26.9769C23.4131 27.1463 23.8931 27.0944 24.2706 26.8387C24.6487 26.5825 24.875 26.1563 24.875 25.7V10ZM14.875 23.625H21.125C21.47 23.625 21.75 23.345 21.75 23C21.75 22.655 21.47 22.375 21.125 22.375H14.875C14.53 22.375 14.25 22.655 14.25 23C14.25 23.345 14.53 23.625 14.875 23.625ZM14.875 21.125H21.125C21.47 21.125 21.75 20.845 21.75 20.5C21.75 20.155 21.47 19.875 21.125 19.875H14.875C14.53 19.875 14.25 20.155 14.25 20.5C14.25 20.845 14.53 21.125 14.875 21.125ZM17.375 12.3806C17.0563 12.41 16.7562 12.5494 16.5275 12.7775C16.27 13.0356 16.125 13.3856 16.125 13.75V14.125C16.125 14.4894 16.27 14.8394 16.5275 15.0975C16.7856 15.355 17.1356 15.5 17.5 15.5H18.5C18.5331 15.5 18.565 15.5131 18.5881 15.5369C18.6119 15.56 18.625 15.5919 18.625 15.625V16C18.625 16.0331 18.6119 16.065 18.5881 16.0881C18.565 16.1119 18.5331 16.125 18.5 16.125C17.7637 16.125 16.75 16.125 16.75 16.125C16.405 16.125 16.125 16.405 16.125 16.75C16.125 17.095 16.405 17.375 16.75 17.375H17.375V18C17.375 18.345 17.655 18.625 18 18.625C18.345 18.625 18.625 18.345 18.625 18V17.3694C18.9437 17.34 19.2437 17.2006 19.4725 16.9725C19.73 16.7144 19.875 16.3644 19.875 16C19.875 15.8763 19.875 15.7487 19.875 15.625C19.875 15.2606 19.73 14.9106 19.4725 14.6525C19.2144 14.395 18.8644 14.25 18.5 14.25C18.1837 14.25 17.8162 14.25 17.5 14.25C17.4669 14.25 17.435 14.2369 17.4119 14.2131C17.3881 14.19 17.375 14.1581 17.375 14.125V13.75C17.375 13.7169 17.3881 13.685 17.4119 13.6619C17.435 13.6381 17.4669 13.625 17.5 13.625H19.25C19.595 13.625 19.875 13.345 19.875 13C19.875 12.655 19.595 12.375 19.25 12.375H18.625V11.75C18.625 11.405 18.345 11.125 18 11.125C17.655 11.125 17.375 11.405 17.375 11.75V12.3806Z" fill="white"/>
</svg>
