<svg width="24" height="24" viewBox="0 0 24 24" fill="none" xmlns="http://www.w3.org/2000/svg">
<path d="M22 18C22 18.2652 21.8946 18.5196 21.7071 18.7071C21.5196 18.8946 21.2652 19 21 19H19V21C19 21.2652 18.8946 21.5196 18.7071 21.7071C18.5196 21.8946 18.2652 22 18 22C17.7348 22 17.4804 21.8946 17.2929 21.7071C17.1054 21.5196 17 21.2652 17 21V19H15C14.7348 19 14.4804 18.8946 14.2929 18.7071C14.1054 18.5196 14 18.2652 14 18C14 17.7348 14.1054 17.4804 14.2929 17.2929C14.4804 17.1054 14.7348 17 15 17H17V15C17 14.7348 17.1054 14.4804 17.2929 14.2929C17.4804 14.1054 17.7348 14 18 14C18.2652 14 18.5196 14.1054 18.7071 14.2929C18.8946 14.4804 19 14.7348 19 15V17H21C21.2652 17 21.5196 17.1054 21.7071 17.2929C21.8946 17.4804 22 17.7348 22 18Z" fill="#1D62D8"/>
<path d="M10.8379 3C12.1779 3 13.4811 3.43981 14.5469 4.25195C15.6127 5.06416 16.3828 6.20406 16.7383 7.49609C17.0937 8.78807 17.015 10.1612 16.5146 11.4043C16.0143 12.6473 15.1192 13.6915 13.9678 14.377C14.5854 14.5788 15.1796 14.8404 15.7435 15.1574C15.9527 15.275 15.8649 15.5752 15.625 15.5752C14.9288 15.5752 14.2608 15.8515 13.7686 16.3438C13.2763 16.836 13 17.504 13 18.2002C13 18.7149 13.1523 19.2129 13.4305 19.6366C13.5268 19.7832 13.4294 20 13.254 20H2.67969C2.56042 19.9999 2.44309 19.9679 2.33984 19.9082C2.23667 19.8485 2.15041 19.7634 2.09082 19.6602C2.03129 19.5569 2.00004 19.4395 2 19.3203C2.00003 19.2012 2.03131 19.0837 2.09082 18.9805C3.38519 16.7427 5.38017 15.1376 7.70801 14.377C6.5566 13.6915 5.6615 12.6474 5.16113 11.4043C4.66076 10.1612 4.58302 8.78811 4.93848 7.49609C5.29393 6.20412 6.06313 5.06415 7.12891 4.25195C8.19469 3.43979 9.49793 3.00005 10.8379 3Z" fill="#1D62D8"/>
</svg>
