<svg width="16" height="17" viewBox="0 0 16 17" fill="none" xmlns="http://www.w3.org/2000/svg">
<path d="M8 2.125C6.73915 2.125 5.50661 2.49889 4.45824 3.19938C3.40988 3.89988 2.59278 4.89551 2.11027 6.06039C1.62776 7.22527 1.50152 8.50707 1.7475 9.7437C1.99348 10.9803 2.60064 12.1162 3.4922 13.0078C4.38376 13.8994 5.51967 14.5065 6.7563 14.7525C7.99293 14.9985 9.27473 14.8722 10.4396 14.3897C11.6045 13.9072 12.6001 13.0901 13.3006 12.0418C14.0011 10.9934 14.375 9.76086 14.375 8.5C14.373 6.80985 13.7007 5.1895 12.5056 3.99439C11.3105 2.79927 9.69015 2.12698 8 2.125ZM8 14.125C6.88748 14.125 5.79995 13.7951 4.87492 13.177C3.94989 12.5589 3.22892 11.6804 2.80318 10.6526C2.37744 9.62476 2.26604 8.49376 2.48309 7.40262C2.70013 6.31147 3.23586 5.30919 4.02253 4.52252C4.8092 3.73585 5.81148 3.20012 6.90262 2.98308C7.99376 2.76604 9.12476 2.87743 10.1526 3.30318C11.1804 3.72892 12.0589 4.44989 12.677 5.37492C13.2951 6.29994 13.625 7.38748 13.625 8.5C13.6233 9.99133 13.0302 11.4211 11.9757 12.4756C10.9211 13.5302 9.49134 14.1233 8 14.125ZM5.875 8.5C5.875 8.946 6.01533 9.38069 6.27611 9.74251C6.53689 10.1043 6.90491 10.3749 7.32802 10.516C7.75113 10.657 8.2079 10.6613 8.63361 10.5283C9.05932 10.3954 9.4324 10.1318 9.7 9.775C9.75976 9.69543 9.84868 9.64287 9.94719 9.62886C10.0457 9.61485 10.1458 9.64056 10.2253 9.70031C10.3049 9.76007 10.3574 9.84898 10.3715 9.9475C10.3855 10.046 10.3598 10.1461 10.3 10.2256C9.93786 10.7082 9.43308 11.0646 8.85714 11.2444C8.28121 11.4242 7.6633 11.4182 7.09095 11.2273C6.51859 11.0365 6.02079 10.6704 5.66804 10.1809C5.31529 9.6914 5.12547 9.10334 5.12547 8.5C5.12547 7.89665 5.31529 7.3086 5.66804 6.81912C6.02079 6.32963 6.51859 5.96353 7.09095 5.77266C7.6633 5.58179 8.28121 5.57582 8.85714 5.7556C9.43308 5.93538 9.93786 6.2918 10.3 6.77437C10.3598 6.85394 10.3855 6.95398 10.3715 7.0525C10.3574 7.15101 10.3049 7.23993 10.2253 7.29969C10.1458 7.35944 10.0457 7.38515 9.94719 7.37114C9.84868 7.35713 9.75976 7.30456 9.7 7.225C9.4324 6.8682 9.05932 6.60464 8.63361 6.47166C8.2079 6.33868 7.75113 6.34301 7.32802 6.48405C6.90491 6.62509 6.53689 6.89568 6.27611 7.25749C6.01533 7.6193 5.875 8.054 5.875 8.5Z" fill="#6C6C6C"/>
</svg>
