<svg width="20" height="20" viewBox="0 0 20 20" fill="none" xmlns="http://www.w3.org/2000/svg">
<path d="M16.4847 9.50938L13.3598 6.03748C13.2426 5.90718 13.0835 5.83398 12.9177 5.83398C12.7518 5.83398 12.5928 5.90718 12.4755 6.03748C12.3582 6.16777 12.2923 6.34449 12.2923 6.52875C12.2923 6.71301 12.3582 6.88973 12.4755 7.02002L14.534 9.30627H7.29294C7.12719 9.30627 6.96822 9.37943 6.85102 9.50965C6.73381 9.63987 6.66797 9.81649 6.66797 10.0007C6.66797 10.1848 6.73381 10.3614 6.85102 10.4917C6.96822 10.6219 7.12719 10.695 7.29294 10.695H14.534L12.4755 12.9813C12.3582 13.1116 12.2923 13.2883 12.2923 13.4726C12.2923 13.6568 12.3582 13.8335 12.4755 13.9638C12.5928 14.0941 12.7518 14.1673 12.9177 14.1673C13.0835 14.1673 13.2426 14.0941 13.3598 13.9638L16.4847 10.4919C16.5428 10.4274 16.5889 10.3509 16.6203 10.2666C16.6518 10.1823 16.668 10.0919 16.668 10.0007C16.668 9.9094 16.6518 9.81904 16.6203 9.73474C16.5889 9.65045 16.5428 9.57387 16.4847 9.50938Z" fill="#EC6986"/>
<path d="M9.92904 17.2576C9.92904 17.4326 9.85953 17.6004 9.73582 17.7241C9.6121 17.8478 9.4443 17.9173 9.26934 17.9173H3.99173C3.81677 17.9173 3.64897 17.8478 3.52525 17.7241C3.40154 17.6004 3.33203 17.4326 3.33203 17.2576V2.74371C3.33203 2.56874 3.40154 2.40093 3.52525 2.27721C3.64897 2.15349 3.81677 2.08398 3.99173 2.08398H9.26934C9.4443 2.08398 9.6121 2.15349 9.73582 2.27721C9.85953 2.40093 9.92904 2.56874 9.92904 2.74371C9.92904 2.91868 9.85953 3.08648 9.73582 3.2102C9.6121 3.33392 9.4443 3.40343 9.26934 3.40343H4.65143V16.5979H9.26934C9.4443 16.5979 9.6121 16.6674 9.73582 16.7911C9.85953 16.9148 9.92904 17.0826 9.92904 17.2576Z" fill="#464646"/>
</svg>
